{
copyright = "Copyright 2014 Eczar Project Authors (info@rosettatype.com)";
customParameters = (
{
name = openTypeOS2VendorID;
value = " RST";
},
{
name = glyphOrder;
value = (
    ".notdef",
    NULL,
    CR,
    space,
    nbspace,
    enspace,
    emspace,
    thinspace,
    exclam,
    quotedbl,
    numbersign,
    dollar,
    percent,
    ampersand,
    quotesingle,
    parenleft,
    parenright,
    asterisk,
    plus,
    comma,
    hyphen,
    period,
    slash,
    zero,
    one,
    two,
    three,
    four,
    five,
    six,
    seven,
    eight,
    nine,
    colon,
    semicolon,
    less,
    equal,
    greater,
    question,
    at,
    A,
    B,
    C,
    D,
    E,
    F,
    G,
    H,
    I,
    J,
    K,
    L,
    M,
    N,
    O,
    P,
    Q,
    R,
    S,
    T,
    U,
    V,
    W,
    X,
    Y,
    Z,
    bracketleft,
    backslash,
    bracketright,
    asciicircum,
    underscore,
    grave,
    a,
    b,
    c,
    d,
    e,
    f,
    g,
    h,
    i,
    j,
    k,
    l,
    m,
    n,
    o,
    p,
    q,
    r,
    s,
    t,
    u,
    v,
    w,
    x,
    y,
    z,
    braceleft,
    bar,
    braceright,
    asciitilde,
    exclamdown,
    cent,
    sterling,
    currency,
    yen,
    brokenbar,
    section,
    dieresis,
    copyright,
    ordfeminine,
    guillemetleft,
    logicalnot,
    softhyphen,
    registered,
    macron,
    degree,
    plusminus,
    twosuperior,
    threesuperior,
    foursuperior,
    acute,
    micro,
    paragraph,
    periodcentered,
    cedilla,
    onesuperior,
    ordmasculine,
    guillemetright,
    onequarter,
    onehalf,
    threequarters,
    questiondown,
    Agrave,
    Aacute,
    Acircumflex,
    Atilde,
    Adieresis,
    Aring,
    AE,
    Ccedilla,
    Egrave,
    Eacute,
    Ecircumflex,
    Edieresis,
    Igrave,
    Iacute,
    Icircumflex,
    Idieresis,
    Eth,
    Ntilde,
    Ograve,
    Oacute,
    Ocircumflex,
    Otilde,
    Odieresis,
    multiply,
    Oslash,
    Ugrave,

glyphs = (
{
glyphname = .notdef;
layers = (
{
layerId = "765B86F4-5B75-49D9-B08E-C73D0440621F";
name = Regular;
paths = (
{
closed = 1;
nodes = (
"47 23 LINE",
"465 23 LINE",
"465 458 LINE",
"47 458 LINE"
);
},
{
closed = 1;
nodes = (
"121 377 LINE",
"393 377 LINE",
"393 105 LINE",
"121 105 LINE"
);
}
);
width = 512;
}
);
},
{
color = 3;
glyphname = exclam;
layers = (
{
layerId = "765B86F4-5B75-49D9-B08E-C73D0440621F";
name = Regular;
paths = (
{
closed = 1;
nodes = (
"195 224 LINE",
"233 654 LINE",
"204 684 OFFCURVE",
"118 682 OFFCURVE",
"82 656 CURVE",
"118 224 LINE"
);
},
{
closed = 1;
nodes = (
"113 123 OFFCURVE",
"87 92 OFFCURVE",
"80 49 CURVE",
"97 13 OFFCURVE",
"126 -11 OFFCURVE",
"166 -20 CURVE",
"200 -4 OFFCURVE",
"224 24 OFFCURVE",
"235 62 CURVE",
"227 98 OFFCURVE",
"195 127 OFFCURVE",
"153 144 CURVE"
);
}
);
width = 314;
}
);
unicode = 0021;
},
{
color = 3;
glyphname = quotedbl;
layers = (
{
layerId = "765B86F4-5B75-49D9-B08E-C73D0440621F";
name = Regular;
paths = (
{
closed = 1;
nodes = (
"99 437 LINE",
"163 535 OFFCURVE",
"184 660 OFFCURVE",
"182 676 CURVE",
"97 694 LINE",
"64 665 LINE",
"63 628 OFFCURVE",
"56 553 OFFCURVE",
"22 462 CURVE"
);
},
{
closed = 1;
nodes = (
"288 437 LINE",
"352 535 OFFCURVE",
"373 660 OFFCURVE",
"371 676 CURVE",
"286 694 LINE",
"253 665 LINE",
"252 628 OFFCURVE",
"245 553 OFFCURVE",
"211 462 CURVE"
);
}
);
width = 376;
}
);
unicode = 0022;
},
{
color = 3;
glyphname = numbersign;
layers = (
{
layerId = "765B86F4-5B75-49D9-B08E-C73D0440621F";
name = Regular;
paths = (
{
closed = 1;
nodes = (
"132 0 LINE",
"204 -10 LINE",
"285 521 LINE",
"213 530 LINE"
);
},
{
closed = 1;
nodes = (
"337 0 LINE",
"409 -10 LINE",
"490 521 LINE",
"418 530 LINE"
);
},
{
closed = 1;
nodes = (
"87 345 LINE",
"564 345 LINE",
"564 407 LINE",
"87 407 LINE"
);
},
{
closed = 1;
nodes = (
"58 133 LINE",
"535 133 LINE",
"535 196 LINE",
"58 196 LINE"
);
}
);
width = 622;
}
);
leftMetricsKey = minus;
rightMetricsKey = minus;
unicode = 0023;
},
{
color = 3;
glyphname = dollar;
layers = (
{
components = (
{
name = S;
}
);
layerId = "765B86F4-5B75-49D9-B08E-C73D0440621F";
name = Regular;
paths = (
{
closed = 1;
nodes = (
"257 633 LINE",
"339 633 LINE",
"339 785 LINE",
"257 785 LINE"
);
},
{
closed = 1;
nodes = (
"340 -145 LINE",
"340 35 LINE",
"257 35 LINE",
"257 -145 LINE"
);
}
);
width = 553;
}
);
leftKerningGroup = S;
leftMetricsKey = S;
rightKerningGroup = S;
rightMetricsKey = S;
unicode = 0024;
},
{
color = 3;
glyphname = percent;
layers = (
{
layerId = "765B86F4-5B75-49D9-B08E-C73D0440621F";
name = Regular;
paths = (
{
closed = 1;
nodes = (
"206 -29 LINE",
"657 542 LINE",
"600 589 LINE",
"149 18 LINE"
);
},
{
closed = 1;
nodes = (
"163 335 OFFCURVE",
"133 384 OFFCURVE",
"133 436 CURVE SMOOTH",
"133 468 OFFCURVE",
"144 500 OFFCURVE",
"166 521 CURVE",
"234 538 OFFCURVE",
"267 486 OFFCURVE",
"267 432 CURVE SMOOTH",
"267 398 OFFCURVE",
"255 365 OFFCURVE",
"230 345 CURVE"
);
},
{
closed = 1;
nodes = (
"54 347 OFFCURVE",
"123 278 OFFCURVE",
"206 278 CURVE SMOOTH",
"289 278 OFFCURVE",
"349 346 OFFCURVE",
"349 431 CURVE SMOOTH",
"349 519 OFFCURVE",
"283 594 OFFCURVE",
"201 594 CURVE SMOOTH",
"119 594 OFFCURVE",
"54 518 OFFCURVE",
"54 434 CURVE SMOOTH"
);
},
{
closed = 1;
nodes = (
"586 38 OFFCURVE",
"556 87 OFFCURVE",
"556 139 CURVE SMOOTH",
"556 170 OFFCURVE",
"567 202 OFFCURVE",
"589 223 CURVE",
"657 241 OFFCURVE",
"690 189 OFFCURVE",
"690 134 CURVE SMOOTH",
"690 101 OFFCURVE",
"678 67 OFFCURVE",
"653 48 CURVE"
);
},
{
closed = 1;
nodes = (
"476 49 OFFCURVE",
"545 -20 OFFCURVE",
"628 -20 CURVE SMOOTH",
"711 -20 OFFCURVE",
"771 49 OFFCURVE",
"771 134 CURVE SMOOTH",
"771 222 OFFCURVE",
"705 296 OFFCURVE",
"623 296 CURVE SMOOTH",
"541 296 OFFCURVE",
"476 221 OFFCURVE",
"476 136 CURVE SMOOTH"
);
}
);
width = 826;
}
);
unicode = 0025;
},
{
color = 3;
glyphname = ampersand;
layers = (
{
layerId = "765B86F4-5B75-49D9-B08E-C73D0440621F";
name = Regular;
paths = (
{
closed = 1;
nodes = (
"229 372 LINE",
"180 393 OFFCURVE",
"155 440 OFFCURVE",
"155 484 CURVE SMOOTH",
"155 528 OFFCURVE",
"179 571 OFFCURVE",
"224 592 CURVE",
"414 525 LINE",
"451 628 LINE",
"381 656 OFFCURVE",
"314 668 OFFCURVE",
"259 668 CURVE SMOOTH",
"113 668 OFFCURVE",
"40 584 OFFCURVE",
"40 501 CURVE SMOOTH",
"40 426 OFFCURVE",
"99 351 OFFCURVE",
"218 339 CURVE"
);
},
{
closed = 1;
nodes = (
"405 379 LINE",
"446 333 OFFCURVE",
"469 270 OFFCURVE",
"469 211 CURVE SMOOTH",
"469 155 OFFCURVE",
"448 102 OFFCURVE",
"399 68 CURVE",
"364 52 OFFCURVE",
"325 47 OFFCURVE",
"297 47 CURVE SMOOTH",
"212 47 OFFCURVE",
"136 90 OFFCURVE",
"136 174 CURVE SMOOTH",
"136 243 OFFCURVE",
"189 306 OFFCURVE",
"290 304 CURVE",
"302 362 LINE",
"171 400 LINE",
"170 377 LINE",
"84 360 OFFCURVE",
"19 291 OFFCURVE",
"19 197 CURVE SMOOTH",
"19 63 OFFCURVE",
"145 -26 OFFCURVE",
"300 -26 CURVE SMOOTH",
"474 -26 OFFCURVE",
"576 85 OFFCURVE",
"576 222 CURVE SMOOTH",
"576 286 OFFCURVE",
"554 357 OFFCURVE",
"505 420 CURVE"
);
},
{
closed = 1;
nodes = (
"368 300 LINE",
"537 408 OFFCURVE",
"602 365 OFFCURVE",
"674 324 CURVE",
"703 427 LINE",
"623 490 OFFCURVE",
"535 472 OFFCURVE",
"337 356 CURVE"
);
}
);
width = 678;
}
);
unicode = 0026;
},
{
color = 3;
glyphname = quotesingle;
layers = (
{
layerId = "765B86F4-5B75-49D9-B08E-C73D0440621F";
name = Regular;
paths = (
{
closed = 1;
nodes = (
"53 491 LINE",
"98 563 OFFCURVE",
"128 652 OFFCURVE",
"133 730 CURVE",
"48 746 LINE",
"15 717 LINE",
"15 680 OFFCURVE",
"11 607 OFFCURVE",
"-23 516 CURVE"
);
}
);
width = 175;
}
);
unicode = 0027;
},
{
color = 3;
glyphname = parenleft;
layers = (
{
layerId = "765B86F4-5B75-49D9-B08E-C73D0440621F";
name = Regular;
paths = (
{
closed = 1;
nodes = (
"269 -118 LINE",
"194 16 OFFCURVE",
"147 158 OFFCURVE",
"147 302 CURVE SMOOTH",
"147 426 OFFCURVE",
"187 561 OFFCURVE",
"276 696 CURVE",
"208 732 LINE",
"80 585 OFFCURVE",
"26 436 OFFCURVE",
"26 297 CURVE SMOOTH",
"26 136 OFFCURVE",
"92 -15 OFFCURVE",
"199 -155 CURVE"
);
}
);
width = 303;
}
);
unicode = 0028;
},
{
color = 3;
glyphname = parenright;
layers = (
{
layerId = "765B86F4-5B75-49D9-B08E-C73D0440621F";
name = Regular;
paths = (
{
closed = 1;
nodes = (
"211 -15 OFFCURVE",
"277 136 OFFCURVE",
"277 297 CURVE SMOOTH",
"277 436 OFFCURVE",
"223 585 OFFCURVE",
"95 732 CURVE",
"27 696 LINE",
"116 561 OFFCURVE",
"156 426 OFFCURVE",
"156 302 CURVE SMOOTH",
"156 158 OFFCURVE",
"109 16 OFFCURVE",
"34 -118 CURVE",
"104 -155 LINE"
);
}
);
width = 302;
}
);
unicode = 0029;
},
{
color = 3;
glyphname = asterisk;
layers = (
{
layerId = "765B86F4-5B75-49D9-B08E-C73D0440621F";
name = Regular;
paths = (
{
closed = 1;
nodes = (
"87 708 LINE",
"142 597 LINE",
"179 618 LINE",
"157 762 LINE"
);
},
{
closed = 1;
nodes = (
"271 715 LINE",
"183 628 LINE",
"214 599 LINE",
"344 664 LINE"
);
},
{
closed = 1;
nodes = (
"340 543 LINE",
"230 599 LINE",
"212 561 LINE",
"314 459 LINE"
);
},
{
closed = 1;
nodes = (
"196 425 LINE",
"215 548 LINE",
"174 553 LINE",
"107 424 LINE"
);
},
{
closed = 1;
nodes = (
"40 529 LINE",
"163 548 LINE",
"155 589 LINE",
"12 614 LINE"
);
}
);
width = 385;
}
);
unicode = 002A;
},
{
color = 3;
glyphname = plus;
layers = (
{
layerId = "765B86F4-5B75-49D9-B08E-C73D0440621F";
name = Regular;
paths = (
{
closed = 1;
nodes = (
"329 279 LINE",
"329 474 LINE",
"242 474 LINE",
"242 279 LINE",
"58 279 LINE",
"58 202 LINE",
"242 202 LINE",
"242 8 LINE",
"329 8 LINE",
"329 202 LINE",
"513 202 LINE",
"513 279 LINE"
);
}
);
width = 571;
}
);
leftMetricsKey = minus;
rightMetricsKey = minus;
unicode = 002B;
},
{
color = 3;
glyphname = comma;
layers = (
{
layerId = "765B86F4-5B75-49D9-B08E-C73D0440621F";
name = Regular;
paths = (
{
closed = 1;
nodes = (
"78 -145 LINE",
"157 -104 OFFCURVE",
"210 -29 OFFCURVE",
"210 36 CURVE SMOOTH",
"210 83 OFFCURVE",
"181 123 OFFCURVE",
"130 140 CURVE",
"94 122 OFFCURVE",
"67 92 OFFCURVE",
"60 49 CURVE",
"112 7 LINE",
"110 -28 OFFCURVE",
"86 -67 OFFCURVE",
"44 -102 CURVE"
);
}
);
width = 265;
}
);
unicode = 002C;
},
{
color = 3;
glyphname = hyphen;
layers = (
{
layerId = "765B86F4-5B75-49D9-B08E-C73D0440621F";
name = Regular;
paths = (
{
closed = 1;
nodes = (
"340 240 LINE",
"353 267 LINE",
"315 331 LINE",
"44 331 LINE",
"31 303 LINE",
"70 240 LINE"
);
}
);
width = 390;
}
);
unicode = 002D;
},
{
color = 3;
glyphname = period;
layers = (
{
layerId = "765B86F4-5B75-49D9-B08E-C73D0440621F";
name = Regular;
paths = (
{
closed = 1;
nodes = (
"193 -19 OFFCURVE",
"219 15 OFFCURVE",
"230 44 CURVE",
"214 65 OFFCURVE",
"181 96 OFFCURVE",
"152 107 CURVE",
"127 93 OFFCURVE",
"102 59 OFFCURVE",
"86 27 CURVE",
"103 3 OFFCURVE",
"142 -26 OFFCURVE",
"167 -36 CURVE"
);
}
);
width = 230;
}
);
unicode = 002E;
},
{
color = 3;
glyphname = slash;
layers = (
{
layerId = "765B86F4-5B75-49D9-B08E-C73D0440621F";
name = Regular;
paths = (
{
closed = 1;
nodes = (
"104 -124 LINE",
"410 682 LINE",
"333 715 LINE",
"26 -93 LINE"
);
}
);
width = 409;
}
);
unicode = 002F;
},
{
color = 3;
glyphname = zero;
layers = (
{
layerId = "765B86F4-5B75-49D9-B08E-C73D0440621F";
name = Regular;
paths = (
{
closed = 1;
nodes = (
"39 154 OFFCURVE",
"118 -12 OFFCURVE",
"286 -12 CURVE SMOOTH",
"450 -12 OFFCURVE",
"536 147 OFFCURVE",
"536 338 CURVE SMOOTH",
"536 524 OFFCURVE",
"450 663 OFFCURVE",
"297 663 CURVE SMOOTH",
"128 663 OFFCURVE",
"39 493 OFFCURVE",
"39 319 CURVE SMOOTH"
);
},
{
closed = 1;
nodes = (
"248 586 OFFCURVE",
"261 587 OFFCURVE",
"273 587 CURVE SMOOTH",
"371 587 OFFCURVE",
"414 458 OFFCURVE",
"414 324 CURVE SMOOTH",
"414 238 OFFCURVE",
"396 123 OFFCURVE",
"341 70 CURVE",
"328 65 OFFCURVE",
"316 63 OFFCURVE",
"304 63 CURVE SMOOTH",
"198 63 OFFCURVE",
"160 222 OFFCURVE",
"160 332 CURVE SMOOTH",
"160 410 OFFCURVE",
"181 531 OFFCURVE",
"233 582 CURVE"
);
}
);
width = 577;
}
);
unicode = 0030;
},
{
color = 3;
glyphname = one;
layers = (
{
layerId = "765B86F4-5B75-49D9-B08E-C73D0440621F";
name = Regular;
paths = (
{
closed = 1;
nodes = (
"219 559 LINE",
"247 639 LINE",
"232 670 LINE",
"20 536 LINE",
"50 484 LINE"
);
},
{
closed = 1;
nodes = (
"288 636 LINE",
"232 670 LINE",
"203 604 LINE"
);
},
{
closed = 1;
nodes = (
"171 0 LINE",
"288 0 LINE",
"288 636 LINE",
"171 623 LINE"
);
},
{
closed = 1;
nodes = (
"182 0 LINE",
"193 85 LINE",
"138 72 OFFCURVE",
"81 55 OFFCURVE",
"34 34 CURVE",
"40 0 LINE"
);
},
{
closed = 1;
nodes = (
"404 0 LINE",
"409 50 LINE",
"270 70 LINE",
"268 0 LINE"
);
}
);
width = 423;
}
);
unicode = 0031;
},
{
color = 3;
glyphname = two;
layers = (
{
layerId = "765B86F4-5B75-49D9-B08E-C73D0440621F";
name = Regular;
paths = (
{
closed = 1;
nodes = (
"143 438 LINE",
"175 596 LINE",
"58 606 LINE",
"54 556 OFFCURVE",
"59 489 OFFCURVE",
"69 439 CURVE"
);
},
{
closed = 1;
nodes = (
"60 0 LINE",
"476 0 LINE",
"476 99 LINE",
"185 73 LINE",
"181 81 LINE",
"341 249 LINE",
"431 347 OFFCURVE",
"479 409 OFFCURVE",
"479 486 CURVE SMOOTH",
"479 589 OFFCURVE",
"394 666 OFFCURVE",
"284 670 CURVE SMOOTH",
"214 673 OFFCURVE",
"124 646 OFFCURVE",
"57 606 CURVE",
"119 565 LINE",
"164 584 OFFCURVE",
"220 593 OFFCURVE",
"251 593 CURVE SMOOTH",
"327 593 OFFCURVE",
"355 541 OFFCURVE",
"355 494 CURVE SMOOTH",
"355 443 OFFCURVE",
"322 383 OFFCURVE",
"236 289 CURVE SMOOTH",
"41 73 LINE"
);
},
{
closed = 1;
nodes = (
"450 191 LINE",
"373 32 LINE",
"482 0 LINE",
"496 50 OFFCURVE",
"507 121 OFFCURVE",
"512 179 CURVE"
);
}
);
width = 563;
}
);
unicode = 0032;
},
{
color = 3;
glyphname = three;
layers = (
{
layerId = "765B86F4-5B75-49D9-B08E-C73D0440621F";
name = Regular;
paths = (
{
closed = 1;
nodes = (
"176 607 LINE",
"64 614 LINE",
"60 564 OFFCURVE",
"63 519 OFFCURVE",
"73 469 CURVE",
"145 468 LINE"
);
},
{
closed = 1;
nodes = (
"346 426 OFFCURVE",
"297 356 OFFCURVE",
"162 355 CURVE",
"170 284 LINE",
"326 327 LINE",
"326 343 LINE",
"423 371 OFFCURVE",
"468 438 OFFCURVE",
"468 505 CURVE SMOOTH",
"468 588 OFFCURVE",
"397 670 OFFCURVE",
"262 670 CURVE SMOOTH",
"193 670 OFFCURVE",
"117 650 OFFCURVE",
"64 614 CURVE",
"101 566 LINE",
"140 588 OFFCURVE",
"181 598 OFFCURVE",
"219 598 CURVE SMOOTH",
"300 598 OFFCURVE",
"346 550 OFFCURVE",
"346 488 CURVE SMOOTH"
);
},
{
closed = 1;
nodes = (
"54 29 LINE",
"115 0 OFFCURVE",
"192 -19 OFFCURVE",
"262 -19 CURVE SMOOTH",
"422 -19 OFFCURVE",
"500 79 OFFCURVE",
"500 171 CURVE SMOOTH",
"500 266 OFFCURVE",
"421 350 OFFCURVE",
"323 353 CURVE",
"312 358 LINE",
"162 355 LINE",
"156 355 LINE",
"159 281 LINE",
"225 284 LINE",
"328 284 OFFCURVE",
"379 225 OFFCURVE",
"379 161 CURVE SMOOTH",
"379 131 OFFCURVE",
"368 99 OFFCURVE",
"343 73 CURVE",
"266 64 OFFCURVE",
"160 101 OFFCURVE",
"82 143 CURVE"
);
}
);
width = 551;
}
);
unicode = 0033;
},
{
color = 3;
glyphname = four;
layers = (
{
layerId = "765B86F4-5B75-49D9-B08E-C73D0440621F";
name = Regular;
paths = (
{
closed = 1;
nodes = (
"115 211 LINE",
"357 581 LINE",
"392 553 LINE",
"417 658 LINE",
"342 670 LINE",
"21 238 LINE",
"48 169 LINE",
"523 169 LINE",
"552 196 LINE",
"550 256 LINE",
"87 244 LINE"
);
},
{
closed = 1;
nodes = (
"322 0 LINE",
"437 0 LINE",
"437 658 LINE",
"334 642 LINE",
"336 582 LINE",
"322 456 LINE"
);
},
{
closed = 1;
nodes = (
"352 0 LINE",
"363 85 LINE",
"310 72 OFFCURVE",
"255 55 OFFCURVE",
"208 34 CURVE",
"214 0 LINE"
);
},
{
closed = 1;
nodes = (
"511 0 LINE",
"516 50 LINE",
"377 70 LINE",
"375 0 LINE"
);
}
);
width = 582;
}
);
unicode = 0034;
},
{
color = 3;
glyphname = five;
layers = (
{
layerId = "765B86F4-5B75-49D9-B08E-C73D0440621F";
name = Regular;
paths = (
{
closed = 1;
nodes = (
"472 525 OFFCURVE",
"477 600 OFFCURVE",
"474 650 CURVE",
"361 641 LINE",
"389 474 LINE",
"462 475 LINE"
);
},
{
closed = 1;
nodes = (
"44 50 LINE",
"112 6 OFFCURVE",
"202 -21 OFFCURVE",
"276 -21 CURVE SMOOTH",
"415 -21 OFFCURVE",
"507 71 OFFCURVE",
"507 191 CURVE SMOOTH",
"507 333 OFFCURVE",
"382 395 OFFCURVE",
"272 395 CURVE SMOOTH",
"243 395 OFFCURVE",
"206 392 OFFCURVE",
"181 380 CURVE",
"199 574 LINE",
"448 562 LINE",
"457 650 LINE",
"111 650 LINE",
"77 325 LINE",
"128 278 LINE",
"160 290 OFFCURVE",
"200 298 OFFCURVE",
"234 298 CURVE SMOOTH",
"320 298 OFFCURVE",
"397 259 OFFCURVE",
"397 167 CURVE SMOOTH",
"397 140 OFFCURVE",
"390 107 OFFCURVE",
"352 71 CURVE",
"268 63 OFFCURVE",
"171 96 OFFCURVE",
"88 157 CURVE"
);
}
);
width = 556;
}
);
unicode = 0035;
},
{
color = 3;
glyphname = six;
layers = (
{
layerId = "765B86F4-5B75-49D9-B08E-C73D0440621F";
name = Regular;
paths = (
{
closed = 1;
nodes = (
"215 279 LINE",
"246 301 OFFCURVE",
"276 312 OFFCURVE",
"302 312 CURVE SMOOTH",
"362 312 OFFCURVE",
"397 249 OFFCURVE",
"397 180 CURVE SMOOTH",
"397 123 OFFCURVE",
"373 78 OFFCURVE",
"329 53 CURVE",
"215 45 OFFCURVE",
"159 147 OFFCURVE",
"159 271 CURVE SMOOTH",
"159 386 OFFCURVE",
"206 510 OFFCURVE",
"297 553 CURVE",
"458 540 LINE",
"457 662 LINE",
"155 656 OFFCURVE",
"38 436 OFFCURVE",
"38 262 CURVE SMOOTH",
"38 92 OFFCURVE",
"150 -20 OFFCURVE",
"293 -20 CURVE SMOOTH",
"430 -20 OFFCURVE",
"515 82 OFFCURVE",
"515 199 CURVE SMOOTH",
"515 305 OFFCURVE",
"445 395 OFFCURVE",
"346 395 CURVE SMOOTH",
"309 395 OFFCURVE",
"251 383 OFFCURVE",
"192 331 CURVE"
);
}
);
width = 547;
}
);
unicode = 0036;
},
{
color = 3;
glyphname = seven;
layers = (
{
layerId = "765B86F4-5B75-49D9-B08E-C73D0440621F";
name = Regular;
paths = (
{
closed = 1;
nodes = (
"433 650 LINE",
"28 650 LINE",
"74 556 LINE",
"358 567 LINE",
"365 558 LINE",
"254 395 OFFCURVE",
"163 214 OFFCURVE",
"87 21 CURVE",
"203 -15 LINE",
"274 190 OFFCURVE",
"359 383 OFFCURVE",
"472 568 CURVE"
);
},
{
closed = 1;
nodes = (
"112 466 LINE",
"137 641 LINE",
"25 650 LINE",
"21 600 OFFCURVE",
"26 517 OFFCURVE",
"36 467 CURVE"
);
}
);
width = 476;
}
);
unicode = 0037;
},
{
color = 3;
glyphname = eight;
layers = (
{
layerId = "765B86F4-5B75-49D9-B08E-C73D0440621F";
name = Regular;
paths = (
{
closed = 1;
nodes = (
"420 380 OFFCURVE",
"466 446 OFFCURVE",
"466 513 CURVE SMOOTH",
"466 597 OFFCURVE",
"393 668 OFFCURVE",
"267 668 CURVE SMOOTH",
"134 668 OFFCURVE",
"56 589 OFFCURVE",
"56 496 CURVE SMOOTH",
"56 426 OFFCURVE",
"100 369 OFFCURVE",
"178 326 CURVE",
"228 300 LINE",
"331 247 OFFCURVE",
"374 202 OFFCURVE",
"374 143 CURVE SMOOTH",
"374 117 OFFCURVE",
"364 91 OFFCURVE",
"346 60 CURVE",
"319 51 OFFCURVE",
"295 47 OFFCURVE",
"274 47 CURVE SMOOTH",
"199 47 OFFCURVE",
"160 100 OFFCURVE",
"160 160 CURVE SMOOTH",
"160 213 OFFCURVE",
"190 271 OFFCURVE",
"253 302 CURVE",
"210 345 LINE",
"100 305 OFFCURVE",
"39 236 OFFCURVE",
"39 154 CURVE SMOOTH",
"39 56 OFFCURVE",
"125 -21 OFFCURVE",
"260 -21 CURVE SMOOTH",
"399 -21 OFFCURVE",
"488 61 OFFCURVE",
"488 166 CURVE SMOOTH",
"488 270 OFFCURVE",
"399 324 OFFCURVE",
"312 371 CURVE SMOOTH",
"239 410 OFFCURVE",
"166 444 OFFCURVE",
"166 513 CURVE SMOOTH",
"166 536 OFFCURVE",
"175 563 OFFCURVE",
"198 590 CURVE",
"220 599 OFFCURVE",
"240 604 OFFCURVE",
"260 604 CURVE SMOOTH",
"322 604 OFFCURVE",
"364 559 OFFCURVE",
"364 502 CURVE SMOOTH",
"364 472 OFFCURVE",
"352 420 OFFCURVE",
"272 371 CURVE",
"315 333 LINE"
);
}
);
width = 527;
}
);
unicode = 0038;
},
{
color = 3;
glyphname = nine;
layers = (
{
layerId = "765B86F4-5B75-49D9-B08E-C73D0440621F";
name = Regular;
paths = (
{
closed = 1;
nodes = (
"224 295 OFFCURVE",
"151 365 OFFCURVE",
"151 461 CURVE SMOOTH",
"151 514 OFFCURVE",
"172 569 OFFCURVE",
"214 593 CURVE",
"331 623 OFFCURVE",
"378 501 OFFCURVE",
"378 372 CURVE SMOOTH",
"378 266 OFFCURVE",
"347 155 OFFCURVE",
"257 99 CURVE",
"87 120 LINE",
"107 -9 LINE",
"313 -13 OFFCURVE",
"496 138 OFFCURVE",
"496 377 CURVE SMOOTH",
"496 546 OFFCURVE",
"404 670 OFFCURVE",
"254 670 CURVE SMOOTH",
"130 670 OFFCURVE",
"29 585 OFFCURVE",
"29 455 CURVE SMOOTH",
"29 307 OFFCURVE",
"158 194 OFFCURVE",
"337 257 CURVE",
"326 323 LINE"
);
}
);
width = 525;
}
);
unicode = 0039;
},
{
color = 3;
glyphname = colon;
layers = (
{
layerId = "765B86F4-5B75-49D9-B08E-C73D0440621F";
name = Regular;
paths = (
{
closed = 1;
nodes = (
"233 98 OFFCURVE",
"201 127 OFFCURVE",
"159 144 CURVE",
"119 123 OFFCURVE",
"93 92 OFFCURVE",
"86 49 CURVE",
"103 13 OFFCURVE",
"132 -11 OFFCURVE",
"172 -20 CURVE",
"206 -4 OFFCURVE",
"230 24 OFFCURVE",
"241 62 CURVE"
);
},
{
closed = 1;
nodes = (
"233 406 OFFCURVE",
"201 434 OFFCURVE",
"159 451 CURVE",
"119 431 OFFCURVE",
"93 400 OFFCURVE",
"86 357 CURVE",
"103 321 OFFCURVE",
"132 297 OFFCURVE",
"172 288 CURVE",
"206 304 OFFCURVE",
"230 332 OFFCURVE",
"241 369 CURVE"
);
}
);
width = 339;
}
);
leftMetricsKey = period;
rightMetricsKey = period;
unicode = 003A;
},
{
color = 3;
glyphname = semicolon;
layers = (
{
layerId = "765B86F4-5B75-49D9-B08E-C73D0440621F";
name = Regular;
paths = (
{
closed = 1;
nodes = (
"204 406 OFFCURVE",
"172 434 OFFCURVE",
"130 451 CURVE",
"90 431 OFFCURVE",
"64 400 OFFCURVE",
"57 357 CURVE",
"74 321 OFFCURVE",
"103 297 OFFCURVE",
"143 288 CURVE",
"177 304 OFFCURVE",
"201 332 OFFCURVE",
"212 369 CURVE"
);
},
{
closed = 1;
nodes = (
"78 -145 LINE",
"157 -104 OFFCURVE",
"210 -29 OFFCURVE",
"210 36 CURVE SMOOTH",
"210 83 OFFCURVE",
"181 123 OFFCURVE",
"130 140 CURVE",
"94 122 OFFCURVE",
"67 92 OFFCURVE",
"60 49 CURVE",
"112 7 LINE",
"110 -28 OFFCURVE",
"86 -67 OFFCURVE",
"44 -102 CURVE"
);
}
);
width = 267;
}
);
leftMetricsKey = comma;
rightMetricsKey = comma;
unicode = 003B;
},
{
color = 3;
glyphname = less;
layers = (
{
layerId = "765B86F4-5B75-49D9-B08E-C73D0440621F";
name = Regular;
paths = (
{
closed = 1;
nodes = (
"74 272 LINE",
"81 202 LINE",
"460 -6 LINE",
"498 63 LINE",
"181 236 LINE",
"180 242 LINE",
"499 435 LINE",
"460 500 LINE"
);
}
);
width = 574;
}
);
unicode = 003C;
},
{
color = 3;
glyphname = equal;
layers = (
{
layerId = "765B86F4-5B75-49D9-B08E-C73D0440621F";
name = Regular;
paths = (
{
closed = 1;
nodes = (
"58 195 LINE",
"58 122 LINE",
"530 122 LINE",
"530 195 LINE"
);
},
{
closed = 1;
nodes = (
"58 377 LINE",
"58 304 LINE",
"530 304 LINE",
"530 377 LINE"
);
}
);
width = 588;
}
);
leftMetricsKey = minus;
rightMetricsKey = minus;
unicode = 003D;
},
{
color = 3;
glyphname = greater;
layers = (
{
layerId = "765B86F4-5B75-49D9-B08E-C73D0440621F";
name = Regular;
paths = (
{
closed = 1;
nodes = (
"394 242 LINE",
"393 236 LINE",
"76 63 LINE",
"115 -6 LINE",
"494 202 LINE",
"500 272 LINE",
"114 500 LINE",
"75 435 LINE"
);
}
);
width = 574;
}
);
unicode = 003E;
},
{
color = 3;
glyphname = question;
layers = (
{
layerId = "765B86F4-5B75-49D9-B08E-C73D0440621F";
name = Regular;
paths = (
{
closed = 1;
nodes = (
"186 462 LINE",
"217 610 LINE",
"97 617 LINE",
"96 607 OFFCURVE",
"102 532 OFFCURVE",
"114 462 CURVE"
);
},
{
closed = 1;
nodes = (
"329 348 OFFCURVE",
"496 359 OFFCURVE",
"496 502 CURVE SMOOTH",
"496 604 OFFCURVE",
"411 686 OFFCURVE",
"288 686 CURVE SMOOTH",
"219 686 OFFCURVE",
"153 661 OFFCURVE",
"97 617 CURVE",
"145 539 LINE",
"215 592 OFFCURVE",
"282 611 OFFCURVE",
"332 609 CURVE",
"364 589 OFFCURVE",
"384 556 OFFCURVE",
"384 515 CURVE SMOOTH",
"384 399 OFFCURVE",
"219 393 OFFCURVE",
"220 238 CURVE",
"322 238 LINE"
);
},
{
closed = 1;
nodes = (
"243 123 OFFCURVE",
"217 92 OFFCURVE",
"210 49 CURVE",
"227 13 OFFCURVE",
"256 -11 OFFCURVE",
"296 -20 CURVE",
"330 -4 OFFCURVE",
"354 24 OFFCURVE",
"365 62 CURVE",
"357 98 OFFCURVE",
"325 127 OFFCURVE",
"283 144 CURVE"
);
}
);
width = 602;
}
);
unicode = 003F;
},
{
color = 3;
glyphname = at;
layers = (
{
layerId = "765B86F4-5B75-49D9-B08E-C73D0440621F";
name = Regular;
paths = (
{
closed = 1;
nodes = (
"448 407 LINE",
"470 414 OFFCURVE",
"510 421 OFFCURVE",
"542 422 CURVE",
"574 406 OFFCURVE",
"590 379 OFFCURVE",
"590 317 CURVE SMOOTH",
"590 69 LINE",
"597 63 LINE",
"613 21 OFFCURVE",
"654 -16 OFFCURVE",
"701 -16 CURVE",
"881 8 OFFCURVE",
"974 152 OFFCURVE",
"974 305 CURVE SMOOTH",
"974 491 OFFCURVE",
"836 689 OFFCURVE",
"541 689 CURVE SMOOTH",
"254 689 OFFCURVE",
"84 501 OFFCURVE",
"84 292 CURVE SMOOTH",
"84 183 OFFCURVE",
"130 68 OFFCURVE",
"226 -31 CURVE",
"298 15 LINE",
"236 98 OFFCURVE",
"206 190 OFFCURVE",
"206 277 CURVE SMOOTH",
"206 455 OFFCURVE",
"332 606 OFFCURVE",
"546 606 CURVE SMOOTH",
"758 606 OFFCURVE",
"856 456 OFFCURVE",
"856 302 CURVE SMOOTH",
"856 215 OFFCURVE",
"825 125 OFFCURVE",
"767 84 CURVE SMOOTH",
"743 66 OFFCURVE",
"707 54 OFFCURVE",
"707 101 CURVE SMOOTH",
"707 320 LINE SMOOTH",
"707 386 OFFCURVE",
"705 407 OFFCURVE",
"695 423 CURVE SMOOTH",
"676 456 OFFCURVE",
"624 494 OFFCURVE",
"577 494 CURVE SMOOTH",
"530 494 OFFCURVE",
"409 461 OFFCURVE",
"341 428 CURVE",
"341 383 OFFCURVE",
"349 343 OFFCURVE",
"366 298 CURVE",
"434 301 LINE"
);
},
{
closed = 1;
nodes = (
"344 190 OFFCURVE",
"323 146 OFFCURVE",
"323 107 CURVE SMOOTH",
"323 46 OFFCURVE",
"376 -28 OFFCURVE",
"490 -14 CURVE",
"612 62 LINE",
"608 104 LINE",
"578 91 OFFCURVE",
"517 65 OFFCURVE",
"466 66 CURVE",
"450 77 OFFCURVE",
"443 94 OFFCURVE",
"443 111 CURVE SMOOTH",
"443 168 OFFCURVE",
"529 173 OFFCURVE",
"594 167 CURVE",
"614 167 LINE",
"609 224 LINE",
"397 218 LINE"
);
}
);
width = 1052;
}
);
unicode = 0040;
},
{
color = 3;
glyphname = A;
layers = (
{
anchors = (
{
name = ogonek;
position = "{651, 1}";
},
{
name = top;
position = "{341, 650}";
}
);
layerId = "765B86F4-5B75-49D9-B08E-C73D0440621F";
name = Regular;
paths = (
{
closed = 1;
nodes = (
"35 0 LINE",
"130 0 LINE",
"368 616 LINE",
"298 639 LINE"
);
},
{
closed = 1;
nodes = (
"281 647 LINE",
"532 0 LINE",
"663 0 LINE",
"386 678 LINE"
);
},
{
closed = 1;
nodes = (
"182 260 LINE",
"182 191 LINE",
"484 191 LINE",
"484 260 LINE"
);
},
{
closed = 1;
nodes = (
"45 61 OFFCURVE",
"10 48 OFFCURVE",
"-20 32 CURVE",
"-14 0 LINE",
"80 0 LINE",
"79 73 LINE"
);
},
{
closed = 1;
nodes = (
"111 0 LINE",
"251 0 LINE",
"252 49 LINE",
"114 67 LINE"
);
},
{
closed = 1;
nodes = (
"478 61 OFFCURVE",
"443 48 OFFCURVE",
"413 32 CURVE",
"419 0 LINE",
"555 0 LINE",
"512 73 LINE"
);
},
{
closed = 1;
nodes = (
"570 0 LINE",
"710 0 LINE",
"711 49 LINE",
"573 67 LINE"
);
}
);
width = 707;
}
);
leftKerningGroup = A;
rightKerningGroup = A;
unicode = 0041;
},
{
color = 3;
glyphname = B;
layers = (
{
layerId = "765B86F4-5B75-49D9-B08E-C73D0440621F";
name = Regular;
paths = (
{
closed = 1;
nodes = (
"246 662 OFFCURVE",
"130 658 OFFCURVE",
"43 654 CURVE",
"225 578 LINE",
"359 594 LINE",
"412 583 OFFCURVE",
"448 533 OFFCURVE",
"448 483 CURVE SMOOTH",
"448 427 OFFCURVE",
"403 372 OFFCURVE",
"284 372 CURVE SMOOTH",
"208 372 LINE",
"208 315 LINE",
"290 323 LINE",
"421 346 LINE",
"529 352 OFFCURVE",
"577 426 OFFCURVE",
"577 494 CURVE SMOOTH",
"577 579 OFFCURVE",
"504 662 OFFCURVE",
"330 662 CURVE"
);
},
{
closed = 1;
nodes = (
"93 61 OFFCURVE",
"58 48 OFFCURVE",
"28 32 CURVE",
"34 0 LINE",
"128 0 LINE",
"127 73 LINE"
);
},
{
closed = 1;
nodes = (
"113 653 LINE",
"113 0 LINE",
"235 0 LINE",
"235 653 LINE"
);
},
{
closed = 1;
nodes = (
"231 334 LINE",
"214 312 LINE",
"325 312 LINE SMOOTH",
"423 312 OFFCURVE",
"476 244 OFFCURVE",
"476 181 CURVE SMOOTH",
"476 119 OFFCURVE",
"427 60 OFFCURVE",
"325 69 CURVE SMOOTH",
"214 79 LINE",
"211 0 LINE",
"339 0 LINE SMOOTH",
"528 0 OFFCURVE",
"610 87 OFFCURVE",
"610 181 CURVE SMOOTH",
"610 277 OFFCURVE",
"524 363 OFFCURVE",
"363 350 CURVE"
);
},
{
closed = 1;
nodes = (
"43 654 LINE",
"42 604 LINE",
"147 594 LINE",
"146 654 LINE"
);
}
);
width = 644;
}
);
leftKerningGroup = I;
leftMetricsKey = I;
unicode = 0042;
},
{
color = 3;
glyphname = C;
layers = (
{
anchors = (
{
name = bottom;
position = "{321, 0}";
},
{
name = top;
position = "{321, 650}";
}
);
layerId = "765B86F4-5B75-49D9-B08E-C73D0440621F";
name = Regular;
paths = (
{
closed = 1;
nodes = (
"530 133 LINE",
"371 79 LINE",
"220 70 OFFCURVE",
"142 192 OFFCURVE",
"142 343 CURVE SMOOTH",
"142 435 OFFCURVE",
"170 542 OFFCURVE",
"250 593 CURVE",
"355 600 OFFCURVE",
"435 564 OFFCURVE",
"507 502 CURVE",
"535 612 LINE",
"498 639 OFFCURVE",
"432 674 OFFCURVE",
"336 674 CURVE SMOOTH",
"119 674 OFFCURVE",
"13 495 OFFCURVE",
"13 319 CURVE SMOOTH",
"13 149 OFFCURVE",
"111 -21 OFFCURVE",
"351 -16 CURVE",
"552 73 LINE"
);
},
{
closed = 1;
nodes = (
"515 444 LINE",
"533 501 OFFCURVE",
"538 576 OFFCURVE",
"534 612 CURVE",
"420 579 LINE",
"439 444 LINE"
);
}
);
width = 568;
}
);
leftKerningGroup = O;
leftMetricsKey = O;
rightKerningGroup = C;
unicode = 0043;
},
{
color = 3;
glyphname = D;
layers = (
{
anchors = (
{
name = bottom;
position = "{242, 0}";
},
{
name = center;
position = "{348, 325}";
},
{
name = top;
position = "{322, 650}";
}
);
layerId = "765B86F4-5B75-49D9-B08E-C73D0440621F";
name = Regular;
paths = (
{
closed = 1;
nodes = (
"249 662 OFFCURVE",
"147 659 OFFCURVE",
"43 654 CURVE",
"221 578 LINE",
"400 594 LINE",
"476 551 OFFCURVE",
"531 444 OFFCURVE",
"531 329 CURVE SMOOTH",
"531 202 OFFCURVE",
"465 75 OFFCURVE",
"320 75 CURVE SMOOTH",
"286 75 OFFCURVE",
"247 81 OFFCURVE",
"204 97 CURVE",
"210 0 LINE",
"324 0 LINE SMOOTH",
"560 0 OFFCURVE",
"664 165 OFFCURVE",
"664 332 CURVE SMOOTH",
"664 495 OFFCURVE",
"551 662 OFFCURVE",
"352 662 CURVE SMOOTH"
);
},
{
closed = 1;
nodes = (
"93 61 OFFCURVE",
"58 48 OFFCURVE",
"28 32 CURVE",
"34 0 LINE",
"128 0 LINE",
"127 73 LINE"
);
},
{
closed = 1;
nodes = (
"113 653 LINE",
"113 0 LINE",
"235 0 LINE",
"235 653 LINE"
);
},
{
closed = 1;
nodes = (
"43 654 LINE",
"42 604 LINE",
"147 594 LINE",
"146 654 LINE"
);
}
);
width = 681;
}
);
leftKerningGroup = I;
leftMetricsKey = I;
rightKerningGroup = O;
rightMetricsKey = O;
unicode = 0044;
},
{
color = 3;
glyphname = E;
layers = (
{
anchors = (
{
name = bottom;
position = "{301, 0}";
},
{
name = ogonek;
position = "{540, 1}";
},
{
name = top;
position = "{301, 650}";
}
);
layerId = "765B86F4-5B75-49D9-B08E-C73D0440621F";
name = Regular;
paths = (
{
closed = 1;
nodes = (
"113 654 LINE",
"113 0 LINE",
"235 0 LINE",
"235 654 LINE"
);
},
{
closed = 1;
nodes = (
"93 61 OFFCURVE",
"58 48 OFFCURVE",
"28 32 CURVE",
"34 0 LINE",
"128 0 LINE",
"127 73 LINE"
);
},
{
closed = 1;
nodes = (
"208 73 LINE",
"133 0 LINE",
"528 0 LINE",
"515 90 LINE"
);
},
{
closed = 1;
nodes = (
"218 358 LINE",
"218 293 LINE",
"458 283 LINE",
"458 377 LINE"
);
},
{
closed = 1;
nodes = (
"132 654 LINE",
"207 588 LINE",
"515 567 LINE",
"531 654 LINE"
);
},
{
closed = 1;
nodes = (
"42 654 LINE",
"41 604 LINE",
"146 594 LINE",
"145 654 LINE"
);
},
{
closed = 1;
nodes = (
"427 32 LINE",
"528 0 LINE",
"536 48 OFFCURVE",
"542 134 OFFCURVE",
"540 189 CURVE",
"472 194 LINE"
);
},
{
closed = 1;
nodes = (
"518 477 LINE",
"530 540 OFFCURVE",
"534 618 OFFCURVE",
"531 654 CURVE",
"427 618 LINE",
"449 477 LINE"
);
}
);
width = 590;
}
);
leftKerningGroup = I;
leftMetricsKey = I;
rightKerningGroup = E;
unicode = 0045;
},
{
color = 3;
glyphname = F;
layers = (
{
anchors = (
{
name = bottom;
position = "{232, 0}";
},
{
name = top;
position = "{232, 520}";
}
);
layerId = "765B86F4-5B75-49D9-B08E-C73D0440621F";
name = Regular;
paths = (
{
closed = 1;
nodes = (
"111 654 LINE",
"111 0 LINE",
"233 0 LINE",
"233 654 LINE"
);
},
{
closed = 1;
nodes = (
"93 61 OFFCURVE",
"58 48 OFFCURVE",
"28 32 CURVE",
"34 0 LINE",
"128 0 LINE",
"127 73 LINE"
);
},
{
closed = 1;
nodes = (
"211 0 LINE",
"351 0 LINE",
"352 49 LINE",
"214 67 LINE"
);
},
{
closed = 1;
nodes = (
"220 339 LINE",
"220 271 LINE",
"460 261 LINE",
"460 357 LINE"
);
},
{
closed = 1;
nodes = (
"134 654 LINE",
"209 588 LINE",
"508 567 LINE",
"529 654 LINE"
);
},
{
closed = 1;
nodes = (
"40 654 LINE",
"39 604 LINE",
"144 594 LINE",
"143 654 LINE"
);
},
{
closed = 1;
nodes = (
"516 475 LINE",
"528 538 OFFCURVE",
"532 618 OFFCURVE",
"529 654 CURVE",
"425 618 LINE",
"447 475 LINE"
);
}
);
width = 576;
}
);
leftKerningGroup = I;
leftMetricsKey = I;
rightMetricsKey = E;
unicode = 0046;
},
{
color = 3;
glyphname = G;
layers = (
{
anchors = (
{
name = bottom;
position = "{344, 0}";
},
{
name = top;
position = "{344, 650}";
}
);
layerId = "765B86F4-5B75-49D9-B08E-C73D0440621F";
name = Regular;
paths = (
{
closed = 1;
nodes = (
"131 674 OFFCURVE",
"13 496 OFFCURVE",
"13 314 CURVE SMOOTH",
"13 146 OFFCURVE",
"122 -34 OFFCURVE",
"377 -20 CURVE",
"581 70 LINE",
"536 105 LINE",
"494 86 OFFCURVE",
"420 65 OFFCURVE",
"356 66 CURVE SMOOTH",
"213 68 OFFCURVE",
"141 195 OFFCURVE",
"141 328 CURVE SMOOTH",
"141 435 OFFCURVE",
"176 543 OFFCURVE",
"257 593 CURVE",
"420 609 OFFCURVE",
"531 518 OFFCURVE",
"545 506 CURVE",
"574 613 LINE",
"541 637 OFFCURVE",
"469 674 OFFCURVE",
"368 674 CURVE SMOOTH"
);
},
{
closed = 1;
nodes = (
"359 268 LINE",
"399 247 OFFCURVE",
"448 231 OFFCURVE",
"485 219 CURVE",
"474 302 LINE",
"365 302 LINE"
);
},
{
closed = 1;
nodes = (
"464 61 LINE",
"580 70 LINE",
"580 302 LINE",
"464 302 LINE"
);
},
{
closed = 1;
nodes = (
"482 302 LINE",
"508 229 LINE",
"657 254 LINE",
"656 302 LINE"
);
},
{
closed = 1;
nodes = (
"555 456 LINE",
"571 515 OFFCURVE",
"577 577 OFFCURVE",
"573 613 CURVE",
"459 580 LINE",
"480 456 LINE"
);
}
);
width = 683;
}
);
leftKerningGroup = O;
leftMetricsKey = O;
rightKerningGroup = G;
unicode = 0047;
},
{
color = 3;
glyphname = H;
layers = (
{
anchors = (
{
name = center;
position = "{389, 325}";
},
{
name = top;
position = "{389, 650}";
}
);
layerId = "765B86F4-5B75-49D9-B08E-C73D0440621F";
name = Regular;
paths = (
{
closed = 1;
nodes = (
"174 587 LINE",
"177 654 LINE",
"37 654 LINE",
"36 605 LINE"
);
},
{
closed = 1;
nodes = (
"113 654 LINE",
"113 0 LINE",
"235 0 LINE",
"235 654 LINE"
);
},
{
closed = 1;
nodes = (
"220 654 LINE",
"221 581 LINE",
"255 593 OFFCURVE",
"291 606 OFFCURVE",
"320 622 CURVE",
"314 654 LINE"
);
},
{
closed = 1;
nodes = (
"456 654 LINE",
"455 605 LINE",
"593 587 LINE",
"596 654 LINE"
);
},
{
closed = 1;
nodes = (
"532 654 LINE",
"532 0 LINE",
"654 0 LINE",
"654 654 LINE"
);
},
{
closed = 1;
nodes = (
"639 654 LINE",
"640 581 LINE",
"674 593 OFFCURVE",
"710 606 OFFCURVE",
"739 622 CURVE",
"733 654 LINE"
);
},
{
closed = 1;
nodes = (
"208 364 LINE",
"208 286 LINE",
"582 286 LINE",
"582 364 LINE"
);
},
{
closed = 1;
nodes = (
"93 61 OFFCURVE",
"58 48 OFFCURVE",
"28 32 CURVE",
"34 0 LINE",
"128 0 LINE",
"127 73 LINE"
);
},
{
closed = 1;
nodes = (
"189 0 LINE",
"329 0 LINE",
"330 49 LINE",
"192 67 LINE"
);
},
{
closed = 1;
nodes = (
"512 61 OFFCURVE",
"477 48 OFFCURVE",
"447 32 CURVE",
"453 0 LINE",
"547 0 LINE",
"546 73 LINE"
);
},
{
closed = 1;
nodes = (
"608 0 LINE",
"748 0 LINE",
"749 49 LINE",
"611 67 LINE"
);
}
);
width = 777;
}
);
leftKerningGroup = I;
leftMetricsKey = I;
rightKerningGroup = I;
rightMetricsKey = I;
unicode = 0048;
},
{
color = 3;
glyphname = I;
layers = (
{
anchors = (
{
name = ogonek;
position = "{262, 1}";
},
{
name = top;
position = "{175, 650}";
}
);
layerId = "765B86F4-5B75-49D9-B08E-C73D0440621F";
name = Regular;
paths = (
{
closed = 1;
nodes = (
"235 0 LINE",
"235 654 LINE",
"113 654 LINE",
"113 0 LINE"
);
},
{
closed = 1;
nodes = (
"128 0 LINE",
"127 73 LINE",
"93 61 OFFCURVE",
"58 48 OFFCURVE",
"28 32 CURVE",
"34 0 LINE"
);
},
{
closed = 1;
nodes = (
"329 0 LINE",
"330 49 LINE",
"192 67 LINE",
"189 0 LINE"
);
},
{
closed = 1;
nodes = (
"37 654 LINE",
"36 605 LINE",
"174 587 LINE",
"177 654 LINE"
);
},
{
closed = 1;
nodes = (
"220 654 LINE",
"221 581 LINE",
"255 593 OFFCURVE",
"291 606 OFFCURVE",
"320 622 CURVE",
"314 654 LINE"
);
}
);
width = 358;
}
);
leftKerningGroup = I;
rightKerningGroup = I;
unicode = 0049;
},
{
color = 3;
glyphname = J;
layers = (
{
anchors = (
{
name = top;
position = "{193, 650}";
}
);
layerId = "765B86F4-5B75-49D9-B08E-C73D0440621F";
name = Regular;
paths = (
{
closed = 1;
nodes = (
"40 654 LINE",
"39 605 LINE",
"177 587 LINE",
"180 654 LINE"
);
},
{
closed = 1;
nodes = (
"133 654 LINE",
"133 134 LINE SMOOTH",
"133 -16 OFFCURVE",
"74 -78 OFFCURVE",
"-11 -131 CURVE",
"25 -184 LINE",
"148 -126 OFFCURVE",
"255 -47 OFFCURVE",
"255 105 CURVE SMOOTH",
"255 654 LINE"
);
},
{
closed = 1;
nodes = (
"239 654 LINE",
"240 581 LINE",
"274 593 OFFCURVE",
"310 606 OFFCURVE",
"339 622 CURVE",
"333 654 LINE"
);
}
);
width = 367;
}
);
unicode = 004A;
},
{
color = 3;
glyphname = K;
layers = (
{
anchors = (
{
name = bottom;
position = "{376, 0}";
},
{
name = top;
position = "{344, 650}";
}
);
layerId = "765B86F4-5B75-49D9-B08E-C73D0440621F";
name = Regular;
paths = (
{
closed = 1;
nodes = (
"523 654 LINE",
"194 301 LINE",
"209 212 LINE",
"591 619 LINE",
"593 654 LINE"
);
},
{
closed = 1;
nodes = (
"93 61 OFFCURVE",
"58 48 OFFCURVE",
"28 32 CURVE",
"34 0 LINE",
"128 0 LINE",
"127 73 LINE"
);
},
{
closed = 1;
nodes = (
"185 0 LINE",
"325 0 LINE",
"326 49 LINE",
"188 67 LINE"
);
},
{
closed = 1;
nodes = (
"113 654 LINE",
"113 0 LINE",
"235 0 LINE",
"235 654 LINE"
);
},
{
closed = 1;
nodes = (
"220 654 LINE",
"221 581 LINE",
"255 593 OFFCURVE",
"291 606 OFFCURVE",
"320 622 CURVE",
"314 654 LINE"
);
},
{
closed = 1;
nodes = (
"402 654 LINE",
"401 605 LINE",
"539 587 LINE",
"542 654 LINE"
);
},
{
closed = 1;
nodes = (
"535 654 LINE",
"536 581 LINE",
"570 593 OFFCURVE",
"612 606 OFFCURVE",
"641 622 CURVE",
"635 654 LINE"
);
},
{
closed = 1;
nodes = (
"36 654 LINE",
"35 605 LINE",
"173 587 LINE",
"176 654 LINE"
);
},
{
closed = 1;
nodes = (
"278 312 LINE",
"504 0 LINE",
"657 0 LINE",
"363 393 LINE"
);
},
{
closed = 1;
nodes = (
"570 0 LINE",
"673 0 LINE",
"674 50 LINE",
"569 62 LINE"
);
}
);
width = 685;
}
);
leftKerningGroup = I;
leftMetricsKey = I;
rightKerningGroup = K;
unicode = 004B;
},
{
color = 3;
glyphname = L;
layers = (
{
anchors = (
{
name = bottom;
position = "{287, 0}";
},
{
name = top;
position = "{178, 650}";
},
{
name = topright;
position = "{477, 650}";
}
);
layerId = "765B86F4-5B75-49D9-B08E-C73D0440621F";
name = Regular;
paths = (
{
closed = 1;
nodes = (
"37 654 LINE",
"36 605 LINE",
"174 587 LINE",
"177 654 LINE"
);
},
{
closed = 1;
nodes = (
"220 654 LINE",
"221 581 LINE",
"255 593 OFFCURVE",
"291 606 OFFCURVE",
"320 622 CURVE",
"314 654 LINE"
);
},
{
closed = 1;
nodes = (
"93 61 OFFCURVE",
"58 48 OFFCURVE",
"28 32 CURVE",
"34 0 LINE",
"128 0 LINE",
"127 73 LINE"
);
},
{
closed = 1;
nodes = (
"210 74 LINE",
"135 0 LINE",
"548 0 LINE",
"531 93 LINE"
);
},
{
closed = 1;
nodes = (
"113 654 LINE",
"113 0 LINE",
"235 0 LINE",
"235 654 LINE"
);
},
{
closed = 1;
nodes = (
"442 32 LINE",
"548 0 LINE",
"558 54 OFFCURVE",
"562 150 OFFCURVE",
"561 215 CURVE",
"489 220 LINE"
);
}
);
width = 572;
}
);
leftKerningGroup = I;
leftMetricsKey = I;
rightKerningGroup = L;
unicode = 004C;
},
{
color = 3;
glyphname = M;
layers = (
{
layerId = "765B86F4-5B75-49D9-B08E-C73D0440621F";
name = Regular;
paths = (
{
closed = 1;
nodes = (
"53 650 LINE",
"52 603 LINE",
"190 581 LINE",
"193 650 LINE"
);
},
{
closed = 1;
nodes = (
"135 650 LINE",
"114 0 LINE",
"209 0 LINE",
"217 381 LINE",
"196 581 LINE",
"286 650 LINE"
);
},
{
closed = 1;
nodes = (
"93 61 OFFCURVE",
"58 48 OFFCURVE",
"28 32 CURVE",
"34 0 LINE",
"128 0 LINE",
"127 73 LINE"
);
},
{
closed = 1;
nodes = (
"154 0 LINE",
"294 0 LINE",
"295 47 LINE SMOOTH",
"157 69 LINE"
);
},
{
closed = 1;
nodes = (
"178 605 LINE",
"399 -7 LINE",
"500 16 LINE",
"487 89 LINE",
"286 650 LINE"
);
},
{
closed = 1;
nodes = (
"436 36 LINE",
"499 16 LINE",
"718 613 LINE",
"658 650 LINE"
);
},
{
closed = 1;
nodes = (
"658 650 LINE",
"698 588 LINE",
"681 381 LINE",
"686 0 LINE",
"804 0 LINE",
"793 650 LINE"
);
},
{
closed = 1;
nodes = (
"772 650 LINE",
"773 577 LINE",
"807 589 OFFCURVE",
"843 602 OFFCURVE",
"872 618 CURVE",
"866 650 LINE"
);
},
{
closed = 1;
nodes = (
"664 61 OFFCURVE",
"629 48 OFFCURVE",
"599 32 CURVE",
"605 0 LINE",
"699 0 LINE",
"698 73 LINE"
);
},
{
closed = 1;
nodes = (
"758 0 LINE",
"898 0 LINE",
"899 47 LINE",
"761 69 LINE"
);
}
);
width = 928;
}
);
leftKerningGroup = I;
leftMetricsKey = I;
rightKerningGroup = I;
rightMetricsKey = I;
unicode = 004D;
},
{
color = 3;
glyphname = N;
layers = (
{
anchors = (
{
name = bottom;
position = "{386, 0}";
},
{
name = top;
position = "{360, 650}";
}
);
layerId = "765B86F4-5B75-49D9-B08E-C73D0440621F";
name = Regular;
paths = (
{
closed = 1;
nodes = (
"152 0 LINE",
"292 0 LINE",
"293 49 LINE",
"155 67 LINE"
);
},
{
closed = 1;
nodes = (
"93 61 OFFCURVE",
"58 48 OFFCURVE",
"28 32 CURVE",
"34 0 LINE",
"128 0 LINE",
"127 73 LINE"
);
},
{
closed = 1;
nodes = (
"113 654 LINE",
"113 0 LINE",
"205 0 LINE",
"205 384 LINE",
"180 584 LINE",
"247 654 LINE"
);
},
{
closed = 1;
nodes = (
"46 654 LINE",
"45 605 LINE",
"179 587 LINE",
"182 654 LINE"
);
},
{
closed = 1;
nodes = (
"152 654 LINE",
"149 576 LINE",
"525 -12 LINE",
"607 21 LINE",
"609 80 LINE",
"247 654 LINE"
);
},
{
closed = 1;
nodes = (
"459 654 LINE",
"458 605 LINE",
"596 587 LINE",
"599 654 LINE"
);
},
{
closed = 1;
nodes = (
"556 654 LINE",
"556 267 LINE",
"583 48 LINE",
"524 -12 LINE",
"646 0 LINE",
"648 654 LINE"
);
},
{
closed = 1;
nodes = (
"631 654 LINE",
"632 581 LINE",
"666 593 OFFCURVE",
"702 606 OFFCURVE",
"731 622 CURVE",
"725 654 LINE"
);
}
);
width = 759;
}
);
leftKerningGroup = I;
leftMetricsKey = I;
rightKerningGroup = I;
rightMetricsKey = I;
unicode = 004E;
},
{
color = 3;
glyphname = O;
layers = (
{
anchors = (
{
name = top;
position = "{331, 650}";
}
);
layerId = "765B86F4-5B75-49D9-B08E-C73D0440621F";
name = Regular;
paths = (
{
closed = 1;
nodes = (
"152 674 OFFCURVE",
"17 535 OFFCURVE",
"17 323 CURVE SMOOTH",
"17 94 OFFCURVE",
"174 -20 OFFCURVE",
"335 -20 CURVE SMOOTH",
"493 -20 OFFCURVE",
"647 89 OFFCURVE",
"647 319 CURVE SMOOTH",
"647 547 OFFCURVE",
"497 674 OFFCURVE",
"328 674 CURVE SMOOTH"
);
},
{
closed = 1;
nodes = (
"260 591 OFFCURVE",
"289 596 OFFCURVE",
"315 596 CURVE SMOOTH",
"452 596 OFFCURVE",
"514 457 OFFCURVE",
"514 314 CURVE SMOOTH",
"514 203 OFFCURVE",
"476 109 OFFCURVE",
"420 69 CURVE",
"397 63 OFFCURVE",
"375 60 OFFCURVE",
"353 60 CURVE SMOOTH",
"211 60 OFFCURVE",
"148 191 OFFCURVE",
"148 339 CURVE SMOOTH",
"148 445 OFFCURVE",
"181 541 OFFCURVE",
"230 580 CURVE"
);
}
);
width = 664;
}
);
leftKerningGroup = O;
rightKerningGroup = O;
unicode = 004F;
},
{
color = 3;
glyphname = P;
layers = (
{
layerId = "765B86F4-5B75-49D9-B08E-C73D0440621F";
name = Regular;
paths = (
{
closed = 1;
nodes = (
"40 654 LINE",
"220 578 LINE",
"390 594 LINE",
"436 570 OFFCURVE",
"460 511 OFFCURVE",
"460 453 CURVE SMOOTH",
"460 380 OFFCURVE",
"421 311 OFFCURVE",
"324 311 CURVE SMOOTH",
"301 311 OFFCURVE",
"246 315 OFFCURVE",
"205 325 CURVE",
"202 241 LINE",
"350 241 LINE SMOOTH",
"504 242 OFFCURVE",
"589 342 OFFCURVE",
"589 450 CURVE SMOOTH",
"589 556 OFFCURVE",
"506 663 OFFCURVE",
"341 662 CURVE SMOOTH"
);
},
{
closed = 1;
nodes = (
"93 61 OFFCURVE",
"58 48 OFFCURVE",
"28 32 CURVE",
"34 0 LINE",
"128 0 LINE",
"127 73 LINE"
);
},
{
closed = 1;
nodes = (
"211 0 LINE",
"351 0 LINE",
"352 49 LINE",
"214 67 LINE"
);
},
{
closed = 1;
nodes = (
"111 654 LINE",
"111 0 LINE",
"233 0 LINE",
"233 654 LINE"
);
},
{
closed = 1;
nodes = (
"40 654 LINE",
"39 604 LINE",
"144 594 LINE",
"143 654 LINE"
);
}
);
width = 606;
}
);
leftKerningGroup = I;
leftMetricsKey = I;
unicode = 0050;
},
{
color = 3;
glyphname = Q;
layers = (
{
components = (
{
name = O;
}
);
layerId = "765B86F4-5B75-49D9-B08E-C73D0440621F";
name = Regular;
paths = (
{
closed = 1;
nodes = (
"360 -3 LINE",
"694 -172 LINE",
"747 -56 LINE",
"395 38 LINE"
);
}
);
width = 702;
}
);
leftKerningGroup = O;
leftMetricsKey = O;
rightKerningGroup = O;
unicode = 0051;
},
{
color = 3;
glyphname = R;
layers = (
{
anchors = (
{
name = bottom;
position = "{319, 0}";
},
{
name = top;
position = "{299, 650}";
}
);
layerId = "765B86F4-5B75-49D9-B08E-C73D0440621F";
name = Regular;
paths = (
{
closed = 1;
nodes = (
"42 654 LINE",
"224 578 LINE",
"392 594 LINE",
"440 567 OFFCURVE",
"461 517 OFFCURVE",
"461 463 CURVE SMOOTH",
"461 397 OFFCURVE",
"431 324 OFFCURVE",
"311 324 CURVE SMOOTH",
"282 324 OFFCURVE",
"243 329 OFFCURVE",
"203 340 CURVE",
"204 256 LINE",
"354 257 LINE SMOOTH",
"506 259 OFFCURVE",
"591 363 OFFCURVE",
"591 464 CURVE SMOOTH",
"591 566 OFFCURVE",
"504 662 OFFCURVE",
"341 662 CURVE"
);
},
{
closed = 1;
nodes = (
"93 61 OFFCURVE",
"58 48 OFFCURVE",
"28 32 CURVE",
"34 0 LINE",
"128 0 LINE",
"127 73 LINE"
);
},
{
closed = 1;
nodes = (
"193 0 LINE",
"333 0 LINE",
"334 49 LINE",
"196 67 LINE"
);
},
{
closed = 1;
nodes = (
"113 654 LINE",
"113 0 LINE",
"235 0 LINE",
"235 654 LINE"
);
},
{
closed = 1;
nodes = (
"42 654 LINE",
"41 604 LINE",
"146 594 LINE",
"145 654 LINE"
);
},
{
closed = 1;
nodes = (
"315 296 LINE",
"476 0 LINE",
"622 0 LINE",
"434 305 LINE"
);
},
{
closed = 1;
nodes = (
"512 0 LINE",
"652 0 LINE",
"653 49 LINE",
"515 65 LINE"
);
}
);
width = 665;
}
);
leftKerningGroup = I;
leftMetricsKey = I;
rightKerningGroup = R;
unicode = 0052;
},
{
color = 3;
glyphname = S;
layers = (
{
anchors = (
{
name = bottom;
position = "{271, 0}";
},
{
name = top;
position = "{283, 650}";
}
);
layerId = "765B86F4-5B75-49D9-B08E-C73D0440621F";
name = Regular;
paths = (
{
closed = 1;
nodes = (
"170 674 OFFCURVE",
"57 605 OFFCURVE",
"57 485 CURVE SMOOTH",
"57 374 OFFCURVE",
"154 325 OFFCURVE",
"241 284 CURVE SMOOTH",
"328 243 OFFCURVE",
"390 214 OFFCURVE",
"390 148 CURVE SMOOTH",
"390 113 OFFCURVE",
"373 75 OFFCURVE",
"334 55 CURVE",
"256 50 OFFCURVE",
"152 70 OFFCURVE",
"84 160 CURVE",
"54 47 LINE",
"107 3 OFFCURVE",
"210 -20 OFFCURVE",
"279 -20 CURVE SMOOTH",
"402 -20 OFFCURVE",
"513 51 OFFCURVE",
"513 177 CURVE SMOOTH",
"513 293 OFFCURVE",
"420 341 OFFCURVE",
"327 384 CURVE SMOOTH",
"242 424 OFFCURVE",
"175 452 OFFCURVE",
"175 514 CURVE SMOOTH",
"175 545 OFFCURVE",
"190 581 OFFCURVE",
"222 600 CURVE",
"295 607 OFFCURVE",
"374 590 OFFCURVE",
"431 530 CURVE",
"483 641 LINE",
"438 656 OFFCURVE",
"369 674 OFFCURVE",
"302 674 CURVE SMOOTH"
);
},
{
closed = 1;
nodes = (
"470 464 LINE",
"482 525 OFFCURVE",
"485 600 OFFCURVE",
"483 641 CURVE",
"373 625 LINE",
"403 464 LINE"
);
},
{
closed = 1;
nodes = (
"55 165 OFFCURVE",
"51 83 OFFCURVE",
"55 47 CURVE",
"173 44 LINE",
"130 224 LINE",
"67 224 LINE"
);
}
);
width = 555;
}
);
leftKerningGroup = S;
rightKerningGroup = S;
unicode = 0053;
},
{
color = 3;
glyphname = T;
layers = (
{
anchors = (
{
name = bottom;
position = "{311, 0}";
},
{
name = center;
position = "{311, 325}";
},
{
name = top;
position = "{311, 650}";
}
);
layerId = "765B86F4-5B75-49D9-B08E-C73D0440621F";
name = Regular;
paths = (
{
closed = 1;
nodes = (
"249 654 LINE",
"249 0 LINE",
"371 0 LINE",
"371 654 LINE"
);
},
{
closed = 1;
nodes = (
"221 61 OFFCURVE",
"174 48 OFFCURVE",
"144 32 CURVE",
"150 0 LINE",
"256 0 LINE",
"255 73 LINE"
);
},
{
closed = 1;
nodes = (
"339 0 LINE",
"479 0 LINE",
"480 49 LINE",
"342 67 LINE"
);
},
{
closed = 1;
nodes = (
"401 654 OFFCURVE",
"223 654 OFFCURVE",
"10 660 CURVE",
"27 578 LINE",
"311 595 LINE",
"595 578 LINE",
"611 660 LINE"
);
},
{
closed = 1;
nodes = (
"598 470 LINE",
"609 533 OFFCURVE",
"614 624 OFFCURVE",
"611 660 CURVE",
"512 623 LINE",
"530 470 LINE SMOOTH"
);
},
{
closed = 1;
nodes = (
"108 623 LINE",
"10 660 LINE",
"6 624 OFFCURVE",
"11 533 OFFCURVE",
"23 470 CURVE",
"90 470 LINE"
);
}
);
width = 621;
}
);
leftKerningGroup = T;
rightKerningGroup = T;
unicode = 0054;
},
{
color = 3;
glyphname = U;
layers = (
{
anchors = (
{
name = ogonek;
position = "{481, 1}";
},
{
name = top;
position = "{363, 650}";
}
);
layerId = "765B86F4-5B75-49D9-B08E-C73D0440621F";
name = Regular;
paths = (
{
closed = 1;
nodes = (
"533 654 LINE",
"533 279 LINE SMOOTH",
"533 183 OFFCURVE",
"513 118 OFFCURVE",
"474 86 CURVE",
"448 73 OFFCURVE",
"420 65 OFFCURVE",
"383 65 CURVE SMOOTH",
"275 65 OFFCURVE",
"208 135 OFFCURVE",
"208 269 CURVE SMOOTH",
"208 654 LINE",
"86 654 LINE",
"86 289 LINE SMOOTH",
"86 86 OFFCURVE",
"206 -19 OFFCURVE",
"374 -19 CURVE SMOOTH",
"526 -19 OFFCURVE",
"624 68 OFFCURVE",
"624 292 CURVE SMOOTH",
"624 654 LINE"
);
},
{
closed = 1;
nodes = (
"10 654 LINE",
"9 605 LINE",
"147 587 LINE",
"150 654 LINE"
);
},
{
closed = 1;
nodes = (
"193 654 LINE",
"194 581 LINE",
"228 593 OFFCURVE",
"264 606 OFFCURVE",
"293 622 CURVE",
"287 654 LINE"
);
},
{
closed = 1;
nodes = (
"447 654 LINE",
"446 605 LINE",
"584 587 LINE",
"587 654 LINE"
);
},
{
closed = 1;
nodes = (
"609 654 LINE",
"610 581 LINE",
"644 593 OFFCURVE",
"680 606 OFFCURVE",
"709 622 CURVE",
"703 654 LINE"
);
}
);
width = 718;
}
);
leftKerningGroup = U;
rightKerningGroup = U;
unicode = 0055;
},
{
color = 3;
glyphname = V;
layers = (
{
layerId = "765B86F4-5B75-49D9-B08E-C73D0440621F";
name = Regular;
paths = (
{
closed = 1;
nodes = (
"55 654 LINE",
"286 -12 LINE",
"328 -12 OFFCURVE",
"372 -8 OFFCURVE",
"408 -1 CURVE",
"369 80 LINE",
"347 80 LINE",
"334 205 LINE",
"184 654 LINE"
);
},
{
closed = 1;
nodes = (
"0 654 LINE",
"-1 605 LINE",
"137 587 LINE",
"140 654 LINE"
);
},
{
closed = 1;
nodes = (
"407 -1 LINE",
"641 654 LINE",
"549 654 LINE",
"337 34 LINE"
);
},
{
closed = 1;
nodes = (
"178 654 LINE",
"195 581 LINE",
"229 593 OFFCURVE",
"265 606 OFFCURVE",
"294 622 CURVE",
"288 654 LINE"
);
},
{
closed = 1;
nodes = (
"439 654 LINE",
"438 605 LINE",
"576 587 LINE",
"579 654 LINE"
);
},
{
closed = 1;
nodes = (
"579 654 LINE",
"596 581 LINE",
"630 593 OFFCURVE",
"666 606 OFFCURVE",
"695 622 CURVE",
"689 654 LINE"
);
}
);
width = 695;
}
);
leftKerningGroup = V;
rightKerningGroup = V;
unicode = 0056;
},
{
color = 3;
glyphname = W;
layers = (
{
anchors = (
{
name = top;
position = "{465, 650}";
}
);
layerId = "765B86F4-5B75-49D9-B08E-C73D0440621F";
name = Regular;
paths = (
{
closed = 1;
nodes = (
"2 654 LINE",
"1 605 LINE",
"139 587 LINE",
"142 654 LINE"
);
},
{
closed = 1;
nodes = (
"172 654 LINE",
"189 581 LINE",
"223 593 OFFCURVE",
"259 606 OFFCURVE",
"288 622 CURVE",
"282 654 LINE"
);
},
{
closed = 1;
nodes = (
"56 654 LINE",
"253 -12 LINE",
"298 -13 OFFCURVE",
"338 -9 OFFCURVE",
"377 -2 CURVE",
"345 80 LINE",
"317 80 LINE",
"307 205 LINE",
"184 654 LINE"
);
},
{
closed = 1;
nodes = (
"308 34 LINE",
"378 -2 LINE",
"453 241 LINE",
"474 358 LINE",
"491 358 LINE",
"524 453 LINE",
"443 496 LINE"
);
},
{
closed = 1;
nodes = (
"398 616 LINE",
"582 -12 LINE",
"627 -13 OFFCURVE",
"669 -9 OFFCURVE",
"708 -2 CURVE",
"677 80 LINE",
"644 80 LINE",
"632 209 LINE",
"518 645 LINE"
);
},
{
closed = 1;
nodes = (
"708 -2 LINE",
"894 654 LINE",
"803 654 LINE",
"634 34 LINE"
);
},
{
closed = 1;
nodes = (
"688 654 LINE",
"687 605 LINE",
"825 587 LINE",
"828 654 LINE"
);
},
{
closed = 1;
nodes = (
"836 654 LINE",
"853 581 LINE",
"887 593 OFFCURVE",
"923 606 OFFCURVE",
"952 622 CURVE",
"946 654 LINE"
);
}
);
width = 952;
}
);
leftKerningGroup = V;
leftMetricsKey = V;
rightKerningGroup = V;
rightMetricsKey = V;
unicode = 0057;
},
{
color = 3;
glyphname = X;
layers = (
{
layerId = "765B86F4-5B75-49D9-B08E-C73D0440621F";
name = Regular;
paths = (
{
closed = 1;
nodes = (
"178 587 LINE",
"181 654 LINE",
"41 654 LINE",
"40 605 LINE"
);
},
{
closed = 1;
nodes = (
"185 654 LINE",
"202 581 LINE",
"236 593 OFFCURVE",
"272 606 OFFCURVE",
"301 622 CURVE",
"295 654 LINE"
);
},
{
closed = 1;
nodes = (
"407 654 LINE",
"406 605 LINE",
"544 587 LINE",
"547 654 LINE"
);
},
{
closed = 1;
nodes = (
"532 654 LINE",
"549 581 LINE",
"583 593 OFFCURVE",
"619 606 OFFCURVE",
"648 622 CURVE",
"642 654 LINE"
);
},
{
closed = 1;
nodes = (
"71 61 OFFCURVE",
"36 48 OFFCURVE",
"6 32 CURVE",
"12 0 LINE",
"122 0 LINE",
"105 73 LINE"
);
},
{
closed = 1;
nodes = (
"131 0 LINE",
"271 0 LINE",
"272 49 LINE",
"134 67 LINE"
);
},
{
closed = 1;
nodes = (
"464 61 OFFCURVE",
"429 48 OFFCURVE",
"399 32 CURVE",
"405 0 LINE",
"515 0 LINE",
"498 73 LINE"
);
},
{
closed = 1;
nodes = (
"541 0 LINE",
"681 0 LINE",
"682 49 LINE",
"528 67 LINE"
);
},
{
closed = 1;
nodes = (
"69 654 LINE",
"506 0 LINE",
"650 0 LINE",
"207 654 LINE"
);
},
{
closed = 1;
nodes = (
"516 654 LINE",
"345 372 LINE",
"406 337 LINE",
"613 654 LINE"
);
},
{
closed = 1;
nodes = (
"42 0 LINE",
"148 0 LINE",
"367 336 LINE",
"302 376 LINE"
);
}
);
width = 684;
}
);
unicode = 0058;
},
{
color = 3;
glyphname = Y;
layers = (
{
anchors = (
{
name = top;
position = "{321, 650}";
}
);
layerId = "765B86F4-5B75-49D9-B08E-C73D0440621F";
name = Regular;
paths = (
{
closed = 1;
nodes = (
"31 654 LINE",
"260 228 LINE",
"353 292 LINE",
"338 322 LINE",
"320 321 LINE",
"293 404 LINE",
"160 654 LINE"
);
},
{
closed = 1;
nodes = (
"0 654 LINE",
"-1 605 LINE",
"137 587 LINE",
"140 654 LINE"
);
},
{
closed = 1;
nodes = (
"137 654 LINE",
"154 581 LINE",
"188 593 OFFCURVE",
"224 606 OFFCURVE",
"253 622 CURVE",
"247 654 LINE"
);
},
{
closed = 1;
nodes = (
"491 654 LINE",
"302 275 LINE",
"361 242 LINE",
"584 654 LINE"
);
},
{
closed = 1;
nodes = (
"386 654 LINE",
"385 605 LINE",
"523 587 LINE",
"526 654 LINE"
);
},
{
closed = 1;
nodes = (
"508 654 LINE",
"525 581 LINE",
"559 593 OFFCURVE",
"595 606 OFFCURVE",
"624 622 CURVE",
"618 654 LINE"
);
},
{
closed = 1;
nodes = (
"248 0 LINE",
"368 0 LINE",
"368 291 LINE",
"248 291 LINE"
);
},
{
closed = 1;
nodes = (
"234 61 OFFCURVE",
"199 48 OFFCURVE",
"169 32 CURVE",
"175 0 LINE",
"269 0 LINE",
"268 73 LINE"
);
},
{
closed = 1;
nodes = (
"310 0 LINE",
"450 0 LINE",
"451 49 LINE",
"313 67 LINE"
);
}
);
width = 622;
}
);
leftKerningGroup = Y;
leftMetricsKey = V;
rightKerningGroup = Y;
rightMetricsKey = V;
unicode = 0059;
},
{
color = 3;
glyphname = Z;
layers = (
{
layerId = "765B86F4-5B75-49D9-B08E-C73D0440621F";
name = Regular;
paths = (
{
closed = 1;
nodes = (
"85 569 LINE",
"493 590 LINE",
"532 654 LINE",
"63 654 LINE"
);
},
{
closed = 1;
nodes = (
"480 611 LINE",
"422 599 LINE",
"34 56 LINE",
"64 0 LINE",
"113 33 LINE",
"164 47 LINE",
"560 598 LINE",
"533 654 LINE"
);
},
{
closed = 1;
nodes = (
"122 80 LINE",
"64 0 LINE",
"541 0 LINE",
"533 87 LINE"
);
},
{
closed = 1;
nodes = (
"169 604 LINE",
"63 654 LINE",
"59 610 OFFCURVE",
"61 520 OFFCURVE",
"72 455 CURVE",
"141 455 LINE"
);
},
{
closed = 1;
nodes = (
"436 31 LINE",
"541 0 LINE",
"554 70 OFFCURVE",
"563 131 OFFCURVE",
"567 198 CURVE",
"493 208 LINE"
);
}
);
width = 603;
}
);
leftKerningGroup = Z;
rightKerningGroup = Z;
unicode = 005A;
},
{
color = 3;
glyphname = bracketleft;
layers = (
{
layerId = "765B86F4-5B75-49D9-B08E-C73D0440621F";
name = Regular;
paths = (
{
closed = 1;
nodes = (
"95 712 LINE",
"95 -122 LINE",
"331 -122 LINE",
"337 -64 LINE",
"207 -38 LINE",
"207 628 LINE",
"337 654 LINE",
"331 712 LINE"
);
}
);
width = 370;
}
);
unicode = 005B;
},
{
color = 3;
glyphname = backslash;
layers = (
{
layerId = "765B86F4-5B75-49D9-B08E-C73D0440621F";
name = Regular;
paths = (
{
closed = 1;
nodes = (
"388 -94 LINE",
"80 715 LINE",
"-7 681 LINE",
"300 -126 LINE"
);
}
);
width = 395;
}
);
unicode = 005C;
},
{
color = 3;
glyphname = bracketright;
layers = (
{
layerId = "765B86F4-5B75-49D9-B08E-C73D0440621F";
name = Regular;
paths = (
{
closed = 1;
nodes = (
"33 654 LINE",
"163 628 LINE",
"163 -38 LINE",
"33 -64 LINE",
"39 -122 LINE",
"275 -122 LINE",
"275 712 LINE",
"39 712 LINE"
);
}
);
width = 373;
}
);
unicode = 005D;
},
{
color = 3;
glyphname = asciicircum;
layers = (
{
layerId = "765B86F4-5B75-49D9-B08E-C73D0440621F";
name = Regular;
paths = (
{
closed = 1;
nodes = (
"32 363 LINE",
"93 324 LINE",
"260 576 LINE",
"267 576 LINE",
"443 328 LINE",
"501 369 LINE",
"298 649 LINE",
"225 649 LINE"
);
}
);
width = 525;
}
);
unicode = 005E;
},
{
color = 3;
glyphname = underscore;
layers = (
{
layerId = "765B86F4-5B75-49D9-B08E-C73D0440621F";
name = Regular;
paths = (
{
closed = 1;
nodes = (
"10 -135 LINE",
"10 -208 LINE",
"522 -208 LINE",
"522 -135 LINE"
);
}
);
width = 532;
}
);
unicode = 005F;
},
{
color = 3;
glyphname = a;
layers = (
{
anchors = (
{
name = top;
position = "{252, 468}";
}
);
layerId = "765B86F4-5B75-49D9-B08E-C73D0440621F";
name = Regular;
paths = (
{
closed = 1;
nodes = (
"64 190 OFFCURVE",
"43 146 OFFCURVE",
"43 107 CURVE SMOOTH",
"43 46 OFFCURVE",
"96 -28 OFFCURVE",
"210 -14 CURVE",
"332 62 LINE",
"328 104 LINE",
"298 91 OFFCURVE",
"237 66 OFFCURVE",
"186 66 CURVE",
"170 77 OFFCURVE",
"163 94 OFFCURVE",
"163 111 CURVE SMOOTH",
"163 168 OFFCURVE",
"249 173 OFFCURVE",
"314 168 CURVE",
"334 167 LINE",
"337 224 LINE",
"117 218 LINE"
);
},
{
closed = 1;
nodes = (
"61 385 OFFCURVE",
"69 336 OFFCURVE",
"87 299 CURVE",
"155 302 LINE",
"168 408 LINE",
"191 416 OFFCURVE",
"230 423 OFFCURVE",
"262 424 CURVE",
"294 407 OFFCURVE",
"310 381 OFFCURVE",
"310 319 CURVE SMOOTH",
"310 80 LINE",
"315 69 LINE",
"328 25 OFFCURVE",
"374 -14 OFFCURVE",
"402 -16 CURVE",
"513 40 LINE",
"501 84 LINE",
"485 81 OFFCURVE",
"468 77 OFFCURVE",
"453 77 CURVE SMOOTH",
"438 77 OFFCURVE",
"428 83 OFFCURVE",
"428 98 CURVE",
"428 322 LINE",
"428 388 OFFCURVE",
"425 408 OFFCURVE",
"416 425 CURVE SMOOTH",
"394 460 OFFCURVE",
"344 496 OFFCURVE",
"297 496 CURVE SMOOTH",
"252 496 OFFCURVE",
"129 463 OFFCURVE",
"62 429 CURVE"
);
}
);
width = 526;
}
);
leftKerningGroup = a;
rightKerningGroup = a;
unicode = 0061;
},
{
color = 3;
glyphname = b;
layers = (
{
layerId = "765B86F4-5B75-49D9-B08E-C73D0440621F";
name = Regular;
paths = (
{
closed = 1;
nodes = (
"136 736 LINE",
"63 693 LINE",
"63 23 LINE",
"180 45 LINE",
"180 695 LINE"
);
},
{
closed = 1;
nodes = (
"142 333 LINE",
"189 365 OFFCURVE",
"235 393 OFFCURVE",
"278 393 CURVE SMOOTH",
"348 393 OFFCURVE",
"393 316 OFFCURVE",
"393 231 CURVE SMOOTH",
"393 163 OFFCURVE",
"365 92 OFFCURVE",
"316 59 CURVE",
"223 45 OFFCURVE",
"158 87 OFFCURVE",
"136 121 CURVE",
"62 23 LINE",
"126 -4 OFFCURVE",
"189 -19 OFFCURVE",
"246 -19 CURVE SMOOTH",
"412 -19 OFFCURVE",
"515 103 OFFCURVE",
"515 254 CURVE SMOOTH",
"515 392 OFFCURVE",
"428 511 OFFCURVE",
"293 484 CURVE",
"133 377 LINE"
);
},
{
closed = 1;
nodes = (
"-12 655 LINE",
"90 652 LINE",
"144 695 LINE",
"136 736 LINE",
"84 734 OFFCURVE",
"25 722 OFFCURVE",
"-21 703 CURVE"
);
}
);
width = 538;
}
);
leftKerningGroup = b;
rightKerningGroup = o;
rightMetricsKey = o;
unicode = 0062;
},
{
color = 3;
glyphname = c;
layers = (
{
anchors = (
{
name = bottom;
position = "{241, 0}";
},
{
name = top;
position = "{245, 468}";
}
);
layerId = "765B86F4-5B75-49D9-B08E-C73D0440621F";
name = Regular;
paths = (
{
closed = 1;
nodes = (
"394 97 LINE",
"357 80 OFFCURVE",
"319 71 OFFCURVE",
"288 71 CURVE SMOOTH",
"189 71 OFFCURVE",
"135 151 OFFCURVE",
"135 258 CURVE SMOOTH",
"135 317 OFFCURVE",
"152 374 OFFCURVE",
"192 420 CURVE",
"245 410 OFFCURVE",
"297 377 OFFCURVE",
"340 332 CURVE",
"421 405 LINE",
"383 463 OFFCURVE",
"324 492 OFFCURVE",
"253 492 CURVE SMOOTH",
"119 492 OFFCURVE",
"17 388 OFFCURVE",
"17 236 CURVE SMOOTH",
"17 87 OFFCURVE",
"118 -24 OFFCURVE",
"274 -14 CURVE",
"413 50 LINE"
);
}
);
width = 431;
}
);
leftKerningGroup = o;
leftMetricsKey = o;
rightKerningGroup = c;
unicode = 0063;
},
{
color = 3;
glyphname = d;
layers = (
{
anchors = (
{
name = center;
position = "{215, 187}";
},
{
name = topright;
position = "{416, 520}";
}
);
layerId = "765B86F4-5B75-49D9-B08E-C73D0440621F";
name = Regular;
paths = (
{
closed = 1;
nodes = (
"538 84 LINE",
"522 81 OFFCURVE",
"505 77 OFFCURVE",
"491 77 CURVE SMOOTH",
"476 77 OFFCURVE",
"465 83 OFFCURVE",
"465 98 CURVE SMOOTH",
"465 695 LINE",
"420 736 LINE",
"348 693 LINE",
"348 80 LINE",
"353 69 LINE",
"366 25 OFFCURVE",
"411 -14 OFFCURVE",
"439 -16 CURVE",
"550 40 LINE"
);
},
{
closed = 1;
nodes = (
"409 146 LINE",
"352 101 OFFCURVE",
"302 81 OFFCURVE",
"263 81 CURVE SMOOTH",
"187 81 OFFCURVE",
"140 154 OFFCURVE",
"140 247 CURVE SMOOTH",
"140 312 OFFCURVE",
"163 377 OFFCURVE",
"206 415 CURVE",
"286 429 OFFCURVE",
"363 388 OFFCURVE",
"397 337 CURVE",
"435 427 LINE",
"404 463 OFFCURVE",
"346 492 OFFCURVE",
"274 492 CURVE SMOOTH",
"129 492 OFFCURVE",
"17 383 OFFCURVE",
"17 233 CURVE SMOOTH",
"17 98 OFFCURVE",
"108 -18 OFFCURVE",
"244 -16 CURVE",
"405 97 LINE"
);
},
{
closed = 1;
nodes = (
"374 652 LINE",
"428 695 LINE",
"420 736 LINE",
"368 734 OFFCURVE",
"309 722 OFFCURVE",
"263 703 CURVE",
"273 655 LINE"
);
}
);
width = 558;
}
);
leftKerningGroup = o;
leftMetricsKey = o;
rightKerningGroup = l;
unicode = 0064;
},
{
color = 3;
glyphname = e;
layers = (
{
anchors = (
{
name = bottom;
position = "{250, 0}";
},
{
name = ogonek;
position = "{436, 43}";
},
{
name = top;
position = "{248, 468}";
}
);
layerId = "765B86F4-5B75-49D9-B08E-C73D0440621F";
name = Regular;
paths = (
{
closed = 1;
nodes = (
"420 107 LINE",
"374 86 OFFCURVE",
"333 73 OFFCURVE",
"292 73 CURVE SMOOTH",
"202 73 OFFCURVE",
"134 137 OFFCURVE",
"134 250 CURVE SMOOTH",
"134 314 OFFCURVE",
"156 392 OFFCURVE",
"212 424 CURVE",
"291 427 OFFCURVE",
"348 357 OFFCURVE",
"338 276 CURVE",
"447 304 LINE",
"449 423 OFFCURVE",
"357 492 OFFCURVE",
"255 492 CURVE SMOOTH",
"119 492 OFFCURVE",
"17 370 OFFCURVE",
"17 229 CURVE SMOOTH",
"17 90 OFFCURVE",
"118 -22 OFFCURVE",
"282 -14 CURVE",
"438 60 LINE"
);
},
{
closed = 1;
nodes = (
"113 252 LINE",
"389 248 LINE",
"447 304 LINE",
"412 326 LINE",
"109 310 LINE"
);
}
);
width = 467;
}
);
leftKerningGroup = o;
leftMetricsKey = o;
rightKerningGroup = e;
unicode = 0065;
},
{
color = 3;
glyphname = f;
layers = (
{
layerId = "765B86F4-5B75-49D9-B08E-C73D0440621F";
name = Regular;
paths = (
{
closed = 1;
nodes = (
"386 702 LINE",
"348 736 OFFCURVE",
"302 751 OFFCURVE",
"261 751 CURVE SMOOTH",
"168 751 OFFCURVE",
"83 674 OFFCURVE",
"83 554 CURVE SMOOTH",
"83 0 LINE",
"200 0 LINE",
"200 436 LINE",
"205 460 LINE",
"168 656 LINE",
"219 662 OFFCURVE",
"274 642 OFFCURVE",
"319 598 CURVE"
);
},
{
closed = 1;
nodes = (
"137 383 LINE",
"170 440 LINE",
"133 476 LINE",
"95 466 OFFCURVE",
"54 453 OFFCURVE",
"12 432 CURVE",
"17 381 LINE"
);
},
{
closed = 1;
nodes = (
"109 0 LINE",
"122 72 LINE",
"92 65 OFFCURVE",
"44 49 OFFCURVE",
"15 34 CURVE",
"19 0 LINE"
);
},
{
closed = 1;
nodes = (
"287 0 LINE",
"291 48 LINE",
"264 63 OFFCURVE",
"222 72 OFFCURVE",
"185 77 CURVE",
"176 0 LINE"
);
},
{
closed = 1;
nodes = (
"153 381 LINE",
"265 381 LINE",
"313 435 LINE",
"311 470 LINE",
"153 470 LINE"
);
}
);
width = 346;
}
);
leftKerningGroup = f;
leftMetricsKey = n;
rightKerningGroup = f;
unicode = 0066;
},
{
color = 3;
glyphname = g;
layers = (
{
anchors = (
{
name = top;
position = "{258, 468}";
}
);
layerId = "765B86F4-5B75-49D9-B08E-C73D0440621F";
name = Regular;
paths = (
{
closed = 1;
nodes = (
"429 537 OFFCURVE",
"377 465 OFFCURVE",
"381 378 CURVE",
"405 391 LINE",
"442 421 OFFCURVE",
"488 435 OFFCURVE",
"542 432 CURVE",
"520 548 LINE"
);
},
{
closed = 1;
nodes = (
"372 155 OFFCURVE",
"475 218 OFFCURVE",
"475 325 CURVE SMOOTH",
"475 432 OFFCURVE",
"374 499 OFFCURVE",
"259 499 CURVE SMOOTH",
"144 499 OFFCURVE",
"41 431 OFFCURVE",
"41 325 CURVE SMOOTH",
"41 220 OFFCURVE",
"142 155 OFFCURVE",
"257 155 CURVE SMOOTH"
);
},
{
closed = 1;
nodes = (
"285 468 OFFCURVE",
"359 395 OFFCURVE",
"359 317 CURVE SMOOTH",
"359 285 OFFCURVE",
"348 248 OFFCURVE",
"316 223 CURVE",
"217 190 OFFCURVE",
"159 247 OFFCURVE",
"159 331 CURVE SMOOTH",
"159 362 OFFCURVE",
"167 397 OFFCURVE",
"190 422 CURVE"
);
},
{
closed = 1;
nodes = (
"181 50 LINE",
"27 -90 LINE",
"23 -191 OFFCURVE",
"122 -236 OFFCURVE",
"224 -236 CURVE SMOOTH",
"391 -236 OFFCURVE",
"553 -115 OFFCURVE",
"509 40 CURVE",
"418 73 OFFCURVE",
"265 102 OFFCURVE",
"163 104 CURVE",
"186 129 OFFCURVE",
"224 160 OFFCURVE",
"260 182 CURVE",
"207 199 LINE",
"158 176 OFFCURVE",
"94 122 OFFCURVE",
"52 74 CURVE",
"71 18 LINE",
"215 14 OFFCURVE",
"370 -15 OFFCURVE",
"437 -49 CURVE",
"402 -109 OFFCURVE",
"312 -140 OFFCURVE",
"237 -140 CURVE SMOOTH",
"174 -140 OFFCURVE",
"126 -120 OFFCURVE",
"126 -84 CURVE SMOOTH",
"126 -43 OFFCURVE",
"195 10 OFFCURVE",
"268 50 CURVE"
);
}
);
width = 557;
}
);
leftKerningGroup = g;
rightKerningGroup = g;
unicode = 0067;
},
{
color = 3;
glyphname = h;
layers = (
{
anchors = (
{
name = center;
position = "{304, 234}";
},
{
name = top;
position = "{122, 712}";
}
);
layerId = "765B86F4-5B75-49D9-B08E-C73D0440621F";
name = Regular;
paths = (
{
closed = 1;
nodes = (
"123 652 LINE",
"177 695 LINE",
"169 736 LINE",
"117 734 OFFCURVE",
"58 722 OFFCURVE",
"12 703 CURVE",
"22 655 LINE"
);
},
{
closed = 1;
nodes = (
"97 0 LINE",
"214 0 LINE",
"214 696 LINE",
"169 736 LINE",
"97 693 LINE"
);
},
{
closed = 1;
nodes = (
"116 0 LINE",
"129 72 LINE",
"99 65 OFFCURVE",
"51 49 OFFCURVE",
"22 34 CURVE",
"26 0 LINE"
);
},
{
closed = 1;
nodes = (
"272 0 LINE",
"276 48 LINE",
"249 64 OFFCURVE",
"207 74 OFFCURVE",
"170 79 CURVE",
"161 0 LINE"
);
},
{
closed = 1;
nodes = (
"438 0 LINE",
"451 72 LINE",
"421 65 OFFCURVE",
"373 49 OFFCURVE",
"344 34 CURVE",
"348 0 LINE"
);
},
{
closed = 1;
nodes = (
"585 0 LINE",
"589 48 LINE",
"561 63 OFFCURVE",
"518 73 OFFCURVE",
"481 79 CURVE",
"474 0 LINE"
);
},
{
closed = 1;
nodes = (
"400 0 LINE",
"517 0 LINE",
"517 299 LINE SMOOTH",
"517 373 OFFCURVE",
"514 401 OFFCURVE",
"504 419 CURVE SMOOTH",
"482 456 OFFCURVE",
"435 483 OFFCURVE",
"397 488 CURVE",
"349 480 OFFCURVE",
"257 428 OFFCURVE",
"166 356 CURVE",
"180 320 LINE",
"228 356 OFFCURVE",
"293 395 OFFCURVE",
"335 395 CURVE SMOOTH",
"372 396 OFFCURVE",
"400 367 OFFCURVE",
"400 292 CURVE SMOOTH"
);
}
);
width = 605;
}
);
leftKerningGroup = l;
leftMetricsKey = n;
rightKerningGroup = n;
rightMetricsKey = n;
unicode = 0068;
},
{
color = 3;
glyphname = i;
layers = (
{
anchors = (
{
name = ogonek;
position = "{184, 0}";
}
);
layerId = "765B86F4-5B75-49D9-B08E-C73D0440621F";
name = Regular;
paths = (
{
closed = 1;
nodes = (
"189 585 OFFCURVE",
"218 621 OFFCURVE",
"231 653 CURVE",
"212 680 OFFCURVE",
"177 712 OFFCURVE",
"144 727 CURVE",
"116 708 OFFCURVE",
"88 672 OFFCURVE",
"70 636 CURVE",
"91 608 OFFCURVE",
"129 579 OFFCURVE",
"161 566 CURVE"
);
},
{
closed = 1;
nodes = (
"123 406 LINE",
"177 449 LINE",
"169 489 LINE",
"117 487 OFFCURVE",
"58 475 OFFCURVE",
"12 456 CURVE",
"22 408 LINE"
);
},
{
closed = 1;
nodes = (
"97 0 LINE",
"214 0 LINE",
"214 449 LINE",
"169 489 LINE",
"97 447 LINE"
);
},
{
closed = 1;
nodes = (
"281 0 LINE",
"285 48 LINE",
"258 64 OFFCURVE",
"212 74 OFFCURVE",
"175 79 CURVE",
"166 0 LINE"
);
},
{
closed = 1;
nodes = (
"115 0 LINE",
"128 72 LINE",
"98 65 OFFCURVE",
"50 49 OFFCURVE",
"21 34 CURVE",
"25 0 LINE"
);
}
);
width = 304;
}
);
leftKerningGroup = n;
leftMetricsKey = n;
rightKerningGroup = i;
rightMetricsKey = n;
unicode = 0069;
},
{
color = 3;
glyphname = j;
layers = (
{
anchors = (
{
name = top;
position = "{119, 400}";
}
);
layerId = "765B86F4-5B75-49D9-B08E-C73D0440621F";
name = Regular;
paths = (
{
closed = 1;
nodes = (
"192 585 OFFCURVE",
"221 620 OFFCURVE",
"234 652 CURVE",
"215 679 OFFCURVE",
"180 711 OFFCURVE",
"147 726 CURVE",
"119 707 OFFCURVE",
"91 671 OFFCURVE",
"73 635 CURVE",
"94 608 OFFCURVE",
"132 578 OFFCURVE",
"164 565 CURVE"
);
},
{
closed = 1;
nodes = (
"172 489 LINE",
"100 447 LINE",
"100 -26 LINE SMOOTH",
"100 -104 OFFCURVE",
"74 -143 OFFCURVE",
"-4 -169 CURVE",
"11 -213 LINE",
"168 -185 OFFCURVE",
"217 -106 OFFCURVE",
"217 -56 CURVE SMOOTH",
"217 449 LINE"
);
},
{
closed = 1;
nodes = (
"126 406 LINE",
"180 449 LINE",
"172 489 LINE",
"120 487 OFFCURVE",
"61 475 OFFCURVE",
"15 456 CURVE",
"25 408 LINE"
);
}
);
width = 291;
}
);
leftKerningGroup = j;
rightKerningGroup = j;
unicode = 006A;
},
{
color = 3;
glyphname = k;
layers = (
{
anchors = (
{
name = bottom;
position = "{291, 0}";
}
);
layerId = "765B86F4-5B75-49D9-B08E-C73D0440621F";
name = Regular;
paths = (
{
closed = 1;
nodes = (
"123 652 LINE",
"177 695 LINE",
"169 736 LINE",
"117 734 OFFCURVE",
"58 722 OFFCURVE",
"12 703 CURVE",
"22 655 LINE"
);
},
{
closed = 1;
nodes = (
"97 0 LINE",
"214 0 LINE",
"214 696 LINE",
"169 736 LINE",
"97 693 LINE"
);
},
{
closed = 1;
nodes = (
"116 0 LINE",
"129 72 LINE",
"99 65 OFFCURVE",
"51 49 OFFCURVE",
"22 34 CURVE",
"26 0 LINE"
);
},
{
closed = 1;
nodes = (
"264 0 LINE",
"268 48 LINE",
"241 64 OFFCURVE",
"199 74 OFFCURVE",
"162 79 CURVE",
"153 0 LINE"
);
},
{
closed = 1;
nodes = (
"310 408 LINE",
"437 414 LINE",
"481 442 LINE",
"483 489 LINE",
"432 487 OFFCURVE",
"353 475 OFFCURVE",
"300 456 CURVE"
);
},
{
closed = 1;
nodes = (
"482 489 LINE",
"415 447 LINE",
"270 272 LINE",
"156 204 LINE",
"171 182 LINE",
"320 200 LINE",
"518 433 LINE"
);
},
{
closed = 1;
nodes = (
"511 67 OFFCURVE",
"490 69 OFFCURVE",
"472 95 CURVE SMOOTH",
"352 268 LINE",
"253 230 LINE",
"367 50 LINE SMOOTH",
"389 16 OFFCURVE",
"404 -3 OFFCURVE",
"432 -12 CURVE",
"560 25 LINE",
"548 73 LINE"
);
}
);
width = 587;
}
);
leftKerningGroup = l;
leftMetricsKey = n;
rightKerningGroup = k;
unicode = 006B;
},
{
color = 3;
glyphname = l;
layers = (
{
anchors = (
{
name = bottom;
position = "{161, 0}";
},
{
name = top;
position = "{150, 735}";
},
{
name = topright;
position = "{289, 468}";
}
);
layerId = "765B86F4-5B75-49D9-B08E-C73D0440621F";
name = Regular;
paths = (
{
closed = 1;
nodes = (
"97 0 LINE",
"214 0 LINE",
"214 696 LINE",
"169 736 LINE",
"97 693 LINE"
);
},
{
closed = 1;
nodes = (
"123 652 LINE",
"177 695 LINE",
"169 736 LINE",
"117 734 OFFCURVE",
"58 722 OFFCURVE",
"12 703 CURVE",
"22 655 LINE"
);
},
{
closed = 1;
nodes = (
"281 0 LINE",
"285 48 LINE",
"258 64 OFFCURVE",
"212 74 OFFCURVE",
"175 79 CURVE",
"166 0 LINE"
);
},
{
closed = 1;
nodes = (
"115 0 LINE",
"128 72 LINE",
"98 65 OFFCURVE",
"50 49 OFFCURVE",
"21 34 CURVE",
"25 0 LINE"
);
}
);
width = 316;
}
);
leftKerningGroup = l;
leftMetricsKey = n;
rightKerningGroup = l;
unicode = 006C;
},
{
color = 3;
glyphname = m;
layers = (
{
layerId = "765B86F4-5B75-49D9-B08E-C73D0440621F";
name = Regular;
paths = (
{
closed = 1;
nodes = (
"123 406 LINE",
"177 449 LINE",
"169 489 LINE",
"117 487 OFFCURVE",
"58 475 OFFCURVE",
"12 456 CURVE",
"22 408 LINE"
);
},
{
closed = 1;
nodes = (
"97 0 LINE",
"214 0 LINE",
"214 447 LINE",
"169 489 LINE",
"97 447 LINE"
);
},
{
closed = 1;
nodes = (
"394 0 LINE",
"511 0 LINE",
"511 299 LINE SMOOTH",
"511 373 OFFCURVE",
"508 401 OFFCURVE",
"498 419 CURVE SMOOTH",
"476 456 OFFCURVE",
"429 483 OFFCURVE",
"391 488 CURVE",
"343 480 OFFCURVE",
"251 428 OFFCURVE",
"160 356 CURVE",
"174 320 LINE",
"222 356 OFFCURVE",
"287 395 OFFCURVE",
"329 395 CURVE SMOOTH",
"366 396 OFFCURVE",
"394 367 OFFCURVE",
"394 292 CURVE SMOOTH"
);
},
{
closed = 1;
nodes = (
"693 0 LINE",
"810 0 LINE",
"810 299 LINE SMOOTH",
"810 373 OFFCURVE",
"807 401 OFFCURVE",
"797 419 CURVE SMOOTH",
"775 456 OFFCURVE",
"728 483 OFFCURVE",
"690 488 CURVE",
"642 480 OFFCURVE",
"550 428 OFFCURVE",
"459 356 CURVE",
"473 320 LINE",
"521 356 OFFCURVE",
"586 395 OFFCURVE",
"628 395 CURVE SMOOTH",
"665 396 OFFCURVE",
"693 367 OFFCURVE",
"693 292 CURVE SMOOTH"
);
},
{
closed = 1;
nodes = (
"119 0 LINE",
"132 72 LINE",
"102 65 OFFCURVE",
"54 49 OFFCURVE",
"25 34 CURVE",
"29 0 LINE"
);
},
{
closed = 1;
nodes = (
"272 0 LINE",
"276 48 LINE",
"249 64 OFFCURVE",
"207 74 OFFCURVE",
"170 79 CURVE",
"161 0 LINE"
);
},
{
closed = 1;
nodes = (
"432 0 LINE",
"445 72 LINE",
"415 65 OFFCURVE",
"367 49 OFFCURVE",
"338 34 CURVE",
"342 0 LINE"
);
},
{
closed = 1;
nodes = (
"573 0 LINE",
"578 48 LINE",
"550 64 OFFCURVE",
"505 74 OFFCURVE",
"468 79 CURVE",
"459 0 LINE"
);
},
{
closed = 1;
nodes = (
"731 0 LINE",
"744 72 LINE",
"714 65 OFFCURVE",
"666 49 OFFCURVE",
"637 34 CURVE",
"641 0 LINE"
);
},
{
closed = 1;
nodes = (
"876 0 LINE",
"881 48 LINE",
"853 64 OFFCURVE",
"804 74 OFFCURVE",
"767 79 CURVE",
"758 0 LINE"
);
}
);
width = 896;
}
);
leftKerningGroup = n;
leftMetricsKey = n;
rightKerningGroup = n;
rightMetricsKey = n;
unicode = 006D;
},
{
color = 3;
glyphname = n;
layers = (
{
anchors = (
{
name = bottom;
position = "{317, 0}";
},
{
name = top;
position = "{301, 468}";
}
);
layerId = "765B86F4-5B75-49D9-B08E-C73D0440621F";
name = Regular;
paths = (
{
closed = 1;
nodes = (
"123 406 LINE",
"177 449 LINE",
"169 489 LINE",
"117 487 OFFCURVE",
"58 475 OFFCURVE",
"12 456 CURVE",
"22 408 LINE"
);
},
{
closed = 1;
nodes = (
"97 0 LINE",
"214 0 LINE",
"214 447 LINE",
"169 489 LINE",
"97 447 LINE"
);
},
{
closed = 1;
nodes = (
"119 0 LINE",
"132 72 LINE",
"102 65 OFFCURVE",
"54 49 OFFCURVE",
"25 34 CURVE",
"29 0 LINE"
);
},
{
closed = 1;
nodes = (
"272 0 LINE",
"276 48 LINE",
"249 64 OFFCURVE",
"207 74 OFFCURVE",
"170 79 CURVE",
"161 0 LINE"
);
},
{
closed = 1;
nodes = (
"441 0 LINE",
"454 72 LINE",
"424 65 OFFCURVE",
"376 49 OFFCURVE",
"347 34 CURVE",
"351 0 LINE"
);
},
{
closed = 1;
nodes = (
"586 0 LINE",
"591 48 LINE",
"563 64 OFFCURVE",
"514 74 OFFCURVE",
"477 79 CURVE",
"468 0 LINE"
);
},
{
closed = 1;
nodes = (
"403 0 LINE",
"520 0 LINE",
"520 299 LINE SMOOTH",
"520 373 OFFCURVE",
"517 401 OFFCURVE",
"507 419 CURVE SMOOTH",
"485 456 OFFCURVE",
"438 483 OFFCURVE",
"400 488 CURVE",
"352 480 OFFCURVE",
"260 428 OFFCURVE",
"169 356 CURVE",
"183 320 LINE",
"231 356 OFFCURVE",
"296 395 OFFCURVE",
"338 395 CURVE SMOOTH",
"375 396 OFFCURVE",
"403 367 OFFCURVE",
"403 292 CURVE SMOOTH"
);
}
);
width = 607;
}
);
leftKerningGroup = n;
rightKerningGroup = n;
unicode = 006E;
},
{
color = 3;
glyphname = o;
layers = (
{
anchors = (
{
name = top;
position = "{248, 468}";
}
);
layerId = "765B86F4-5B75-49D9-B08E-C73D0440621F";
name = Regular;
paths = (
{
closed = 1;
nodes = (
"17 78 OFFCURVE",
"126 -20 OFFCURVE",
"254 -20 CURVE SMOOTH",
"376 -20 OFFCURVE",
"481 67 OFFCURVE",
"481 233 CURVE SMOOTH",
"481 398 OFFCURVE",
"377 492 OFFCURVE",
"251 492 CURVE SMOOTH",
"127 492 OFFCURVE",
"17 400 OFFCURVE",
"17 238 CURVE SMOOTH"
);
},
{
closed = 1;
nodes = (
"289 55 OFFCURVE",
"276 53 OFFCURVE",
"263 53 CURVE SMOOTH",
"176 53 OFFCURVE",
"139 144 OFFCURVE",
"139 245 CURVE SMOOTH",
"139 304 OFFCURVE",
"150 363 OFFCURVE",
"180 400 CURVE",
"195 411 OFFCURVE",
"218 419 OFFCURVE",
"244 419 CURVE SMOOTH",
"328 419 OFFCURVE",
"360 327 OFFCURVE",
"360 222 CURVE SMOOTH",
"360 164 OFFCURVE",
"352 92 OFFCURVE",
"305 60 CURVE"
);
}
);
width = 503;
}
);
leftKerningGroup = o;
rightKerningGroup = o;
unicode = 006F;
},
{
color = 3;
glyphname = p;
layers = (
{
layerId = "765B86F4-5B75-49D9-B08E-C73D0440621F";
name = Regular;
paths = (
{
closed = 1;
nodes = (
"95 -203 LINE",
"212 -203 LINE",
"212 449 LINE",
"168 489 LINE",
"95 447 LINE"
);
},
{
closed = 1;
nodes = (
"123 -203 LINE",
"136 -131 LINE",
"106 -141 OFFCURVE",
"58 -156 OFFCURVE",
"29 -170 CURVE",
"33 -203 LINE"
);
},
{
closed = 1;
nodes = (
"294 -203 LINE",
"298 -155 LINE",
"271 -142 OFFCURVE",
"229 -132 OFFCURVE",
"192 -124 CURVE",
"183 -203 LINE"
);
},
{
closed = 1;
nodes = (
"171 332 LINE",
"218 364 OFFCURVE",
"265 393 OFFCURVE",
"307 393 CURVE SMOOTH",
"377 393 OFFCURVE",
"421 315 OFFCURVE",
"421 231 CURVE SMOOTH",
"421 163 OFFCURVE",
"393 92 OFFCURVE",
"345 59 CURVE",
"263 49 OFFCURVE",
"196 82 OFFCURVE",
"168 111 CURVE",
"115 26 LINE",
"173 0 OFFCURVE",
"234 -15 OFFCURVE",
"288 -15 CURVE SMOOTH",
"444 -15 OFFCURVE",
"545 105 OFFCURVE",
"545 254 CURVE SMOOTH",
"545 392 OFFCURVE",
"458 511 OFFCURVE",
"323 484 CURVE",
"162 375 LINE"
);
},
{
closed = 1;
nodes = (
"123 406 LINE",
"180 458 LINE",
"169 489 LINE",
"117 487 OFFCURVE",
"58 475 OFFCURVE",
"12 456 CURVE",
"22 408 LINE"
);
}
);
width = 567;
}
);
leftKerningGroup = n;
leftMetricsKey = n;
rightKerningGroup = o;
rightMetricsKey = o;
unicode = 0070;
},
{
color = 3;
glyphname = q;
layers = (
{
layerId = "765B86F4-5B75-49D9-B08E-C73D0440621F";
name = Regular;
paths = (
{
closed = 1;
nodes = (
"516 423 LINE",
"499 471 LINE",
"362 450 LINE",
"345 421 LINE",
"345 -203 LINE",
"462 -203 LINE",
"462 384 LINE"
);
},
{
closed = 1;
nodes = (
"354 -203 LINE",
"356 -131 LINE",
"326 -139 OFFCURVE",
"278 -154 OFFCURVE",
"249 -170 CURVE",
"253 -203 LINE"
);
},
{
closed = 1;
nodes = (
"514 -203 LINE",
"518 -155 LINE",
"491 -140 OFFCURVE",
"449 -130 OFFCURVE",
"412 -124 CURVE",
"403 -203 LINE"
);
},
{
closed = 1;
nodes = (
"410 147 LINE",
"353 103 OFFCURVE",
"302 83 OFFCURVE",
"264 83 CURVE SMOOTH",
"188 83 OFFCURVE",
"141 156 OFFCURVE",
"141 248 CURVE SMOOTH",
"141 313 OFFCURVE",
"164 378 OFFCURVE",
"207 417 CURVE",
"287 430 OFFCURVE",
"364 389 OFFCURVE",
"398 338 CURVE",
"461 427 LINE",
"415 463 OFFCURVE",
"352 494 OFFCURVE",
"279 494 CURVE SMOOTH",
"133 494 OFFCURVE",
"17 385 OFFCURVE",
"17 234 CURVE SMOOTH",
"17 101 OFFCURVE",
"108 -16 OFFCURVE",
"245 -14 CURVE",
"406 98 LINE"
);
}
);
width = 548;
}
);
leftKerningGroup = o;
leftMetricsKey = o;
unicode = 0071;
},
{
color = 3;
glyphname = r;
layers = (
{
anchors = (
{
name = bottom;
position = "{184, 0}";
},
{
name = top;
position = "{236, 468}";
}
);
layerId = "765B86F4-5B75-49D9-B08E-C73D0440621F";
name = Regular;
paths = (
{
closed = 1;
nodes = (
"123 406 LINE",
"177 449 LINE",
"169 489 LINE",
"117 487 OFFCURVE",
"58 475 OFFCURVE",
"12 456 CURVE",
"22 408 LINE"
);
},
{
closed = 1;
nodes = (
"97 0 LINE",
"214 0 LINE",
"214 449 LINE",
"169 489 LINE",
"97 447 LINE"
);
},
{
closed = 1;
nodes = (
"117 0 LINE",
"130 72 LINE",
"100 65 OFFCURVE",
"52 49 OFFCURVE",
"23 34 CURVE",
"27 0 LINE"
);
},
{
closed = 1;
nodes = (
"314 0 LINE",
"318 48 LINE",
"291 63 OFFCURVE",
"233 73 OFFCURVE",
"196 77 CURVE",
"187 0 LINE"
);
},
{
closed = 1;
nodes = (
"153 298 LINE",
"181 240 LINE",
"219 309 OFFCURVE",
"285 366 OFFCURVE",
"332 397 CURVE",
"348 285 LINE",
"413 285 LINE",
"430 338 OFFCURVE",
"441 407 OFFCURVE",
"440 461 CURVE",
"410 484 OFFCURVE",
"363 493 OFFCURVE",
"316 475 CURVE"
);
}
);
width = 449;
}
);
leftKerningGroup = n;
leftMetricsKey = n;
rightKerningGroup = r;
unicode = 0072;
},
{
color = 3;
glyphname = s;
layers = (
{
layerId = "765B86F4-5B75-49D9-B08E-C73D0440621F";
name = Regular;
paths = (
{
closed = 1;
nodes = (
"22 33 LINE",
"89 -4 OFFCURVE",
"153 -20 OFFCURVE",
"210 -20 CURVE SMOOTH",
"320 -20 OFFCURVE",
"393 42 OFFCURVE",
"393 128 CURVE SMOOTH",
"393 287 OFFCURVE",
"145 275 OFFCURVE",
"145 374 CURVE SMOOTH",
"145 391 OFFCURVE",
"152 412 OFFCURVE",
"179 426 CURVE",
"229 429 OFFCURVE",
"298 413 OFFCURVE",
"342 378 CURVE",
"374 461 LINE",
"335 481 OFFCURVE",
"285 492 OFFCURVE",
"237 492 CURVE SMOOTH",
"129 492 OFFCURVE",
"37 438 OFFCURVE",
"37 344 CURVE SMOOTH",
"37 191 OFFCURVE",
"282 206 OFFCURVE",
"282 101 CURVE SMOOTH",
"282 80 OFFCURVE",
"273 63 OFFCURVE",
"258 50 CURVE",
"187 64 OFFCURVE",
"117 98 OFFCURVE",
"66 135 CURVE"
);
},
{
closed = 1;
nodes = (
"358 328 LINE",
"373 371 OFFCURVE",
"378 417 OFFCURVE",
"375 461 CURVE",
"269 459 LINE",
"293 328 LINE"
);
}
);
width = 432;
}
);
leftKerningGroup = s;
rightKerningGroup = s;
unicode = 0073;
},
{
color = 3;
glyphname = t;
layers = (
{
anchors = (
{
name = bottom;
position = "{192, 0}";
},
{
name = center;
position = "{182, 234}";
},
{
name = topright;
position = "{347, 468}";
}
);
layerId = "765B86F4-5B75-49D9-B08E-C73D0440621F";
name = Regular;
paths = (
{
closed = 1;
nodes = (
"325 101 LINE",
"296 92 OFFCURVE",
"261 82 OFFCURVE",
"237 82 CURVE SMOOTH",
"211 82 OFFCURVE",
"202 95 OFFCURVE",
"202 133 CURVE SMOOTH",
"202 446 LINE",
"192 595 LINE",
"134 595 LINE",
"85 454 LINE",
"85 77 LINE SMOOTH",
"85 29 OFFCURVE",
"146 -19 OFFCURVE",
"197 -16 CURVE",
"338 53 LINE"
);
},
{
closed = 1;
nodes = (
"139 383 LINE",
"173 440 LINE",
"148 487 LINE",
"102 473 OFFCURVE",
"57 457 OFFCURVE",
"14 432 CURVE",
"20 382 LINE"
);
},
{
closed = 1;
nodes = (
"138 381 LINE",
"295 381 LINE",
"343 434 LINE",
"340 470 LINE",
"138 470 LINE"
);
}
);
width = 363;
}
);
leftKerningGroup = t;
rightKerningGroup = t;
unicode = 0074;
},
{
color = 3;
glyphname = u;
layers = (
{
anchors = (
{
name = ogonek;
position = "{528, 12}";
},
{
name = top;
position = "{269, 468}";
}
);
layerId = "765B86F4-5B75-49D9-B08E-C73D0440621F";
name = Regular;
paths = (
{
closed = 1;
nodes = (
"111 406 LINE",
"165 449 LINE",
"157 489 LINE",
"105 487 OFFCURVE",
"46 475 OFFCURVE",
"0 456 CURVE",
"10 408 LINE"
);
},
{
closed = 1;
nodes = (
"425 142 LINE",
"374 108 OFFCURVE",
"316 76 OFFCURVE",
"268 76 CURVE SMOOTH",
"222 75 OFFCURVE",
"201 103 OFFCURVE",
"201 169 CURVE SMOOTH",
"201 449 LINE",
"156 489 LINE",
"84 448 LINE",
"84 172 LINE SMOOTH",
"84 98 OFFCURVE",
"88 72 OFFCURVE",
"100 53 CURVE SMOOTH",
"122 18 OFFCURVE",
"166 -10 OFFCURVE",
"204 -16 CURVE",
"261 -8 OFFCURVE",
"364 38 OFFCURVE",
"438 104 CURVE"
);
},
{
closed = 1;
nodes = (
"406 406 LINE",
"460 449 LINE",
"452 489 LINE",
"402 488 OFFCURVE",
"345 476 OFFCURVE",
"301 457 CURVE",
"311 409 LINE"
);
},
{
closed = 1;
nodes = (
"554 81 OFFCURVE",
"537 77 OFFCURVE",
"523 77 CURVE SMOOTH",
"507 77 OFFCURVE",
"497 83 OFFCURVE",
"497 98 CURVE",
"497 449 LINE",
"452 489 LINE",
"380 448 LINE",
"380 81 LINE",
"385 70 LINE",
"398 26 OFFCURVE",
"443 -14 OFFCURVE",
"471 -16 CURVE",
"582 40 LINE",
"570 84 LINE"
);
}
);
width = 590;
}
);
leftKerningGroup = u;
rightKerningGroup = u;
rightMetricsKey = d;
unicode = 0075;
},
{
color = 3;
glyphname = v;
layers = (
{
layerId = "765B86F4-5B75-49D9-B08E-C73D0440621F";
name = Regular;
paths = (
{
closed = 1;
nodes = (
"-16 421 LINE",
"123 383 LINE",
"150 472 LINE",
"-15 472 LINE"
);
},
{
closed = 1;
nodes = (
"124 472 LINE",
"130 396 LINE",
"161 406 OFFCURVE",
"190 417 OFFCURVE",
"219 431 CURVE",
"214 472 LINE"
);
},
{
closed = 1;
nodes = (
"225 -9 OFFCURVE",
"282 -9 OFFCURVE",
"318 3 CURVE",
"380 155 OFFCURVE",
"439 322 OFFCURVE",
"493 472 CURVE",
"368 472 LINE",
"342 355 OFFCURVE",
"308 213 OFFCURVE",
"273 96 CURVE",
"252 96 LINE",
"237 193 LINE",
"150 472 LINE",
"22 463 LINE",
"186 -3 LINE"
);
},
{
closed = 1;
nodes = (
"430 393 LINE",
"442 472 LINE",
"303 472 LINE",
"302 421 LINE"
);
},
{
closed = 1;
nodes = (
"419 472 LINE",
"439 396 LINE",
"470 406 OFFCURVE",
"499 417 OFFCURVE",
"528 431 CURVE",
"523 472 LINE"
);
}
);
width = 519;
}
);
leftKerningGroup = v;
rightKerningGroup = v;
unicode = 0076;
},
{
color = 3;
glyphname = w;
layers = (
{
anchors = (
{
name = top;
position = "{370, 468}";
}
);
layerId = "765B86F4-5B75-49D9-B08E-C73D0440621F";
name = Regular;
paths = (
{
closed = 1;
nodes = (
"-16 421 LINE",
"121 383 LINE",
"142 472 LINE",
"-15 472 LINE"
);
},
{
closed = 1;
nodes = (
"122 472 LINE",
"128 396 LINE",
"159 406 OFFCURVE",
"188 417 OFFCURVE",
"217 431 CURVE",
"212 472 LINE"
);
},
{
closed = 1;
nodes = (
"725 472 LINE",
"607 472 LINE",
"520 85 LINE",
"513 85 LINE",
"494 191 LINE",
"402 466 LINE",
"288 448 LINE",
"445 -3 LINE",
"482 -11 OFFCURVE",
"541 -7 OFFCURVE",
"579 6 CURVE"
);
},
{
closed = 1;
nodes = (
"661 393 LINE",
"673 472 LINE",
"534 472 LINE",
"533 421 LINE"
);
},
{
closed = 1;
nodes = (
"653 472 LINE",
"673 396 LINE",
"704 406 OFFCURVE",
"733 417 OFFCURVE",
"762 431 CURVE",
"757 472 LINE"
);
},
{
closed = 1;
nodes = (
"356 344 LINE",
"261 85 LINE",
"253 85 LINE",
"229 191 LINE",
"145 472 LINE",
"22 463 LINE",
"172 -3 LINE",
"211 -9 OFFCURVE",
"268 -7 OFFCURVE",
"304 6 CURVE",
"375 176 LINE",
"396 275 LINE"
);
}
);
width = 753;
}
);
leftKerningGroup = v;
leftMetricsKey = v;
rightKerningGroup = v;
rightMetricsKey = v;
unicode = 0077;
},
{
color = 3;
glyphname = x;
layers = (
{
layerId = "765B86F4-5B75-49D9-B08E-C73D0440621F";
name = Regular;
paths = (
{
closed = 1;
nodes = (
"25 421 LINE",
"159 383 LINE",
"189 472 LINE",
"26 472 LINE"
);
},
{
closed = 1;
nodes = (
"191 406 OFFCURVE",
"220 417 OFFCURVE",
"249 431 CURVE",
"244 472 LINE",
"154 472 LINE",
"160 396 LINE SMOOTH"
);
},
{
closed = 1;
nodes = (
"434 400 LINE",
"482 472 LINE",
"317 472 LINE",
"316 421 LINE"
);
},
{
closed = 1;
nodes = (
"416 472 LINE",
"430 395 LINE",
"461 404 OFFCURVE",
"496 418 OFFCURVE",
"525 431 CURVE",
"520 472 LINE"
);
},
{
closed = 1;
nodes = (
"397 0 LINE",
"524 0 LINE",
"173 472 LINE",
"60 441 LINE"
);
},
{
closed = 1;
nodes = (
"474 417 LINE",
"487 472 LINE",
"397 472 LINE",
"277 277 LINE",
"316 223 LINE"
);
},
{
closed = 1;
nodes = (
"19 6 LINE",
"80 0 LINE",
"141 0 LINE",
"266 200 LINE",
"222 255 LINE"
);
},
{
closed = 1;
nodes = (
"96 0 LINE",
"109 72 LINE",
"79 65 OFFCURVE",
"31 49 OFFCURVE",
"2 34 CURVE",
"6 0 LINE"
);
},
{
closed = 1;
nodes = (
"234 0 LINE",
"238 48 LINE",
"211 64 OFFCURVE",
"169 74 OFFCURVE",
"132 79 CURVE",
"115 0 LINE"
);
},
{
closed = 1;
nodes = (
"441 0 LINE",
"414 72 LINE",
"384 65 OFFCURVE",
"336 49 OFFCURVE",
"307 34 CURVE",
"311 0 LINE"
);
},
{
closed = 1;
nodes = (
"539 0 LINE",
"543 48 LINE",
"516 64 OFFCURVE",
"474 74 OFFCURVE",
"437 79 CURVE",
"420 0 LINE"
);
}
);
width = 555;
}
);
leftKerningGroup = x;
rightKerningGroup = x;
unicode = 0078;
},
{
color = 3;
glyphname = y;
layers = (
{
anchors = (
{
name = top;
position = "{264, 468}";
}
);
layerId = "765B86F4-5B75-49D9-B08E-C73D0440621F";
name = Regular;
paths = (
{
closed = 1;
nodes = (
"-16 421 LINE",
"125 383 LINE",
"150 472 LINE",
"-15 472 LINE"
);
},
{
closed = 1;
nodes = (
"132 472 LINE",
"138 396 LINE",
"169 406 OFFCURVE",
"198 417 OFFCURVE",
"227 431 CURVE",
"222 472 LINE"
);
},
{
closed = 1;
nodes = (
"298 421 LINE",
"426 393 LINE",
"438 472 LINE",
"299 472 LINE"
);
},
{
closed = 1;
nodes = (
"420 472 LINE",
"440 396 LINE",
"471 406 OFFCURVE",
"502 417 OFFCURVE",
"531 431 CURVE",
"526 472 LINE"
);
},
{
closed = 1;
nodes = (
"241 -145 OFFCURVE",
"312 -51 OFFCURVE",
"360 65 CURVE",
"406 187 OFFCURVE",
"453 342 OFFCURVE",
"491 472 CURVE",
"365 472 LINE",
"347 357 OFFCURVE",
"308 205 OFFCURVE",
"271 97 CURVE",
"253 97 LINE",
"239 198 LINE",
"151 472 LINE",
"27 455 LINE",
"180 32 LINE",
"198 19 OFFCURVE",
"223 7 OFFCURVE",
"244 0 CURVE",
"190 -52 OFFCURVE",
"123 -83 OFFCURVE",
"50 -109 CURVE",
"113 -219 LINE"
);
}
);
width = 522;
}
);
leftKerningGroup = v;
leftMetricsKey = v;
rightKerningGroup = y;
rightMetricsKey = v;
unicode = 0079;
},
{
color = 3;
glyphname = z;
layers = (
{
anchors = (
{
name = top;
position = "{252, 468}";
}
);
layerId = "765B86F4-5B75-49D9-B08E-C73D0440621F";
name = Regular;
paths = (
{
closed = 1;
nodes = (
"49 392 LINE",
"367 416 LINE",
"409 472 LINE",
"46 472 LINE"
);
},
{
closed = 1;
nodes = (
"432 493 LINE",
"380 458 LINE",
"340 454 LINE",
"25 25 LINE",
"75 -16 LINE",
"135 35 LINE",
"178 58 LINE",
"473 456 LINE"
);
},
{
closed = 1;
nodes = (
"418 160 LINE",
"391 87 LINE",
"121 82 LINE",
"85 23 LINE",
"444 -12 LINE",
"458 32 OFFCURVE",
"469 90 OFFCURVE",
"471 152 CURVE"
);
},
{
closed = 1;
nodes = (
"117 299 LINE",
"145 428 LINE",
"46 472 LINE",
"40 421 OFFCURVE",
"43 350 OFFCURVE",
"54 299 CURVE"
);
}
);
width = 496;
}
);
leftKerningGroup = z;
rightKerningGroup = z;
unicode = 007A;
},
{
color = 3;
glyphname = braceleft;
layers = (
{
layerId = "765B86F4-5B75-49D9-B08E-C73D0440621F";
name = Regular;
paths = (
{
closed = 1;
nodes = (
"367 -60 LINE",
"269 -48 LINE",
"273 149 LINE SMOOTH",
"274 201 OFFCURVE",
"259 248 OFFCURVE",
"221 295 CURVE",
"221 304 LINE",
"259 350 OFFCURVE",
"274 398 OFFCURVE",
"273 449 CURVE SMOOTH",
"269 644 LINE",
"370 644 LINE",
"364 729 LINE",
"211 715 OFFCURVE",
"148 634 OFFCURVE",
"148 555 CURVE SMOOTH",
"148 443 LINE SMOOTH",
"148 374 OFFCURVE",
"141 333 OFFCURVE",
"73 327 CURVE",
"67 268 LINE",
"143 262 OFFCURVE",
"148 223 OFFCURVE",
"148 142 CURVE SMOOTH",
"148 16 LINE SMOOTH",
"148 -54 OFFCURVE",
"225 -135 OFFCURVE",
"357 -145 CURVE"
);
}
);
width = 456;
}
);
unicode = 007B;
},
{
color = 3;
glyphname = bar;
layers = (
{
layerId = "765B86F4-5B75-49D9-B08E-C73D0440621F";
name = Regular;
paths = (
{
closed = 1;
nodes = (
"197 -225 LINE",
"197 735 LINE",
"103 735 LINE",
"103 -225 LINE"
);
}
);
width = 303;
}
);
unicode = 007C;
},
{
color = 3;
glyphname = braceright;
layers = (
{
layerId = "765B86F4-5B75-49D9-B08E-C73D0440621F";
name = Regular;
paths = (
{
closed = 1;
nodes = (
"232 -135 OFFCURVE",
"309 -54 OFFCURVE",
"309 16 CURVE SMOOTH",
"309 142 LINE SMOOTH",
"309 223 OFFCURVE",
"314 262 OFFCURVE",
"390 268 CURVE",
"384 327 LINE",
"316 333 OFFCURVE",
"309 374 OFFCURVE",
"309 443 CURVE SMOOTH",
"309 555 LINE SMOOTH",
"309 634 OFFCURVE",
"246 715 OFFCURVE",
"93 729 CURVE",
"87 644 LINE",
"188 644 LINE",
"184 449 LINE SMOOTH",
"183 398 OFFCURVE",
"199 350 OFFCURVE",
"236 304 CURVE",
"236 295 LINE",
"199 248 OFFCURVE",
"183 201 OFFCURVE",
"184 149 CURVE SMOOTH",
"188 -48 LINE",
"90 -60 LINE",
"100 -145 LINE"
);
}
);
width = 461;
}
);
unicode = 007D;
},
{
color = 3;
glyphname = cent;
layers = (
{
components = (
{
name = c;
transform = "{1, 0, 0, 0.923, 0, 26}";
}
);
layerId = "765B86F4-5B75-49D9-B08E-C73D0440621F";
name = Regular;
paths = (
{
closed = 1;
nodes = (
"212 458 LINE",
"286 458 LINE",
"286 603 LINE",
"212 603 LINE"
);
},
{
closed = 1;
nodes = (
"212 -116 LINE",
"286 -116 LINE",
"286 30 LINE",
"212 30 LINE"
);
}
);
width = 435;
}
);
leftMetricsKey = c;
rightMetricsKey = c;
unicode = 00A2;
},
{
color = 3;
glyphname = sterling;
layers = (
{
layerId = "765B86F4-5B75-49D9-B08E-C73D0440621F";
name = Regular;
paths = (
{
closed = 1;
nodes = (
"151 670 OFFCURVE",
"79 566 OFFCURVE",
"79 484 CURVE SMOOTH",
"79 370 OFFCURVE",
"218 233 OFFCURVE",
"44 0 CURVE",
"118 0 LINE",
"345 219 OFFCURVE",
"199 360 OFFCURVE",
"199 495 CURVE SMOOTH",
"199 529 OFFCURVE",
"208 574 OFFCURVE",
"241 597 CURVE",
"310 599 OFFCURVE",
"373 583 OFFCURVE",
"417 531 CURVE",
"471 633 LINE",
"426 651 OFFCURVE",
"366 670 OFFCURVE",
"301 670 CURVE SMOOTH"
);
},
{
closed = 1;
nodes = (
"77 61 OFFCURVE",
"42 48 OFFCURVE",
"12 32 CURVE",
"18 0 LINE",
"112 0 LINE",
"111 73 LINE"
);
},
{
closed = 1;
nodes = (
"178 76 LINE",
"101 0 LINE",
"492 0 LINE",
"475 91 LINE"
);
},
{
closed = 1;
nodes = (
"393 309 LINE",
"387 340 LINE",
"213 340 LINE",
"176 328 LINE",
"73 328 LINE",
"30 291 LINE",
"36 260 LINE",
"169 260 LINE",
"206 272 LINE",
"350 272 LINE"
);
},
{
closed = 1;
nodes = (
"471 515 OFFCURVE",
"474 597 OFFCURVE",
"470 633 CURVE",
"354 600 LINE",
"394 458 LINE",
"459 456 LINE"
);
},
{
closed = 1;
nodes = (
"431 194 LINE",
"379 32 LINE",
"492 0 LINE",
"499 44 OFFCURVE",
"500 129 OFFCURVE",
"495 189 CURVE"
);
}
);
width = 538;
}
);
unicode = 00A3;
},
{
color = 3;
glyphname = currency;
layers = (
{
layerId = "765B86F4-5B75-49D9-B08E-C73D0440621F";
name = Regular;
paths = (
{
closed = 1;
nodes = (
"78 252 OFFCURVE",
"153 170 OFFCURVE",
"254 170 CURVE SMOOTH",
"342 170 OFFCURVE",
"431 235 OFFCURVE",
"431 358 CURVE SMOOTH",
"431 478 OFFCURVE",
"348 541 OFFCURVE",
"260 541 CURVE SMOOTH",
"168 541 OFFCURVE",
"78 470 OFFCURVE",
"78 356 CURVE SMOOTH"
);
},
{
closed = 1;
nodes = (
"295 241 OFFCURVE",
"281 240 OFFCURVE",
"271 240 CURVE SMOOTH",
"189 240 OFFCURVE",
"158 301 OFFCURVE",
"158 360 CURVE SMOOTH",
"158 405 OFFCURVE",
"175 446 OFFCURVE",
"199 465 CURVE",
"212 468 OFFCURVE",
"223 469 OFFCURVE",
"234 469 CURVE SMOOTH",
"322 469 OFFCURVE",
"349 404 OFFCURVE",
"349 347 CURVE SMOOTH",
"349 299 OFFCURVE",
"329 253 OFFCURVE",
"309 244 CURVE"
);
},
{
closed = 1;
nodes = (
"132 253 LINE",
"62 170 LINE",
"110 127 LINE",
"181 213 LINE"
);
},
{
closed = 1;
nodes = (
"330 212 LINE",
"406 129 LINE",
"452 174 LINE",
"376 257 LINE"
);
},
{
closed = 1;
nodes = (
"177 500 LINE",
"105 581 LINE",
"56 538 LINE",
"131 453 LINE"
);
},
{
closed = 1;
nodes = (
"380 452 LINE",
"454 539 LINE",
"404 580 LINE",
"333 495 LINE"
);
}
);
width = 510;
}
);
unicode = 00A4;
},
{
color = 3;
glyphname = yen;
layers = (
{
components = (
{
name = Y;
transform = "{1, 0, 0, 1, -21, 0}";
}
);
layerId = "765B86F4-5B75-49D9-B08E-C73D0440621F";
name = Regular;
paths = (
{
closed = 1;
nodes = (
"485 266 LINE",
"479 297 LINE",
"145 297 LINE",
"102 268 LINE",
"108 237 LINE",
"442 237 LINE"
);
},
{
closed = 1;
nodes = (
"485 146 LINE",
"479 177 LINE",
"145 177 LINE",
"102 148 LINE",
"108 117 LINE",
"442 117 LINE"
);
}
);
width = 619;
}
);
leftMetricsKey = y;
rightMetricsKey = Y;
unicode = 00A5;
},
{
color = 3;
glyphname = brokenbar;
layers = (
{
layerId = "765B86F4-5B75-49D9-B08E-C73D0440621F";
name = Regular;
paths = (
{
closed = 1;
nodes = (
"197 358 LINE",
"197 616 LINE",
"103 616 LINE",
"103 358 LINE"
);
},
{
closed = 1;
nodes = (
"197 -76 LINE",
"197 182 LINE",
"103 182 LINE",
"103 -76 LINE"
);
}
);
width = 303;
}
);
leftMetricsKey = bar;
rightMetricsKey = bar;
unicode = 00A6;
},
{
color = 3;
glyphname = section;
layers = (
{
layerId = "765B86F4-5B75-49D9-B08E-C73D0440621F";
name = Regular;
paths = (
{
closed = 1;
nodes = (
"461 532 OFFCURVE",
"464 602 OFFCURVE",
"460 638 CURVE",
"356 605 LINE",
"384 475 LINE",
"449 474 LINE"
);
},
{
closed = 1;
nodes = (
"383 106 LINE",
"450 145 OFFCURVE",
"485 185 OFFCURVE",
"485 243 CURVE SMOOTH",
"485 343 OFFCURVE",
"381 384 OFFCURVE",
"308 414 CURVE SMOOTH",
"224 447 OFFCURVE",
"173 465 OFFCURVE",
"173 516 CURVE SMOOTH",
"173 544 OFFCURVE",
"189 574 OFFCURVE",
"214 593 CURVE",
"300 611 OFFCURVE",
"375 586 OFFCURVE",
"420 541 CURVE",
"460 638 LINE",
"417 654 OFFCURVE",
"355 670 OFFCURVE",
"294 670 CURVE SMOOTH",
"172 670 OFFCURVE",
"68 606 OFFCURVE",
"68 504 CURVE SMOOTH",
"68 420 OFFCURVE",
"138 375 OFFCURVE",
"236 336 CURVE SMOOTH",
"313 306 OFFCURVE",
"389 285 OFFCURVE",
"389 218 CURVE SMOOTH",
"389 190 OFFCURVE",
"375 172 OFFCURVE",
"343 146 CURVE"
);
},
{
closed = 1;
nodes = (
"169 413 LINE",
"110 385 OFFCURVE",
"59 335 OFFCURVE",
"59 266 CURVE SMOOTH",
"59 180 OFFCURVE",
"141 138 OFFCURVE",
"227 103 CURVE SMOOTH",
"304 72 OFFCURVE",
"376 56 OFFCURVE",
"376 -1 CURVE SMOOTH",
"376 -21 OFFCURVE",
"367 -42 OFFCURVE",
"348 -60 CURVE",
"283 -69 OFFCURVE",
"187 -39 OFFCURVE",
"116 10 CURVE",
"69 -88 LINE",
"130 -131 OFFCURVE",
"216 -148 OFFCURVE",
"272 -148 CURVE SMOOTH",
"381 -148 OFFCURVE",
"471 -82 OFFCURVE",
"471 14 CURVE SMOOTH",
"471 95 OFFCURVE",
"409 139 OFFCURVE",
"296 182 CURVE SMOOTH",
"213 213 OFFCURVE",
"152 233 OFFCURVE",
"152 287 CURVE SMOOTH",
"152 317 OFFCURVE",
"170 343 OFFCURVE",
"200 365 CURVE"
);
}
);
width = 526;
}
);
leftMetricsKey = S;
rightMetricsKey = S;
unicode = 00A7;
},
{
color = 3;
glyphname = copyright;
layers = (
{
layerId = "765B86F4-5B75-49D9-B08E-C73D0440621F";
name = Regular;
paths = (
{
closed = 1;
nodes = (
"608 -21 OFFCURVE",
"761 137 OFFCURVE",
"761 332 CURVE SMOOTH",
"761 530 OFFCURVE",
"601 688 OFFCURVE",
"405 688 CURVE SMOOTH",
"210 688 OFFCURVE",
"52 531 OFFCURVE",
"52 331 CURVE SMOOTH",
"52 131 OFFCURVE",
"211 -21 OFFCURVE",
"407 -21 CURVE SMOOTH"
);
},
{
closed = 1;
nodes = (
"247 46 OFFCURVE",
"119 168 OFFCURVE",
"119 331 CURVE SMOOTH",
"119 493 OFFCURVE",
"248 621 OFFCURVE",
"407 621 CURVE SMOOTH",
"566 621 OFFCURVE",
"694 492 OFFCURVE",
"694 334 CURVE SMOOTH",
"694 175 OFFCURVE",
"567 46 OFFCURVE",
"405 46 CURVE SMOOTH"
);
},
{
closed = 1;
nodes = (
"546 238 LINE",
"508 222 OFFCURVE",
"477 214 OFFCURVE",
"447 214 CURVE SMOOTH",
"360 214 OFFCURVE",
"315 275 OFFCURVE",
"315 344 CURVE SMOOTH",
"315 387 OFFCURVE",
"333 434 OFFCURVE",
"370 467 CURVE",
"426 459 OFFCURVE",
"465 432 OFFCURVE",
"498 389 CURVE",
"574 445 LINE",
"535 507 OFFCURVE",
"480 529 OFFCURVE",
"419 529 CURVE SMOOTH",
"295 529 OFFCURVE",
"221 435 OFFCURVE",
"221 329 CURVE SMOOTH",
"221 221 OFFCURVE",
"299 132 OFFCURVE",
"430 134 CURVE",
"563 195 LINE"
);
}
);
width = 815;
}
);
unicode = 00A9;
},
{
color = 3;
glyphname = ordfeminine;
layers = (
{
layerId = "765B86F4-5B75-49D9-B08E-C73D0440621F";
name = Regular;
paths = (
{
closed = 1;
nodes = (
"58 424 OFFCURVE",
"47 396 OFFCURVE",
"47 373 CURVE SMOOTH",
"47 327 OFFCURVE",
"86 287 OFFCURVE",
"161 293 CURVE",
"243 346 LINE",
"239 372 LINE",
"220 363 OFFCURVE",
"173 348 OFFCURVE",
"141 347 CURVE",
"133 354 OFFCURVE",
"128 362 OFFCURVE",
"128 374 CURVE SMOOTH",
"128 415 OFFCURVE",
"188 414 OFFCURVE",
"226 412 CURVE SMOOTH",
"243 410 LINE",
"245 451 LINE",
"91 447 LINE"
);
},
{
closed = 1;
nodes = (
"59 554 OFFCURVE",
"64 518 OFFCURVE",
"73 492 CURVE",
"125 496 LINE",
"133 569 LINE",
"147 573 OFFCURVE",
"168 575 OFFCURVE",
"196 576 CURVE",
"216 566 OFFCURVE",
"228 544 OFFCURVE",
"228 508 CURVE SMOOTH",
"228 354 LINE",
"231 348 LINE",
"241 317 OFFCURVE",
"272 293 OFFCURVE",
"293 292 CURVE",
"371 332 LINE",
"364 361 LINE",
"352 359 OFFCURVE",
"342 357 OFFCURVE",
"331 357 CURVE SMOOTH",
"321 357 OFFCURVE",
"315 362 OFFCURVE",
"315 372 CURVE",
"315 503 LINE SMOOTH",
"315 546 OFFCURVE",
"314 557 OFFCURVE",
"308 570 CURVE SMOOTH",
"293 595 OFFCURVE",
"261 626 OFFCURVE",
"223 627 CURVE SMOOTH",
"184 627 OFFCURVE",
"97 607 OFFCURVE",
"60 580 CURVE"
);
},
{
closed = 1;
nodes = (
"30 255 LINE",
"30 200 LINE",
"386 200 LINE",
"386 255 LINE"
);
}
);
width = 416;
}
);
unicode = 00AA;
},
{
color = 3;
glyphname = guillemetleft;
layers = (
{
layerId = "765B86F4-5B75-49D9-B08E-C73D0440621F";
name = Regular;
paths = (
{
closed = 1;
nodes = (
"58 227 LINE",
"207 42 LINE",
"273 86 LINE",
"178 253 LINE",
"268 429 LINE",
"203 467 LINE",
"58 280 LINE"
);
},
{
closed = 1;
nodes = (
"271 227 LINE",
"420 42 LINE",
"486 86 LINE",
"391 253 LINE",
"481 429 LINE",
"416 467 LINE",
"271 280 LINE"
);
}
);
width = 544;
}
);
leftMetricsKey = guilsinglleft;
rightMetricsKey = guilsinglleft;
unicode = 00AB;
},
{
color = 3;
glyphname = logicalnot;
layers = (
{
layerId = "765B86F4-5B75-49D9-B08E-C73D0440621F";
name = Regular;
paths = (
{
closed = 1;
nodes = (
"58 269 LINE",
"58 192 LINE",
"534 192 LINE",
"534 269 LINE"
);
},
{
closed = 1;
nodes = (
"534 269 LINE",
"447 269 LINE",
"447 0 LINE",
"534 0 LINE"
);
}
);
width = 592;
}
);
leftMetricsKey = minus;
rightMetricsKey = minus;
unicode = 00AC;
},
{
color = 3;
glyphname = softhyphen;
layers = (
{
layerId = "765B86F4-5B75-49D9-B08E-C73D0440621F";
name = Regular;
paths = (
{
closed = 1;
nodes = (
"340 240 LINE",
"353 267 LINE",
"315 331 LINE",
"44 331 LINE",
"31 303 LINE",
"70 240 LINE"
);
}
);
width = 390;
}
);
unicode = 00AD;
},
{
color = 3;
glyphname = registered;
layers = (
{
layerId = "765B86F4-5B75-49D9-B08E-C73D0440621F";
name = Regular;
paths = (
{
closed = 1;
nodes = (
"557 659 OFFCURVE",
"443 771 OFFCURVE",
"287 771 CURVE SMOOTH",
"131 771 OFFCURVE",
"15 661 OFFCURVE",
"15 504 CURVE SMOOTH",
"15 351 OFFCURVE",
"124 237 OFFCURVE",
"284 237 CURVE SMOOTH",
"444 237 OFFCURVE",
"557 349 OFFCURVE",
"557 504 CURVE SMOOTH"
);
},
{
closed = 1;
nodes = (
"509 371 OFFCURVE",
"414 284 OFFCURVE",
"282 284 CURVE SMOOTH",
"148 284 OFFCURVE",
"63 372 OFFCURVE",
"63 500 CURVE SMOOTH",
"63 633 OFFCURVE",
"155 726 OFFCURVE",
"286 726 CURVE SMOOTH",
"417 726 OFFCURVE",
"509 634 OFFCURVE",
"509 503 CURVE SMOOTH"
);
},
{
closed = 1;
nodes = (
"144 648 LINE",
"144 619 LINE",
"203 614 LINE",
"202 648 LINE"
);
},
{
closed = 1;
nodes = (
"180 375 LINE",
"243 375 LINE",
"243 648 LINE",
"180 648 LINE"
);
},
{
closed = 1;
nodes = (
"332 600 OFFCURVE",
"342 581 OFFCURVE",
"342 562 CURVE SMOOTH",
"342 535 OFFCURVE",
"324 513 OFFCURVE",
"265 513 CURVE SMOOTH",
"247 513 OFFCURVE",
"237 515 OFFCURVE",
"224 518 CURVE",
"222 476 LINE",
"288 476 LINE SMOOTH",
"374 476 OFFCURVE",
"409 520 OFFCURVE",
"409 563 CURVE SMOOTH",
"409 609 OFFCURVE",
"367 648 OFFCURVE",
"288 648 CURVE",
"223 648 LINE",
"232 606 LINE",
"303 613 LINE"
);
},
{
closed = 1;
nodes = (
"195 416 OFFCURVE",
"156 404 OFFCURVE",
"140 395 CURVE",
"144 375 LINE",
"190 375 LINE",
"198 417 LINE"
);
},
{
closed = 1;
nodes = (
"221 375 LINE",
"287 375 LINE",
"288 402 LINE",
"223 408 LINE"
);
},
{
closed = 1;
nodes = (
"272 502 LINE",
"347 375 LINE",
"422 375 LINE",
"335 507 LINE"
);
},
{
closed = 1;
nodes = (
"367 375 LINE",
"433 375 LINE",
"434 402 LINE",
"369 408 LINE"
);
}
);
width = 571;
}
);
unicode = 00AE;
},
{
color = 3;
glyphname = degree;
layers = (
{
layerId = "765B86F4-5B75-49D9-B08E-C73D0440621F";
name = Regular;
paths = (
{
closed = 1;
nodes = (
"192 434 OFFCURVE",
"181 433 OFFCURVE",
"172 433 CURVE SMOOTH",
"123 433 OFFCURVE",
"97 474 OFFCURVE",
"97 515 CURVE SMOOTH",
"97 537 OFFCURVE",
"104 559 OFFCURVE",
"118 576 CURVE",
"132 581 OFFCURVE",
"144 584 OFFCURVE",
"156 584 CURVE SMOOTH",
"201 584 OFFCURVE",
"229 542 OFFCURVE",
"229 500 CURVE SMOOTH",
"229 477 OFFCURVE",
"221 454 OFFCURVE",
"203 438 CURVE"
);
},
{
closed = 1;
nodes = (
"30 429 OFFCURVE",
"93 376 OFFCURVE",
"167 376 CURVE SMOOTH",
"243 376 OFFCURVE",
"298 428 OFFCURVE",
"298 509 CURVE SMOOTH",
"298 585 OFFCURVE",
"239 644 OFFCURVE",
"163 644 CURVE SMOOTH",
"88 644 OFFCURVE",
"30 585 OFFCURVE",
"30 509 CURVE SMOOTH"
);
}
);
width = 358;
}
);
unicode = 00B0;
},
{
color = 3;
glyphname = plusminus;
layers = (
{
layerId = "765B86F4-5B75-49D9-B08E-C73D0440621F";
name = Regular;
paths = (
{
closed = 1;
nodes = (
"313 400 LINE",
"313 579 LINE",
"226 579 LINE",
"226 400 LINE",
"58 400 LINE",
"58 326 LINE",
"226 326 LINE",
"226 145 LINE",
"313 145 LINE",
"313 326 LINE",
"481 326 LINE",
"481 400 LINE"
);
},
{
closed = 1;
nodes = (
"63 74 LINE",
"64 0 LINE",
"473 0 LINE",
"473 74 LINE"
);
}
);
width = 539;
}
);
leftMetricsKey = minus;
rightMetricsKey = minus;
unicode = 00B1;
},
{
color = 3;
glyphname = twosuperior;
layers = (
{
layerId = "765B86F4-5B75-49D9-B08E-C73D0440621F";
name = Regular;
paths = (
{
closed = 1;
nodes = (
"81 622 LINE",
"104 711 LINE",
"27 715 LINE",
"25 690 OFFCURVE",
"29 647 OFFCURVE",
"35 622 CURVE"
);
},
{
closed = 1;
nodes = (
"38 423 LINE",
"256 423 LINE",
"269 501 LINE",
"120 476 LINE",
"117 483 LINE",
"207 546 OFFCURVE",
"255 600 OFFCURVE",
"255 653 CURVE SMOOTH",
"255 702 OFFCURVE",
"214 751 OFFCURVE",
"139 751 CURVE SMOOTH",
"98 751 OFFCURVE",
"59 736 OFFCURVE",
"27 715 CURVE",
"67 695 LINE",
"86 704 OFFCURVE",
"109 708 OFFCURVE",
"122 708 CURVE SMOOTH",
"152 708 OFFCURVE",
"177 687 OFFCURVE",
"177 652 CURVE SMOOTH",
"177 633 OFFCURVE",
"168 605 OFFCURVE",
"107 546 CURVE SMOOTH",
"22 464 LINE"
);
}
);
width = 293;
}
);
unicode = 00B2;
},
{
color = 3;
glyphname = threesuperior;
layers = (
{
layerId = "765B86F4-5B75-49D9-B08E-C73D0440621F";
name = Regular;
paths = (
{
closed = 1;
nodes = (
"123 721 LINE",
"43 721 LINE",
"41 697 OFFCURVE",
"43 664 OFFCURVE",
"49 640 CURVE",
"89 640 LINE"
);
},
{
closed = 1;
nodes = (
"98 599 LINE",
"100 556 LINE",
"200 587 LINE",
"200 591 LINE",
"241 604 OFFCURVE",
"257 638 OFFCURVE",
"257 666 CURVE SMOOTH",
"257 714 OFFCURVE",
"210 751 OFFCURVE",
"148 751 CURVE SMOOTH",
"112 751 OFFCURVE",
"69 739 OFFCURVE",
"43 721 CURVE",
"61 693 LINE",
"81 704 OFFCURVE",
"104 709 OFFCURVE",
"123 709 CURVE SMOOTH",
"158 709 OFFCURVE",
"183 689 OFFCURVE",
"183 659 CURVE SMOOTH",
"183 635 OFFCURVE",
"165 599 OFFCURVE",
"105 599 CURVE SMOOTH"
);
},
{
closed = 1;
nodes = (
"30 440 LINE",
"68 422 OFFCURVE",
"112 413 OFFCURVE",
"148 413 CURVE SMOOTH",
"214 413 OFFCURVE",
"273 444 OFFCURVE",
"273 505 CURVE SMOOTH",
"273 559 OFFCURVE",
"229 596 OFFCURVE",
"176 590 CURVE",
"184 600 LINE",
"98 599 LINE",
"91 599 LINE",
"91 555 LINE",
"124 555 LINE SMOOTH",
"174 555 OFFCURVE",
"198 528 OFFCURVE",
"198 500 CURVE SMOOTH",
"198 486 OFFCURVE",
"192 472 OFFCURVE",
"178 463 CURVE",
"141 465 OFFCURVE",
"90 487 OFFCURVE",
"51 512 CURVE"
);
}
);
width = 302;
}
);
unicode = 00B3;
},
{
color = 3;
glyphname = foursuperior;
layers = (
{
layerId = "765B86F4-5B75-49D9-B08E-C73D0440621F";
name = Regular;
paths = (
{
closed = 1;
nodes = (
"63 521 LINE",
"187 704 LINE",
"198 690 LINE",
"200 740 LINE",
"163 751 LINE",
"3 532 LINE",
"17 496 LINE",
"266 496 LINE",
"281 516 LINE",
"281 546 LINE",
"42 543 LINE"
);
},
{
closed = 1;
nodes = (
"150 423 LINE",
"225 423 LINE",
"225 739 LINE",
"162 751 LINE",
"169 700 LINE",
"150 615 LINE"
);
},
{
closed = 1;
nodes = (
"264 423 LINE",
"265 450 LINE",
"199 461 LINE",
"198 423 LINE"
);
},
{
closed = 1;
nodes = (
"163 423 LINE",
"167 467 LINE",
"142 460 OFFCURVE",
"113 451 OFFCURVE",
"92 439 CURVE",
"95 423 LINE"
);
}
);
width = 301;
}
);
unicode = 2074;
},
{
color = 3;
glyphname = micro;
layers = (
{
layerId = "765B86F4-5B75-49D9-B08E-C73D0440621F";
name = Regular;
paths = (
{
closed = 1;
nodes = (
"525 81 OFFCURVE",
"508 77 OFFCURVE",
"494 77 CURVE SMOOTH",
"478 77 OFFCURVE",
"468 83 OFFCURVE",
"468 98 CURVE",
"468 490 LINE",
"421 490 OFFCURVE",
"371 477 OFFCURVE",
"351 470 CURVE",
"351 81 LINE",
"356 70 LINE",
"369 26 OFFCURVE",
"414 -14 OFFCURVE",
"442 -16 CURVE",
"553 40 LINE",
"541 84 LINE"
);
},
{
closed = 1;
nodes = (
"56 -226 LINE",
"107 -233 OFFCURVE",
"159 -220 OFFCURVE",
"181 -200 CURVE",
"121 32 LINE",
"138 6 OFFCURVE",
"163 -14 OFFCURVE",
"178 -15 CURVE",
"225 -7 OFFCURVE",
"328 33 OFFCURVE",
"418 104 CURVE",
"405 142 LINE",
"360 113 OFFCURVE",
"297 77 OFFCURVE",
"247 76 CURVE SMOOTH",
"203 76 OFFCURVE",
"173 100 OFFCURVE",
"173 169 CURVE SMOOTH",
"173 490 LINE",
"126 490 OFFCURVE",
"76 477 OFFCURVE",
"56 470 CURVE"
);
},
{
closed = 1;
nodes = (
"89 22 LINE",
"161 22 LINE",
"161 63 LINE",
"89 63 LINE"
);
}
);
width = 562;
}
);
rightMetricsKey = u;
unicode = 00B5;
},
{
color = 3;
glyphname = paragraph;
layers = (
{
layerId = "765B86F4-5B75-49D9-B08E-C73D0440621F";
name = Regular;
paths = (
{
closed = 1;
nodes = (
"303 686 LINE",
"94 699 OFFCURVE",
"0 589 OFFCURVE",
"0 480 CURVE SMOOTH",
"0 394 OFFCURVE",
"59 311 OFFCURVE",
"166 277 CURVE",
"204 314 LINE",
"169 361 OFFCURVE",
"153 396 OFFCURVE",
"153 444 CURVE SMOOTH",
"153 563 OFFCURVE",
"250 609 OFFCURVE",
"380 600 CURVE SMOOTH",
"589 585 LINE",
"596 646 LINE"
);
},
{
closed = 1;
nodes = (
"289 -165 LINE",
"289 -89 LINE",
"289 -89 OFFCURVE",
"207 -106 OFFCURVE",
"159 -128 CURVE",
"165 -165 LINE"
);
},
{
closed = 1;
nodes = (
"603 -165 LINE",
"604 -117 LINE",
"466 -101 LINE",
"463 -165 LINE"
);
},
{
closed = 1;
nodes = (
"275 -165 LINE",
"355 -165 LINE",
"355 609 LINE",
"275 609 LINE"
);
},
{
closed = 1;
nodes = (
"432 -165 LINE",
"512 -165 LINE",
"512 609 LINE",
"432 609 LINE"
);
}
);
width = 638;
}
);
rightMetricsKey = l;
unicode = 00B6;
},
{
color = 3;
glyphname = periodcentered;
layers = (
{
layerId = "765B86F4-5B75-49D9-B08E-C73D0440621F";
name = Regular;
paths = (
{
closed = 1;
nodes = (
"137 205 OFFCURVE",
"163 239 OFFCURVE",
"174 268 CURVE",
"158 289 OFFCURVE",
"125 320 OFFCURVE",
"96 331 CURVE",
"71 317 OFFCURVE",
"46 283 OFFCURVE",
"30 251 CURVE",
"47 227 OFFCURVE",
"86 198 OFFCURVE",
"111 188 CURVE"
);
}
);
width = 227;
}
);
unicode = 00B7;
},
{
color = 3;
glyphname = onesuperior;
layers = (
{
layerId = "765B86F4-5B75-49D9-B08E-C73D0440621F";
name = Regular;
paths = (
{
closed = 1;
nodes = (
"123 687 LINE",
"133 730 LINE",
"125 749 LINE",
"4 677 LINE",
"20 646 LINE"
);
},
{
closed = 1;
nodes = (
"160 726 LINE",
"124 749 LINE",
"114 713 LINE"
);
},
{
closed = 1;
nodes = (
"83 423 LINE",
"161 423 LINE",
"161 726 LINE",
"83 718 LINE"
);
},
{
closed = 1;
nodes = (
"93 423 LINE",
"96 468 LINE",
"71 463 OFFCURVE",
"39 451 OFFCURVE",
"20 439 CURVE",
"23 423 LINE"
);
},
{
closed = 1;
nodes = (
"217 423 LINE",
"218 449 LINE",
"150 463 LINE",
"149 423 LINE"
);
}
);
width = 245;
}
);
unicode = 00B9;
},
{
color = 3;
glyphname = ordmasculine;
layers = (
{
layerId = "765B86F4-5B75-49D9-B08E-C73D0440621F";
name = Regular;
paths = (
{
closed = 1;
nodes = (
"35 354 OFFCURVE",
"106 286 OFFCURVE",
"196 286 CURVE SMOOTH",
"277 286 OFFCURVE",
"355 342 OFFCURVE",
"355 454 CURVE SMOOTH",
"355 565 OFFCURVE",
"278 630 OFFCURVE",
"198 630 CURVE SMOOTH",
"119 630 OFFCURVE",
"35 569 OFFCURVE",
"35 457 CURVE SMOOTH"
);
},
{
closed = 1;
nodes = (
"224 341 OFFCURVE",
"215 340 OFFCURVE",
"207 340 CURVE SMOOTH",
"147 340 OFFCURVE",
"124 394 OFFCURVE",
"124 460 CURVE SMOOTH",
"124 510 OFFCURVE",
"138 556 OFFCURVE",
"156 568 CURVE",
"164 572 OFFCURVE",
"172 574 OFFCURVE",
"183 574 CURVE SMOOTH",
"247 574 OFFCURVE",
"265 500 OFFCURVE",
"265 440 CURVE SMOOTH",
"265 378 OFFCURVE",
"244 348 OFFCURVE",
"234 343 CURVE"
);
},
{
closed = 1;
nodes = (
"19 255 LINE",
"19 200 LINE",
"373 200 LINE",
"373 255 LINE"
);
}
);
width = 421;
}
);
unicode = 00BA;
},
{
color = 3;
glyphname = guillemetright;
layers = (
{
layerId = "765B86F4-5B75-49D9-B08E-C73D0440621F";
name = Regular;
paths = (
{
closed = 1;
nodes = (
"486 280 LINE",
"342 467 LINE",
"277 429 LINE",
"367 253 LINE",
"271 86 LINE",
"337 42 LINE",
"486 227 LINE"
);
},
{
closed = 1;
nodes = (
"273 280 LINE",
"129 467 LINE",
"64 429 LINE",
"154 253 LINE",
"58 86 LINE",
"124 42 LINE",
"273 227 LINE"
);
}
);
width = 544;
}
);
leftMetricsKey = "=|";
rightMetricsKey = "=|guillemetleft";
unicode = 00BB;
},
{
color = 3;
glyphname = AE;
layers = (
{
anchors = (
{
name = top;
position = "{536, 650}";
}
);
layerId = "765B86F4-5B75-49D9-B08E-C73D0440621F";
name = Regular;
paths = (
{
closed = 1;
nodes = (
"321 654 LINE",
"320 604 LINE",
"425 594 LINE",
"485 654 LINE"
);
},
{
closed = 1;
nodes = (
"871 654 LINE",
"472 654 LINE",
"547 582 LINE",
"855 567 LINE"
);
},
{
closed = 1;
nodes = (
"408 649 LINE",
"61 0 LINE",
"154 0 LINE",
"477 624 LINE"
);
},
{
closed = 1;
nodes = (
"454 654 LINE",
"454 0 LINE",
"574 0 LINE",
"574 654 LINE"
);
},
{
closed = 1;
nodes = (
"241 260 LINE",
"241 191 LINE",
"543 191 LINE",
"543 260 LINE"
);
},
{
closed = 1;
nodes = (
"97 72 OFFCURVE",
"33 51 OFFCURVE",
"6 35 CURVE",
"12 0 LINE",
"106 0 LINE",
"105 76 LINE"
);
},
{
closed = 1;
nodes = (
"137 0 LINE",
"277 0 LINE",
"278 49 LINE",
"140 67 LINE"
);
},
{
closed = 1;
nodes = (
"460 72 OFFCURVE",
"396 51 OFFCURVE",
"369 35 CURVE",
"375 0 LINE",
"469 0 LINE",
"468 76 LINE"
);
},
{
closed = 1;
nodes = (
"549 75 LINE",
"474 0 LINE",
"865 0 LINE",
"855 90 LINE"
);
},
{
closed = 1;
nodes = (
"558 358 LINE",
"558 293 LINE",
"798 283 LINE",
"798 377 LINE"
);
},
{
closed = 1;
nodes = (
"768 32 LINE",
"869 0 LINE",
"877 48 OFFCURVE",
"883 134 OFFCURVE",
"881 189 CURVE",
"813 194 LINE"
);
},
{
closed = 1;
nodes = (
"859 477 LINE",
"871 540 OFFCURVE",
"875 618 OFFCURVE",
"872 654 CURVE",
"768 618 LINE",
"790 477 LINE"
);
}
);
width = 927;
}
);
leftKerningGroup = A;
leftMetricsKey = A;
rightKerningGroup = E;
rightMetricsKey = E;
unicode = 00C6;
},
{
color = 3;
glyphname = multiply;
layers = (
{
layerId = "765B86F4-5B75-49D9-B08E-C73D0440621F";
name = Regular;
paths = (
{
closed = 1;
nodes = (
"284 294 LINE",
"130 456 LINE",
"70 402 LINE",
"228 238 LINE",
"72 77 LINE",
"129 21 LINE",
"283 183 LINE",
"436 21 LINE",
"494 77 LINE",
"337 239 LINE",
"496 403 LINE",
"437 457 LINE"
);
}
);
width = 566;
}
);
unicode = 00D7;
},
{
color = 3;
glyphname = Oslash;
layers = (
{
components = (
{
name = O;
}
);
layerId = "765B86F4-5B75-49D9-B08E-C73D0440621F";
name = Regular;
paths = (
{
closed = 1;
nodes = (
"178 -84 LINE",
"590 696 LINE",
"525 735 LINE",
"112 -48 LINE"
);
}
);
width = 697;
}
);
leftKerningGroup = O;
leftMetricsKey = O;
rightKerningGroup = O;
rightMetricsKey = O;
unicode = 00D8;
},
{
color = 3;
glyphname = Thorn;
layers = (
{
layerId = "765B86F4-5B75-49D9-B08E-C73D0440621F";
name = Regular;
paths = (
{
closed = 1;
nodes = (
"38 650 LINE",
"37 601 LINE",
"175 583 LINE",
"178 650 LINE"
);
},
{
closed = 1;
nodes = (
"229 650 LINE",
"230 575 LINE",
"238 579 OFFCURVE",
"302 600 OFFCURVE",
"329 616 CURVE",
"323 650 LINE"
);
},
{
closed = 1;
nodes = (
"240 0 LINE",
"240 650 LINE",
"118 650 LINE",
"118 0 LINE"
);
},
{
closed = 1;
nodes = (
"129 0 LINE",
"128 76 LINE",
"120 72 OFFCURVE",
"56 51 OFFCURVE",
"29 35 CURVE",
"35 0 LINE"
);
},
{
closed = 1;
nodes = (
"334 0 LINE",
"335 49 LINE",
"197 67 LINE",
"194 0 LINE"
);
},
{
closed = 1;
nodes = (
"491 152 OFFCURVE",
"574 239 OFFCURVE",
"574 334 CURVE SMOOTH",
"574 423 OFFCURVE",
"500 519 OFFCURVE",
"339 519 CURVE SMOOTH",
"184 519 LINE",
"218 427 LINE",
"375 453 LINE",
"424 426 OFFCURVE",
"447 382 OFFCURVE",
"447 335 CURVE SMOOTH",
"447 275 OFFCURVE",
"408 222 OFFCURVE",
"294 222 CURVE SMOOTH",
"253 222 OFFCURVE",
"227 229 OFFCURVE",
"196 235 CURVE",
"193 151 LINE",
"327 151 LINE SMOOTH"
);
}
);
width = 609;
}
);
leftKerningGroup = I;
leftMetricsKey = I;
rightMetricsKey = P;
unicode = 00DE;
},
{
color = 3;
glyphname = germandbls;
layers = (
{
layerId = "765B86F4-5B75-49D9-B08E-C73D0440621F";
name = Regular;
paths = (
{
closed = 1;
nodes = (
"194 686 OFFCURVE",
"83 629 OFFCURVE",
"83 479 CURVE SMOOTH",
"83 0 LINE",
"198 0 LINE",
"198 435 LINE",
"188 579 LINE",
"234 610 OFFCURVE",
"303 611 OFFCURVE",
"340 599 CURVE",
"408 507 OFFCURVE",
"312 410 OFFCURVE",
"267 330 CURVE",
"271 229 OFFCURVE",
"445 205 OFFCURVE",
"445 113 CURVE SMOOTH",
"445 95 OFFCURVE",
"438 77 OFFCURVE",
"425 59 CURVE",
"372 68 OFFCURVE",
"319 98 OFFCURVE",
"287 121 CURVE",
"248 17 LINE",
"292 -4 OFFCURVE",
"342 -17 OFFCURVE",
"387 -17 CURVE SMOOTH",
"481 -17 OFFCURVE",
"557 36 OFFCURVE",
"557 126 CURVE SMOOTH",
"557 261 OFFCURVE",
"386 287 OFFCURVE",
"363 360 CURVE",
"442 409 OFFCURVE",
"475 461 OFFCURVE",
"475 517 CURVE SMOOTH",
"475 603 OFFCURVE",
"396 686 OFFCURVE",
"282 686 CURVE SMOOTH"
);
},
{
closed = 1;
nodes = (
"135 381 LINE",
"168 438 LINE",
"131 474 LINE",
"91 466 OFFCURVE",
"50 453 OFFCURVE",
"10 430 CURVE",
"15 379 LINE"
);
},
{
closed = 1;
nodes = (
"107 0 LINE",
"120 72 LINE",
"90 65 OFFCURVE",
"42 49 OFFCURVE",
"13 34 CURVE",
"17 0 LINE"
);
}
);
width = 578;
}
);
leftKerningGroup = f;
leftMetricsKey = f;
unicode = 00DF;
},
{
color = 3;
glyphname = ae;
layers = (
{
anchors = (
{
name = bottom;
position = "{419, 0}";
},
{
name = ogonek;
position = "{563, 41}";
},
{
name = top;
position = "{419, 375}";
}
);
layerId = "765B86F4-5B75-49D9-B08E-C73D0440621F";
name = Regular;
paths = (
{
closed = 1;
nodes = (
"62 383 OFFCURVE",
"69 336 OFFCURVE",
"86 299 CURVE",
"156 301 LINE",
"169 407 LINE",
"192 414 OFFCURVE",
"231 421 OFFCURVE",
"263 422 CURVE",
"295 406 OFFCURVE",
"311 380 OFFCURVE",
"311 317 CURVE SMOOTH",
"311 194 LINE",
"377 168 LINE",
"411 414 LINE",
"393 447 OFFCURVE",
"347 494 OFFCURVE",
"302 495 CURVE SMOOTH",
"249 495 OFFCURVE",
"131 461 OFFCURVE",
"63 428 CURVE"
);
},
{
closed = 1;
nodes = (
"64 190 OFFCURVE",
"43 146 OFFCURVE",
"43 107 CURVE SMOOTH",
"43 46 OFFCURVE",
"96 -28 OFFCURVE",
"210 -14 CURVE",
"369 70 LINE",
"364 118 LINE",
"334 105 OFFCURVE",
"237 66 OFFCURVE",
"186 66 CURVE",
"170 77 OFFCURVE",
"163 94 OFFCURVE",
"163 111 CURVE SMOOTH",
"163 168 OFFCURVE",
"249 173 OFFCURVE",
"314 168 CURVE",
"334 167 LINE",
"337 224 LINE",
"117 218 LINE"
);
},
{
closed = 1;
nodes = (
"405 252 LINE",
"681 248 LINE",
"739 304 LINE",
"704 326 LINE",
"401 310 LINE"
);
},
{
closed = 1;
nodes = (
"714 107 LINE",
"668 86 OFFCURVE",
"628 73 OFFCURVE",
"583 73 CURVE SMOOTH",
"496 73 OFFCURVE",
"424 121 OFFCURVE",
"424 251 CURVE SMOOTH",
"424 326 OFFCURVE",
"448 391 OFFCURVE",
"506 424 CURVE",
"585 427 OFFCURVE",
"642 357 OFFCURVE",
"632 276 CURVE",
"741 304 LINE",
"743 423 OFFCURVE",
"651 492 OFFCURVE",
"549 492 CURVE SMOOTH",
"486 492 OFFCURVE",
"431 466 OFFCURVE",
"391 425 CURVE",
"357 232 LINE",
"311 229 LINE",
"311 90 OFFCURVE",
"412 -22 OFFCURVE",
"576 -14 CURVE",
"732 60 LINE"
);
}
);
width = 762;
}
);
leftKerningGroup = a;
leftMetricsKey = a;
rightKerningGroup = e;
rightMetricsKey = e;
unicode = 00E6;
},
{
color = 3;
glyphname = eth;
layers = (
{
layerId = "765B86F4-5B75-49D9-B08E-C73D0440621F";
name = Regular;
paths = (
{
closed = 1;
nodes = (
"191 719 LINE",
"276 614 OFFCURVE",
"313 538 OFFCURVE",
"350 433 CURVE",
"378 418 LINE",
"340 458 OFFCURVE",
"302 481 OFFCURVE",
"244 481 CURVE SMOOTH",
"119 481 OFFCURVE",
"19 378 OFFCURVE",
"19 233 CURVE SMOOTH",
"19 83 OFFCURVE",
"127 -25 OFFCURVE",
"257 -25 CURVE SMOOTH",
"386 -25 OFFCURVE",
"487 81 OFFCURVE",
"487 260 CURVE SMOOTH",
"487 398 OFFCURVE",
"424 600 OFFCURVE",
"277 766 CURVE"
);
},
{
closed = 1;
nodes = (
"189 44 OFFCURVE",
"136 139 OFFCURVE",
"136 231 CURVE SMOOTH",
"136 302 OFFCURVE",
"166 377 OFFCURVE",
"213 408 CURVE",
"284 406 OFFCURVE",
"334 374 OFFCURVE",
"395 314 CURVE",
"346 410 LINE",
"391 279 OFFCURVE",
"377 123 OFFCURVE",
"304 55 CURVE"
);
},
{
closed = 1;
nodes = (
"467 668 LINE",
"430 738 LINE",
"144 594 LINE",
"155 563 LINE",
"204 537 LINE"
);
}
);
width = 508;
}
);
leftKerningGroup = o;
leftMetricsKey = d;
unicode = 00F0;
},
{
color = 3;
glyphname = divide;
layers = (
{
layerId = "765B86F4-5B75-49D9-B08E-C73D0440621F";
name = Regular;
paths = (
{
closed = 1;
nodes = (
"58 278 LINE",
"58 201 LINE",
"542 201 LINE",
"542 278 LINE"
);
},
{
closed = 1;
nodes = (
"372 65 OFFCURVE",
"361 107 OFFCURVE",
"298 132 CURVE",
"288 127 OFFCURVE",
"237 101 OFFCURVE",
"230 44 CURVE",
"235 36 OFFCURVE",
"254 -9 OFFCURVE",
"311 -21 CURVE",
"359 1 OFFCURVE",
"372 47 OFFCURVE",
"375 56 CURVE"
);
},
{
closed = 1;
nodes = (
"373 430 OFFCURVE",
"362 472 OFFCURVE",
"299 498 CURVE",
"289 492 OFFCURVE",
"238 466 OFFCURVE",
"231 410 CURVE",
"236 401 OFFCURVE",
"255 357 OFFCURVE",
"312 345 CURVE",
"360 367 OFFCURVE",
"373 412 OFFCURVE",
"376 421 CURVE"
);
}
);
width = 600;
}
);
leftMetricsKey = minus;
rightMetricsKey = minus;
unicode = 00F7;
},
{
color = 3;
glyphname = oslash;
layers = (
{
anchors = (
{
name = top;
position = "{248, 468}";
}
);
layerId = "765B86F4-5B75-49D9-B08E-C73D0440621F";
name = Regular;
paths = (
{
closed = 1;
nodes = (
"106 -77 LINE",
"464 488 LINE",
"400 527 LINE",
"43 -35 LINE"
);
},
{
closed = 1;
nodes = (
"17 78 OFFCURVE",
"126 -20 OFFCURVE",
"254 -20 CURVE SMOOTH",
"376 -20 OFFCURVE",
"481 67 OFFCURVE",
"481 233 CURVE SMOOTH",
"481 398 OFFCURVE",
"377 492 OFFCURVE",
"251 492 CURVE SMOOTH",
"127 492 OFFCURVE",
"17 400 OFFCURVE",
"17 238 CURVE SMOOTH"
);
},
{
closed = 1;
nodes = (
"289 55 OFFCURVE",
"276 53 OFFCURVE",
"263 53 CURVE SMOOTH",
"176 53 OFFCURVE",
"139 144 OFFCURVE",
"139 245 CURVE SMOOTH",
"139 304 OFFCURVE",
"150 363 OFFCURVE",
"180 400 CURVE",
"195 411 OFFCURVE",
"218 419 OFFCURVE",
"244 419 CURVE SMOOTH",
"328 419 OFFCURVE",
"360 327 OFFCURVE",
"360 222 CURVE SMOOTH",
"360 164 OFFCURVE",
"352 92 OFFCURVE",
"305 60 CURVE"
);
}
);
width = 506;
}
);
leftKerningGroup = o;
leftMetricsKey = o;
rightKerningGroup = o;
rightMetricsKey = o;
unicode = 00F8;
},
{
color = 3;
glyphname = thorn;
layers = (
{
layerId = "765B86F4-5B75-49D9-B08E-C73D0440621F";
name = Regular;
paths = (
{
closed = 1;
nodes = (
"-12 654 LINE",
"93 648 LINE",
"148 695 LINE",
"140 736 LINE",
"87 734 OFFCURVE",
"26 721 OFFCURVE",
"-21 702 CURVE"
);
},
{
closed = 1;
nodes = (
"139 736 LINE",
"66 693 LINE",
"66 21 LINE",
"184 45 LINE",
"184 695 LINE"
);
},
{
closed = 1;
nodes = (
"67 -203 LINE",
"184 -203 LINE",
"184 447 LINE",
"140 487 LINE",
"67 445 LINE"
);
},
{
closed = 1;
nodes = (
"95 -203 LINE",
"108 -131 LINE",
"78 -141 OFFCURVE",
"30 -156 OFFCURVE",
"1 -170 CURVE",
"5 -203 LINE"
);
},
{
closed = 1;
nodes = (
"265 -203 LINE",
"269 -155 LINE",
"242 -142 OFFCURVE",
"200 -132 OFFCURVE",
"163 -124 CURVE",
"154 -203 LINE"
);
},
{
closed = 1;
nodes = (
"149 333 LINE",
"196 365 OFFCURVE",
"242 393 OFFCURVE",
"285 393 CURVE SMOOTH",
"355 393 OFFCURVE",
"400 316 OFFCURVE",
"400 231 CURVE SMOOTH",
"400 163 OFFCURVE",
"372 92 OFFCURVE",
"323 59 CURVE",
"230 45 OFFCURVE",
"165 87 OFFCURVE",
"143 121 CURVE",
"69 23 LINE",
"133 -4 OFFCURVE",
"196 -19 OFFCURVE",
"253 -19 CURVE SMOOTH",
"419 -19 OFFCURVE",
"522 103 OFFCURVE",
"522 254 CURVE SMOOTH",
"522 392 OFFCURVE",
"435 511 OFFCURVE",
"300 484 CURVE",
"140 377 LINE"
);
}
);
width = 544;
}
);
leftKerningGroup = b;
leftMetricsKey = b;
rightKerningGroup = o;
rightMetricsKey = p;
unicode = 00FE;
},
{
color = 3;
glyphname = Dcroat;
layers = (
{
components = (
{
name = D;
}
);
layerId = "765B86F4-5B75-49D9-B08E-C73D0440621F";
name = Regular;
paths = (
{
closed = 1;
nodes = (
"387 323 LINE",
"381 354 LINE",
"59 354 LINE",
"16 311 LINE",
"22 280 LINE",
"344 280 LINE"
);
}
);
width = 701;
}
);
leftKerningGroup = I;
rightKerningGroup = O;
rightMetricsKey = D;
unicode = 0110;
},
{
color = 3;
glyphname = dcroat;
layers = (
{
components = (
{
name = d;
}
);
layerId = "765B86F4-5B75-49D9-B08E-C73D0440621F";
name = Regular;
paths = (
{
closed = 1;
nodes = (
"563 571 LINE",
"557 602 LINE",
"264 602 LINE",
"221 574 LINE",
"227 543 LINE",
"520 543 LINE"
);
}
);
width = 565;
}
);
leftKerningGroup = o;
leftMetricsKey = d;
rightKerningGroup = l;
unicode = 0111;
},
{
color = 3;
glyphname = eogonek;
layers = (
{
components = (
{
name = e;
}
);
layerId = "765B86F4-5B75-49D9-B08E-C73D0440621F";
name = Regular;
paths = (
{
closed = 1;
nodes = (
"392 67 LINE",
"258 24 OFFCURVE",
"181 -53 OFFCURVE",
"181 -123 CURVE SMOOTH",
"181 -180 OFFCURVE",
"230 -235 OFFCURVE",
"310 -229 CURVE",
"429 -170 LINE",
"410 -128 LINE",
"321 -177 OFFCURVE",
"269 -147 OFFCURVE",
"269 -97 CURVE SMOOTH",
"269 -47 OFFCURVE",
"320 -2 OFFCURVE",
"393 36 CURVE SMOOTH",
"438 60 LINE"
);
}
);
width = 485;
}
);
leftKerningGroup = o;
leftMetricsKey = e;
rightKerningGroup = e;
unicode = 0119;
},
{
color = 3;
glyphname = Imacron;
layers = (
{
components = (
{
name = I;
transform = "{1, 0, 0, 1, 11, 0}";
}
);
layerId = "765B86F4-5B75-49D9-B08E-C73D0440621F";
name = Regular;
paths = (
{
closed = 1;
nodes = (
"113 800 OFFCURVE",
"70 795 OFFCURVE",
"31 775 CURVE",
"37 721 LINE",
"305 721 LINE",
"352 759 LINE",
"347 800 LINE",
"144 800 LINE"
);
}
);
width = 381;
}
);
leftKerningGroup = I;
leftMetricsKey = I;
rightKerningGroup = I;
rightMetricsKey = I;
unicode = 012A;
},
{
color = 3;
glyphname = imacron;
layers = (
{
components = (
{
name = dotlessi;
transform = "{1, 0, 0, 1, 21, 0}";
}
);
layerId = "765B86F4-5B75-49D9-B08E-C73D0440621F";
name = Regular;
paths = (
{
closed = 1;
nodes = (
"96 657 OFFCURVE",
"53 651 OFFCURVE",
"14 632 CURVE",
"20 578 LINE",
"263 578 LINE",
"310 616 LINE",
"305 657 LINE",
"127 657 LINE"
);
}
);
width = 329;
}
);
leftKerningGroup = n;
leftMetricsKey = i;
rightKerningGroup = i;
rightMetricsKey = i;
unicode = 012B;
},
{
color = 3;
glyphname = dotlessi;
layers = (
{
anchors = (
{
name = ogonek;
position = "{277, 10}";
},
{
name = top;
position = "{139, 468}";
}
);
layerId = "765B86F4-5B75-49D9-B08E-C73D0440621F";
name = Regular;
paths = (
{
closed = 1;
nodes = (
"123 404 LINE",
"177 447 LINE",
"169 487 LINE",
"117 485 OFFCURVE",
"58 473 OFFCURVE",
"12 454 CURVE",
"22 406 LINE"
);
},
{
closed = 1;
nodes = (
"97 0 LINE",
"214 0 LINE",
"214 447 LINE",
"169 487 LINE",
"97 445 LINE"
);
},
{
closed = 1;
nodes = (
"272 0 LINE",
"276 48 LINE",
"249 64 OFFCURVE",
"207 74 OFFCURVE",
"170 79 CURVE",
"161 0 LINE"
);
},
{
closed = 1;
nodes = (
"119 0 LINE",
"132 72 LINE",
"102 65 OFFCURVE",
"54 49 OFFCURVE",
"25 34 CURVE",
"29 0 LINE"
);
}
);
width = 294;
}
);
leftKerningGroup = n;
leftMetricsKey = i;
rightKerningGroup = i;
rightMetricsKey = i;
unicode = 0131;
},
{
color = 3;
glyphname = Lslash;
layers = (
{
components = (
{
name = L;
transform = "{1, 0, 0, 1, 17, 0}";
}
);
layerId = "765B86F4-5B75-49D9-B08E-C73D0440621F";
name = Regular;
paths = (
{
closed = 1;
nodes = (
"29 264 LINE",
"61 205 LINE",
"390 382 LINE",
"402 435 LINE",
"385 458 LINE"
);
}
);
width = 588;
}
);
leftKerningGroup = I;
leftMetricsKey = L;
rightKerningGroup = L;
rightMetricsKey = L;
unicode = 0141;
},
{
color = 3;
glyphname = lslash;
layers = (
{
components = (
{
name = l;
transform = "{1, 0, 0, 1, 21, 0}";
}
);
layerId = "765B86F4-5B75-49D9-B08E-C73D0440621F";
name = Regular;
paths = (
{
closed = 1;
nodes = (
"12 320 LINE",
"44 263 LINE",
"333 419 LINE",
"333 466 LINE",
"310 483 LINE"
);
}
);
width = 383;
}
);
leftKerningGroup = l;
leftMetricsKey = l;
rightKerningGroup = l;
unicode = 0142;
},
{
color = 3;
glyphname = OE;
layers = (
{
layerId = "765B86F4-5B75-49D9-B08E-C73D0440621F";
name = Regular;
paths = (
{
closed = 1;
nodes = (
"489 101 LINE",
"463 72 OFFCURVE",
"415 66 OFFCURVE",
"370 66 CURVE SMOOTH",
"228 66 OFFCURVE",
"166 196 OFFCURVE",
"166 330 CURVE SMOOTH",
"166 429 OFFCURVE",
"201 528 OFFCURVE",
"260 573 CURVE",
"290 584 OFFCURVE",
"324 589 OFFCURVE",
"359 589 CURVE SMOOTH",
"427 589 OFFCURVE",
"497 569 OFFCURVE",
"524 522 CURVE",
"546 628 LINE",
"496 655 OFFCURVE",
"436 669 OFFCURVE",
"377 669 CURVE SMOOTH",
"219 669 OFFCURVE",
"38 568 OFFCURVE",
"38 333 CURVE SMOOTH",
"38 90 OFFCURVE",
"200 -13 OFFCURVE",
"358 -13 CURVE SMOOTH",
"422 -13 OFFCURVE",
"486 -3 OFFCURVE",
"538 36 CURVE"
);
},
{
closed = 1;
nodes = (
"582 0 LINE",
"582 654 LINE",
"460 654 LINE",
"460 0 LINE"
);
},
{
closed = 1;
nodes = (
"857 567 LINE",
"877 654 LINE",
"474 654 LINE",
"549 582 LINE"
);
},
{
closed = 1;
nodes = (
"550 75 LINE",
"472 0 LINE",
"874 0 LINE",
"858 90 LINE"
);
},
{
closed = 1;
nodes = (
"773 32 LINE",
"874 0 LINE",
"882 48 OFFCURVE",
"888 134 OFFCURVE",
"886 189 CURVE",
"818 194 LINE"
);
},
{
closed = 1;
nodes = (
"864 477 LINE",
"876 540 OFFCURVE",
"880 618 OFFCURVE",
"877 654 CURVE",
"773 618 LINE",
"795 477 LINE"
);
},
{
closed = 1;
nodes = (
"558 358 LINE",
"558 293 LINE",
"798 283 LINE",
"798 377 LINE"
);
}
);
width = 929;
}
);
leftKerningGroup = O;
leftMetricsKey = O;
rightKerningGroup = E;
rightMetricsKey = E;
unicode = 0152;
},
{
color = 3;
glyphname = oe;
layers = (
{
anchors = (
{
name = bottom;
position = "{600, 0}";
},
{
name = ogonek;
position = "{786, 43}";
},
{
name = top;
position = "{599, 468}";
}
);
layerId = "765B86F4-5B75-49D9-B08E-C73D0440621F";
name = Regular;
paths = (
{
closed = 1;
nodes = (
"289 55 OFFCURVE",
"276 53 OFFCURVE",
"263 53 CURVE SMOOTH",
"176 53 OFFCURVE",
"139 144 OFFCURVE",
"139 245 CURVE SMOOTH",
"139 304 OFFCURVE",
"150 363 OFFCURVE",
"180 400 CURVE",
"195 411 OFFCURVE",
"218 419 OFFCURVE",
"244 419 CURVE SMOOTH",
"328 419 OFFCURVE",
"361 327 OFFCURVE",
"361 222 CURVE SMOOTH",
"361 164 OFFCURVE",
"352 92 OFFCURVE",
"305 60 CURVE"
);
},
{
closed = 1;
nodes = (
"439 388 LINE",
"398 455 OFFCURVE",
"329 492 OFFCURVE",
"251 492 CURVE SMOOTH",
"127 492 OFFCURVE",
"17 400 OFFCURVE",
"17 238 CURVE SMOOTH",
"17 78 OFFCURVE",
"126 -20 OFFCURVE",
"254 -20 CURVE SMOOTH",
"329 -20 OFFCURVE",
"398 14 OFFCURVE",
"439 79 CURVE"
);
},
{
closed = 1;
nodes = (
"388 113 LINE",
"430 39 OFFCURVE",
"504 -19 OFFCURVE",
"622 -14 CURVE",
"778 60 LINE",
"760 107 LINE",
"714 86 OFFCURVE",
"674 73 OFFCURVE",
"631 73 CURVE SMOOTH",
"541 73 OFFCURVE",
"470 129 OFFCURVE",
"470 244 CURVE SMOOTH",
"470 313 OFFCURVE",
"495 392 OFFCURVE",
"552 424 CURVE",
"631 427 OFFCURVE",
"688 357 OFFCURVE",
"678 276 CURVE",
"787 304 LINE",
"788 423 OFFCURVE",
"697 492 OFFCURVE",
"595 492 CURVE SMOOTH",
"504 492 OFFCURVE",
"428 437 OFFCURVE",
"388 359 CURVE"
);
},
{
closed = 1;
nodes = (
"453 252 LINE",
"729 248 LINE",
"787 304 LINE",
"752 326 LINE",
"449 310 LINE"
);
}
);
width = 808;
}
);
leftKerningGroup = o;
leftMetricsKey = o;
rightKerningGroup = e;
rightMetricsKey = e;
unicode = 0153;
},
{
color = 3;
glyphname = pi;
layers = (
{
layerId = "765B86F4-5B75-49D9-B08E-C73D0440621F";
name = Regular;
paths = (
{
closed = 1;
nodes = (
"107 459 OFFCURVE",
"55 414 OFFCURVE",
"30 377 CURVE",
"61 339 LINE",
"145 398 LINE",
"615 379 LINE",
"654 408 LINE",
"650 470 LINE",
"143 470 LINE"
);
},
{
closed = 1;
nodes = (
"568 0 LINE",
"532 442 LINE",
"440 439 LINE",
"444 30 LINE",
"484 -3 LINE"
);
},
{
closed = 1;
nodes = (
"91 -7 OFFCURVE",
"131 -15 OFFCURVE",
"163 -15 CURVE SMOOTH",
"279 -15 OFFCURVE",
"302 87 OFFCURVE",
"307 230 CURVE SMOOTH",
"315 448 LINE",
"200 450 LINE",
"191 197 LINE SMOOTH",
"189 145 OFFCURVE",
"187 72 OFFCURVE",
"177 49 CURVE",
"145 66 OFFCURVE",
"114 85 OFFCURVE",
"84 105 CURVE",
"45 10 LINE"
);
}
);
width = 682;
}
);
unicode = 03C0;
},
{
color = 3;
glyphname = endash;
layers = (
{
layerId = "765B86F4-5B75-49D9-B08E-C73D0440621F";
name = Regular;
paths = (
{
closed = 1;
nodes = (
"122 304 OFFCURVE",
"78 296 OFFCURVE",
"39 276 CURVE",
"46 219 LINE",
"469 219 LINE",
"517 268 LINE",
"513 304 LINE",
"152 304 LINE"
);
}
);
width = 560;
}
);
leftMetricsKey = hyphen;
rightMetricsKey = hyphen;
unicode = 2013;
},
{
color = 3;
glyphname = emdash;
layers = (
{
layerId = "765B86F4-5B75-49D9-B08E-C73D0440621F";
name = Regular;
paths = (
{
closed = 1;
nodes = (
"122 304 OFFCURVE",
"78 296 OFFCURVE",
"39 276 CURVE",
"46 219 LINE",
"902 219 LINE",
"949 268 LINE",
"945 304 LINE",
"153 304 LINE"
);
}
);
width = 992;
}
);
leftMetricsKey = hyphen;
rightMetricsKey = hyphen;
unicode = 2014;
},
{
color = 3;
glyphname = quoteleft;
layers = (
{
layerId = "765B86F4-5B75-49D9-B08E-C73D0440621F";
name = Regular;
paths = (
{
closed = 1;
nodes = (
"159 757 LINE",
"79 715 OFFCURVE",
"28 645 OFFCURVE",
"28 578 CURVE SMOOTH",
"28 540 OFFCURVE",
"45 500 OFFCURVE",
"106 476 CURVE",
"143 489 OFFCURVE",
"172 527 OFFCURVE",
"177 562 CURVE",
"123 606 LINE",
"128 646 OFFCURVE",
"154 688 OFFCURVE",
"191 716 CURVE"
);
}
);
width = 231;
}
);
unicode = 2018;
},
{
color = 3;
glyphname = quoteright;
layers = (
{
layerId = "765B86F4-5B75-49D9-B08E-C73D0440621F";
name = Regular;
paths = (
{
closed = 1;
nodes = (
"72 476 LINE",
"152 517 OFFCURVE",
"204 587 OFFCURVE",
"204 653 CURVE SMOOTH",
"204 690 OFFCURVE",
"186 733 OFFCURVE",
"126 757 CURVE",
"88 744 OFFCURVE",
"59 706 OFFCURVE",
"54 671 CURVE",
"108 627 LINE",
"104 587 OFFCURVE",
"77 545 OFFCURVE",
"40 517 CURVE"
);
}
);
width = 232;
}
);
unicode = 2019;
},
{
color = 3;
glyphname = dagger;
layers = (
{
layerId = "765B86F4-5B75-49D9-B08E-C73D0440621F";
name = Regular;
paths = (
{
closed = 1;
nodes = (
"200 653 LINE",
"221 -180 LINE",
"302 -180 LINE",
"328 685 LINE",
"236 689 LINE"
);
},
{
closed = 1;
nodes = (
"497 437 LINE",
"491 468 LINE",
"89 468 LINE",
"46 421 LINE",
"52 390 LINE",
"454 390 LINE"
);
}
);
width = 543;
}
);
unicode = 2020;
},
{
color = 3;
glyphname = daggerdbl;
layers = (
{
layerId = "765B86F4-5B75-49D9-B08E-C73D0440621F";
name = Regular;
paths = (
{
closed = 1;
nodes = (
"207 653 LINE",
"228 -180 LINE",
"309 -180 LINE",
"335 685 LINE",
"243 689 LINE"
);
},
{
closed = 1;
nodes = (
"504 437 LINE",
"498 468 LINE",
"96 468 LINE",
"53 421 LINE",
"59 390 LINE",
"461 390 LINE"
);
},
{
closed = 1;
nodes = (
"497 172 LINE",
"491 203 LINE",
"89 203 LINE",
"46 155 LINE",
"52 124 LINE",
"454 124 LINE"
);
}
);
width = 550;
}
);
leftMetricsKey = dagger;
rightMetricsKey = dagger;
unicode = 2021;
},
{
color = 3;
glyphname = bullet;
layers = (
{
layerId = "765B86F4-5B75-49D9-B08E-C73D0440621F";
name = Regular;
paths = (
{
closed = 1;
nodes = (
"314 327 OFFCURVE",
"264 375 OFFCURVE",
"198 400 CURVE",
"133 367 OFFCURVE",
"89 314 OFFCURVE",
"76 240 CURVE",
"103 181 OFFCURVE",
"152 141 OFFCURVE",
"220 122 CURVE",
"283 153 OFFCURVE",
"322 200 OFFCURVE",
"337 261 CURVE"
);
}
);
width = 413;
}
);
unicode = 2022;
},
{
color = 3;
glyphname = ellipsis;
layers = (
{
layerId = "765B86F4-5B75-49D9-B08E-C73D0440621F";
name = Regular;
paths = (
{
closed = 1;
nodes = (
"239 100 OFFCURVE",
"207 128 OFFCURVE",
"165 145 CURVE",
"125 125 OFFCURVE",
"99 94 OFFCURVE",
"92 51 CURVE",
"109 15 OFFCURVE",
"138 -9 OFFCURVE",
"178 -19 CURVE",
"212 -2 OFFCURVE",
"236 26 OFFCURVE",
"247 63 CURVE"
);
},
{
closed = 1;
nodes = (
"541 100 OFFCURVE",
"509 128 OFFCURVE",
"467 145 CURVE",
"427 125 OFFCURVE",
"401 94 OFFCURVE",
"394 51 CURVE",
"411 15 OFFCURVE",
"440 -9 OFFCURVE",
"480 -19 CURVE",
"514 -2 OFFCURVE",
"538 26 OFFCURVE",
"549 63 CURVE"
);
},
{
closed = 1;
nodes = (
"843 100 OFFCURVE",
"811 128 OFFCURVE",
"769 145 CURVE",
"729 125 OFFCURVE",
"703 94 OFFCURVE",
"696 51 CURVE",
"713 15 OFFCURVE",
"742 -9 OFFCURVE",
"782 -19 CURVE",
"816 -2 OFFCURVE",
"840 26 OFFCURVE",
"851 63 CURVE"
);
}
);
width = 931;
}
);
leftMetricsKey = period;
rightMetricsKey = period;
unicode = 2026;
},
{
color = 3;
glyphname = perthousand;
layers = (
{
layerId = "765B86F4-5B75-49D9-B08E-C73D0440621F";
name = Regular;
paths = (
{
closed = 1;
nodes = (
"224 -38 LINE",
"633 538 LINE",
"574 580 LINE",
"166 6 LINE"
);
},
{
closed = 1;
nodes = (
"230 347 OFFCURVE",
"222 346 OFFCURVE",
"215 346 CURVE SMOOTH",
"161 346 OFFCURVE",
"134 397 OFFCURVE",
"134 445 CURVE SMOOTH",
"134 472 OFFCURVE",
"143 498 OFFCURVE",
"160 516 CURVE",
"171 520 OFFCURVE",
"181 522 OFFCURVE",
"190 522 CURVE SMOOTH",
"238 522 OFFCURVE",
"268 474 OFFCURVE",
"268 424 CURVE SMOOTH",
"268 396 OFFCURVE",
"259 368 OFFCURVE",
"238 349 CURVE"
);
},
{
closed = 1;
nodes = (
"54 347 OFFCURVE",
"124 278 OFFCURVE",
"204 278 CURVE SMOOTH",
"289 278 OFFCURVE",
"349 346 OFFCURVE",
"349 435 CURVE SMOOTH",
"349 517 OFFCURVE",
"283 594 OFFCURVE",
"200 594 CURVE SMOOTH",
"119 594 OFFCURVE",
"54 517 OFFCURVE",
"54 435 CURVE SMOOTH"
);
},
{
closed = 1;
nodes = (
"652 44 OFFCURVE",
"645 43 OFFCURVE",
"637 43 CURVE SMOOTH",
"584 43 OFFCURVE",
"556 92 OFFCURVE",
"556 141 CURVE SMOOTH",
"556 167 OFFCURVE",
"564 194 OFFCURVE",
"582 213 CURVE",
"593 217 OFFCURVE",
"603 219 OFFCURVE",
"612 219 CURVE SMOOTH",
"661 219 OFFCURVE",
"690 169 OFFCURVE",
"690 120 CURVE SMOOTH",
"690 93 OFFCURVE",
"681 65 OFFCURVE",
"660 46 CURVE"
);
},
{
closed = 1;
nodes = (
"476 43 OFFCURVE",
"546 -26 OFFCURVE",
"626 -26 CURVE SMOOTH",
"711 -26 OFFCURVE",
"771 42 OFFCURVE",
"771 132 CURVE SMOOTH",
"771 214 OFFCURVE",
"705 290 OFFCURVE",
"622 290 CURVE SMOOTH",
"541 290 OFFCURVE",
"476 214 OFFCURVE",
"476 132 CURVE SMOOTH"
);
},
{
closed = 1;
nodes = (
"1010 44 OFFCURVE",
"1003 43 OFFCURVE",
"995 43 CURVE SMOOTH",
"942 43 OFFCURVE",
"914 92 OFFCURVE",
"914 141 CURVE SMOOTH",
"914 166 OFFCURVE",
"922 194 OFFCURVE",
"940 213 CURVE",
"951 217 OFFCURVE",
"961 219 OFFCURVE",
"970 219 CURVE SMOOTH",
"1019 219 OFFCURVE",
"1048 169 OFFCURVE",
"1048 120 CURVE SMOOTH",
"1048 93 OFFCURVE",
"1039 65 OFFCURVE",
"1018 46 CURVE"
);
},
{
closed = 1;
nodes = (
"834 43 OFFCURVE",
"904 -26 OFFCURVE",
"984 -26 CURVE SMOOTH",
"1069 -26 OFFCURVE",
"1129 42 OFFCURVE",
"1129 132 CURVE SMOOTH",
"1129 214 OFFCURVE",
"1063 290 OFFCURVE",
"980 290 CURVE SMOOTH",
"899 290 OFFCURVE",
"834 214 OFFCURVE",
"834 132 CURVE SMOOTH"
);
}
);
width = 1184;
}
);
leftMetricsKey = percent;
rightMetricsKey = percent;
unicode = 2030;
},
{
color = 3;
glyphname = guilsinglleft;
layers = (
{
layerId = "765B86F4-5B75-49D9-B08E-C73D0440621F";
name = Regular;
paths = (
{
closed = 1;
nodes = (
"58 227 LINE",
"207 42 LINE",
"273 86 LINE",
"170 253 LINE",
"268 429 LINE",
"203 467 LINE",
"58 280 LINE"
);
}
);
width = 331;
}
);
unicode = 2039;
},
{
color = 3;
glyphname = guilsinglright;
layers = (
{
layerId = "765B86F4-5B75-49D9-B08E-C73D0440621F";
name = Regular;
paths = (
{
closed = 1;
nodes = (
"129 467 LINE",
"64 429 LINE",
"162 253 LINE",
"58 86 LINE",
"124 42 LINE",
"273 227 LINE",
"273 280 LINE"
);
}
);
width = 331;
}
);
leftMetricsKey = "=|";
rightMetricsKey = "=|guilsinglleft";
unicode = 203A;
},
{
color = 3;
glyphname = fraction;
layers = (
{
layerId = "765B86F4-5B75-49D9-B08E-C73D0440621F";
name = Regular;
paths = (
{
closed = 1;
nodes = (
"-170 18 LINE",
"407 621 LINE",
"356 673 LINE",
"-223 68 LINE"
);
}
);
width = 143;
}
);
unicode = 2044;
},
{
color = 3;
glyphname = euro;
layers = (
{
anchors = (
{
name = bottom;
position = "{406, 0}";
},
{
name = top;
position = "{406, 650}";
}
);
layerId = "765B86F4-5B75-49D9-B08E-C73D0440621F";
name = Regular;
paths = (
{
closed = 1;
nodes = (
"571 114 LINE",
"425 73 LINE",
"266 82 OFFCURVE",
"210 186 OFFCURVE",
"210 319 CURVE SMOOTH",
"210 439 OFFCURVE",
"257 547 OFFCURVE",
"335 597 CURVE",
"411 605 OFFCURVE",
"489 574 OFFCURVE",
"562 513 CURVE",
"592 609 LINE",
"543 648 OFFCURVE",
"479 670 OFFCURVE",
"403 670 CURVE SMOOTH",
"182 670 OFFCURVE",
"84 484 OFFCURVE",
"84 312 CURVE SMOOTH",
"84 139 OFFCURVE",
"183 -17 OFFCURVE",
"407 -21 CURVE",
"592 56 LINE"
);
},
{
closed = 1;
nodes = (
"568 462 LINE",
"579 496 OFFCURVE",
"589 554 OFFCURVE",
"593 609 CURVE",
"492 584 LINE",
"505 462 LINE"
);
},
{
closed = 1;
nodes = (
"542 389 LINE",
"536 410 LINE",
"32 410 LINE",
"-4 370 LINE",
"2 349 LINE",
"507 349 LINE"
);
},
{
closed = 1;
nodes = (
"502 246 LINE",
"496 267 LINE",
"6 267 LINE",
"-30 227 LINE",
"-24 206 LINE",
"466 206 LINE"
);
}
);
width = 615;
}
);
rightMetricsKey = C;
unicode = 20AC;
},
{
color = 3;
glyphname = ruble;
layers = (
{
layerId = "765B86F4-5B75-49D9-B08E-C73D0440621F";
name = Regular;
paths = (
{
closed = 1;
nodes = (
"43 654 LINE",
"222 586 LINE",
"393 596 LINE",
"439 572 OFFCURVE",
"463 509 OFFCURVE",
"463 451 CURVE SMOOTH",
"463 378 OFFCURVE",
"424 309 OFFCURVE",
"327 309 CURVE SMOOTH",
"208 309 LINE",
"205 241 LINE",
"353 241 LINE SMOOTH",
"507 241 OFFCURVE",
"592 342 OFFCURVE",
"592 450 CURVE SMOOTH",
"592 556 OFFCURVE",
"509 663 OFFCURVE",
"344 662 CURVE SMOOTH"
);
},
{
closed = 1;
nodes = (
"96 61 OFFCURVE",
"61 48 OFFCURVE",
"31 32 CURVE",
"37 0 LINE",
"131 0 LINE",
"130 73 LINE"
);
},
{
closed = 1;
nodes = (
"214 0 LINE",
"354 0 LINE",
"355 49 LINE",
"217 67 LINE"
);
},
{
closed = 1;
nodes = (
"114 654 LINE",
"114 0 LINE",
"236 0 LINE",
"236 654 LINE"
);
},
{
closed = 1;
nodes = (
"43 654 LINE",
"42 604 LINE",
"147 594 LINE",
"146 654 LINE"
);
},
{
closed = 1;
nodes = (
"378 158 LINE",
"374 190 LINE",
"72 190 LINE",
"29 161 LINE",
"35 130 LINE",
"337 130 LINE"
);
},
{
closed = 1;
nodes = (
"380 272 LINE",
"374 308 LINE",
"72 308 LINE",
"29 274 LINE",
"35 243 LINE",
"337 243 LINE"
);
}
);
width = 627;
}
);
leftKerningGroup = I;
leftMetricsKey = P;
rightMetricsKey = P;
unicode = 20BD;
},
{
color = 3;
glyphname = trademark;
layers = (
{
anchors = (
{
name = bottom;
position = "{296, 90}";
},
{
name = center;
position = "{164, 233}";
},
{
name = top;
position = "{296, 376}";
}
);
layerId = "765B86F4-5B75-49D9-B08E-C73D0440621F";
name = Regular;
paths = (
{
closed = 1;
nodes = (
"118 733 LINE",
"118 449 LINE",
"200 449 LINE",
"200 733 LINE"
);
},
{
closed = 1;
nodes = (
"107 480 OFFCURVE",
"87 472 OFFCURVE",
"74 463 CURVE",
"77 449 LINE",
"124 449 LINE",
"124 487 LINE"
);
},
{
closed = 1;
nodes = (
"183 449 LINE",
"246 449 LINE",
"247 472 LINE",
"184 482 LINE"
);
},
{
closed = 1;
nodes = (
"183 735 OFFCURVE",
"137 735 OFFCURVE",
"8 738 CURVE",
"21 691 LINE",
"159 699 LINE",
"296 691 LINE",
"309 738 LINE"
);
},
{
closed = 1;
nodes = (
"301 627 LINE",
"307 650 OFFCURVE",
"312 718 OFFCURVE",
"310 738 CURVE",
"239 727 LINE",
"256 627 LINE SMOOTH"
);
},
{
closed = 1;
nodes = (
"78 727 LINE",
"8 738 LINE",
"6 718 OFFCURVE",
"10 650 OFFCURVE",
"17 627 CURVE",
"62 627 LINE"
);
},
{
closed = 1;
nodes = (
"337 735 LINE",
"337 712 LINE",
"399 702 LINE",
"401 735 LINE"
);
},
{
closed = 1;
nodes = (
"374 735 LINE",
"365 449 LINE",
"421 449 LINE",
"424 597 LINE",
"416 690 LINE",
"469 735 LINE"
);
},
{
closed = 1;
nodes = (
"354 480 OFFCURVE",
"338 472 OFFCURVE",
"326 463 CURVE",
"328 449 LINE",
"371 449 LINE",
"371 487 LINE"
);
},
{
closed = 1;
nodes = (
"397 449 LINE",
"461 449 LINE",
"461 472 LINE SMOOTH",
"399 482 LINE"
);
},
{
closed = 1;
nodes = (
"399 715 LINE",
"500 446 LINE",
"559 456 LINE",
"556 503 LINE",
"470 735 LINE"
);
},
{
closed = 1;
nodes = (
"522 465 LINE",
"558 456 LINE",
"658 719 LINE",
"624 735 LINE"
);
},
{
closed = 1;
nodes = (
"624 735 LINE",
"640 691 LINE",
"633 596 LINE",
"637 449 LINE",
"712 449 LINE",
"704 735 LINE"
);
},
{
closed = 1;
nodes = (
"696 735 LINE",
"696 697 LINE",
"713 704 OFFCURVE",
"728 712 OFFCURVE",
"741 721 CURVE",
"738 735 LINE"
);
},
{
closed = 1;
nodes = (
"625 480 OFFCURVE",
"609 472 OFFCURVE",
"597 463 CURVE",
"599 449 LINE",
"642 449 LINE",
"642 487 LINE"
);
},
{
closed = 1;
nodes = (
"688 449 LINE",
"752 449 LINE",
"752 472 LINE",
"689 482 LINE"
);
}
);
width = 780;
}
);
leftMetricsKey = T;
rightMetricsKey = M;
unicode = 2122;
},
{
color = 3;
glyphname = Ohm;
layers = (
{
layerId = "765B86F4-5B75-49D9-B08E-C73D0440621F";
name = Regular;
paths = (
{
closed = 1;
nodes = (
"439 15 LINE",
"590 79 OFFCURVE",
"678 215 OFFCURVE",
"678 360 CURVE SMOOTH",
"678 525 OFFCURVE",
"554 670 OFFCURVE",
"362 670 CURVE SMOOTH",
"163 670 OFFCURVE",
"38 514 OFFCURVE",
"38 351 CURVE SMOOTH",
"38 203 OFFCURVE",
"133 82 OFFCURVE",
"297 18 CURVE",
"334 73 LINE",
"221 134 OFFCURVE",
"167 258 OFFCURVE",
"167 369 CURVE SMOOTH",
"167 494 OFFCURVE",
"233 602 OFFCURVE",
"359 602 CURVE SMOOTH",
"492 602 OFFCURVE",
"561 489 OFFCURVE",
"561 362 CURVE SMOOTH",
"561 254 OFFCURVE",
"512 135 OFFCURVE",
"406 69 CURVE"
);
},
{
closed = 1;
nodes = (
"231 67 OFFCURVE",
"128 55 OFFCURVE",
"65 32 CURVE",
"71 0 LINE",
"334 0 LINE",
"334 73 LINE"
);
},
{
closed = 1;
nodes = (
"406 0 LINE",
"657 0 LINE",
"658 49 LINE",
"406 69 LINE"
);
}
);
width = 714;
}
);
leftMetricsKey = O;
rightMetricsKey = O;
unicode = 2126;
},
{
color = 3;
glyphname = partialdiff;
layers = (
{
layerId = "765B86F4-5B75-49D9-B08E-C73D0440621F";
name = Regular;
paths = (
{
closed = 1;
nodes = (
"462 418 LINE",
"321 471 LINE",
"193 471 OFFCURVE",
"80 354 OFFCURVE",
"80 202 CURVE SMOOTH",
"80 71 OFFCURVE",
"162 -34 OFFCURVE",
"300 -34 CURVE SMOOTH",
"459 -34 OFFCURVE",
"548 113 OFFCURVE",
"548 293 CURVE SMOOTH",
"548 497 OFFCURVE",
"436 694 OFFCURVE",
"209 761 CURVE",
"186 700 LINE",
"345 649 OFFCURVE",
"438 473 OFFCURVE",
"438 303 CURVE SMOOTH",
"438 184 OFFCURVE",
"393 73 OFFCURVE",
"306 40 CURVE",
"231 45 OFFCURVE",
"191 109 OFFCURVE",
"192 189 CURVE SMOOTH",
"193 304 OFFCURVE",
"282 427 OFFCURVE",
"461 377 CURVE"
);
}
);
width = 600;
}
);
unicode = 2202;
},
{
color = 3;
glyphname = increment;
layers = (
{
layerId = "765B86F4-5B75-49D9-B08E-C73D0440621F";
name = Regular;
paths = (
{
closed = 1;
nodes = (
"40 31 LINE",
"46 0 LINE",
"612 0 LINE",
"652 24 LINE",
"648 60 LINE",
"107 60 LINE"
);
},
{
closed = 1;
nodes = (
"40 31 LINE",
"119 8 LINE",
"354 618 LINE",
"287 643 LINE"
);
},
{
closed = 1;
nodes = (
"286 643 LINE",
"541 0 LINE",
"647 60 LINE",
"391 674 LINE"
);
}
);
width = 690;
}
);
unicode = 2206;
},
{
color = 3;
glyphname = product;
layers = (
{
layerId = "765B86F4-5B75-49D9-B08E-C73D0440621F";
name = Regular;
paths = (
{
closed = 1;
nodes = (
"95 735 OFFCURVE",
"63 723 OFFCURVE",
"29 702 CURVE",
"37 660 LINE",
"728 660 LINE",
"769 694 LINE",
"765 735 LINE",
"126 735 LINE"
);
},
{
closed = 1;
nodes = (
"152 680 LINE",
"152 -100 LINE",
"274 -100 LINE",
"274 680 LINE"
);
},
{
closed = 1;
nodes = (
"524 680 LINE",
"524 -100 LINE",
"646 -100 LINE",
"646 680 LINE"
);
},
{
closed = 1;
nodes = (
"132 -39 OFFCURVE",
"97 -52 OFFCURVE",
"67 -68 CURVE",
"73 -100 LINE",
"167 -100 LINE",
"166 -27 LINE"
);
},
{
closed = 1;
nodes = (
"228 -100 LINE",
"368 -100 LINE",
"369 -51 LINE",
"231 -33 LINE"
);
},
{
closed = 1;
nodes = (
"504 -39 OFFCURVE",
"469 -52 OFFCURVE",
"439 -68 CURVE",
"445 -100 LINE",
"539 -100 LINE",
"538 -27 LINE"
);
},
{
closed = 1;
nodes = (
"601 -100 LINE",
"741 -100 LINE",
"742 -51 LINE",
"604 -33 LINE"
);
}
);
width = 798;
}
);
leftMetricsKey = H;
rightMetricsKey = H;
unicode = 220F;
},
{
color = 3;
glyphname = summation;
layers = (
{
layerId = "765B86F4-5B75-49D9-B08E-C73D0440621F";
name = Regular;
paths = (
{
closed = 1;
nodes = (
"553 735 LINE",
"31 735 LINE",
"30 679 LINE",
"202 657 LINE",
"536 644 LINE"
);
},
{
closed = 1;
nodes = (
"540 556 LINE",
"551 614 OFFCURVE",
"556 699 OFFCURVE",
"553 735 CURVE",
"436 699 LINE",
"468 557 LINE"
);
},
{
closed = 1;
nodes = (
"30 679 LINE",
"234 258 LINE",
"334 305 LINE",
"136 720 LINE"
);
},
{
closed = 1;
nodes = (
"34 -46 LINE",
"105 -77 LINE",
"334 305 LINE",
"266 340 LINE"
);
},
{
closed = 1;
nodes = (
"196 -24 LINE",
"34 -46 LINE",
"35 -100 LINE",
"575 -100 LINE",
"558 -11 LINE"
);
},
{
closed = 1;
nodes = (
"458 -64 LINE",
"575 -100 LINE",
"578 -64 OFFCURVE",
"573 21 OFFCURVE",
"562 80 CURVE",
"490 78 LINE"
);
}
);
width = 614;
}
);
unicode = 2211;
},
{
color = 3;
glyphname = minus;
layers = (
{
layerId = "765B86F4-5B75-49D9-B08E-C73D0440621F";
name = Regular;
paths = (
{
closed = 1;
nodes = (
"58 278 LINE",
"58 202 LINE",
"542 202 LINE",
"542 278 LINE"
);
}
);
width = 600;
}
);
unicode = 2212;
},
{
color = 3;
glyphname = bulletoperator;
layers = (
{
layerId = "765B86F4-5B75-49D9-B08E-C73D0440621F";
name = Regular;
paths = (
{
closed = 1;
nodes = (
"137 192 OFFCURVE",
"163 226 OFFCURVE",
"174 255 CURVE",
"158 276 OFFCURVE",
"125 307 OFFCURVE",
"96 318 CURVE",
"71 304 OFFCURVE",
"46 270 OFFCURVE",
"30 238 CURVE",
"47 214 OFFCURVE",
"86 185 OFFCURVE",
"111 175 CURVE"
);
}
);
width = 227;
}
);
unicode = 2219;
},
{
color = 3;
glyphname = radical;
layers = (
{
layerId = "765B86F4-5B75-49D9-B08E-C73D0440621F";
name = Regular;
paths = (
{
closed = 1;
nodes = (
"238 470 LINE",
"391 -39 LINE",
"333 -38 LINE",
"542 751 LINE",
"631 717 LINE",
"421 -66 LINE",
"387 -80 OFFCURVE",
"348 -85 OFFCURVE",
"310 -83 CURVE",
"147 420 LINE",
"212 386 LINE",
"72 295 LINE",
"25 354 LINE",
"161 470 LINE"
);
}
);
width = 714;
}
);
unicode = 221A;
},
{
color = 3;
glyphname = infinity;
layers = (
{
layerId = "765B86F4-5B75-49D9-B08E-C73D0440621F";
name = Regular;
paths = (
{
closed = 1;
nodes = (
"118 516 OFFCURVE",
"31 444 OFFCURVE",
"31 335 CURVE SMOOTH",
"31 222 OFFCURVE",
"125 162 OFFCURVE",
"202 162 CURVE SMOOTH",
"274 162 OFFCURVE",
"341 212 OFFCURVE",
"388 307 CURVE",
"349 342 LINE",
"318 291 OFFCURVE",
"279 260 OFFCURVE",
"225 260 CURVE SMOOTH",
"163 260 OFFCURVE",
"125 300 OFFCURVE",
"125 353 CURVE SMOOTH",
"125 377 OFFCURVE",
"135 400 OFFCURVE",
"151 419 CURVE",
"221 454 OFFCURVE",
"287 395 OFFCURVE",
"351 299 CURVE",
"400 234 OFFCURVE",
"454 159 OFFCURVE",
"552 159 CURVE SMOOTH",
"640 159 OFFCURVE",
"726 220 OFFCURVE",
"726 333 CURVE SMOOTH",
"726 441 OFFCURVE",
"648 515 OFFCURVE",
"564 515 CURVE SMOOTH",
"494 515 OFFCURVE",
"422 461 OFFCURVE",
"374 377 CURVE",
"412 336 LINE",
"449 388 OFFCURVE",
"498 424 OFFCURVE",
"543 424 CURVE SMOOTH",
"598 424 OFFCURVE",
"629 372 OFFCURVE",
"629 325 CURVE SMOOTH",
"629 297 OFFCURVE",
"618 270 OFFCURVE",
"600 252 CURVE",
"526 228 OFFCURVE",
"487 280 OFFCURVE",
"408 382 CURVE SMOOTH",
"357 446 OFFCURVE",
"299 516 OFFCURVE",
"209 516 CURVE SMOOTH"
);
}
);
width = 747;
}
);
unicode = 221E;
},
{
color = 3;
glyphname = integral;
layers = (
{
layerId = "765B86F4-5B75-49D9-B08E-C73D0440621F";
name = Regular;
paths = (
{
closed = 1;
nodes = (
"286 -88 OFFCURVE",
"189 -175 OFFCURVE",
"93 -177 CURVE SMOOTH",
"49 -179 OFFCURVE",
"4 -162 OFFCURVE",
"-42 -128 CURVE",
"24 -24 LINE",
"37 -37 OFFCURVE",
"105 -97 OFFCURVE",
"179 -84 CURVE",
"46 535 LINE",
"46 663 OFFCURVE",
"142 749 OFFCURVE",
"238 751 CURVE SMOOTH",
"283 752 OFFCURVE",
"327 736 OFFCURVE",
"371 701 CURVE",
"306 598 LINE",
"294 610 OFFCURVE",
"228 671 OFFCURVE",
"154 657 CURVE",
"286 39 LINE"
);
}
);
width = 330;
}
);
unicode = 222B;
},
{
color = 3;
glyphname = notequal;
layers = (
{
components = (
{
name = equal;
}
);
layerId = "765B86F4-5B75-49D9-B08E-C73D0440621F";
name = Regular;
paths = (
{
closed = 1;
nodes = (
"169 -23 LINE",
"477 475 LINE",
"427 503 LINE",
"119 7 LINE"
);
}
);
width = 588;
}
);
leftMetricsKey = minus;
rightMetricsKey = minus;
unicode = 2260;
},
{
color = 3;
glyphname = lessequal;
layers = (
{
layerId = "765B86F4-5B75-49D9-B08E-C73D0440621F";
name = Regular;
paths = (
{
closed = 1;
nodes = (
"86 391 LINE",
"94 321 LINE",
"473 133 LINE",
"510 198 LINE",
"189 355 LINE",
"188 361 LINE",
"512 537 LINE",
"474 599 LINE"
);
},
{
closed = 1;
nodes = (
"58 73 LINE",
"58 0 LINE",
"542 0 LINE",
"542 73 LINE"
);
}
);
width = 600;
}
);
leftMetricsKey = minus;
rightMetricsKey = minus;
unicode = 2264;
},
{
color = 3;
glyphname = greaterequal;
layers = (
{
layerId = "765B86F4-5B75-49D9-B08E-C73D0440621F";
name = Regular;
paths = (
{
closed = 1;
nodes = (
"88 537 LINE",
"412 361 LINE",
"411 355 LINE",
"90 198 LINE",
"127 133 LINE",
"506 321 LINE",
"514 391 LINE",
"127 599 LINE"
);
},
{
closed = 1;
nodes = (
"58 0 LINE",
"542 0 LINE",
"542 73 LINE",
"58 73 LINE"
);
}
);
width = 600;
}
);
leftMetricsKey = minus;
rightMetricsKey = minus;
unicode = 2265;
},
{
color = 3;
glyphname = lozenge;
layers = (
{
layerId = "765B86F4-5B75-49D9-B08E-C73D0440621F";
name = Regular;
paths = (
{
closed = 1;
nodes = (
"118 413 LINE",
"46 368 LINE",
"252 -8 LINE",
"330 0 LINE",
"516 367 LINE",
"440 410 LINE",
"293 105 LINE",
"287 104 LINE"
);
},
{
closed = 1;
nodes = (
"444 322 LINE",
"516 367 LINE",
"310 743 LINE",
"232 735 LINE",
"46 368 LINE",
"122 325 LINE",
"270 630 LINE",
"276 631 LINE"
);
}
);
width = 562;
}
);
unicode = 25CA;
},
{
color = 3;
glyphname = f_b.liga;
layers = (
{
components = (
{
name = b;
transform = "{1, 0, 0, 1, 359, 0}";
}
);
layerId = "765B86F4-5B75-49D9-B08E-C73D0440621F";
name = Regular;
paths = (
{
closed = 1;
nodes = (
"495 736 LINE",
"278 736 LINE SMOOTH",
"179 736 OFFCURVE",
"83 668 OFFCURVE",
"83 540 CURVE SMOOTH",
"83 0 LINE",
"200 0 LINE",
"200 436 LINE",
"205 460 LINE",
"173 646 LINE",
"469 636 LINE"
);
},
{
closed = 1;
nodes = (
"137 383 LINE",
"170 440 LINE",
"133 476 LINE",
"95 466 OFFCURVE",
"54 453 OFFCURVE",
"12 432 CURVE",
"17 381 LINE SMOOTH"
);
},
{
closed = 1;
nodes = (
"153 381 LINE",
"263 381 LINE",
"311 435 LINE",
"309 470 LINE",
"153 470 LINE"
);
},
{
closed = 1;
nodes = (
"109 0 LINE",
"122 72 LINE",
"92 65 OFFCURVE",
"44 49 OFFCURVE",
"15 34 CURVE",
"19 0 LINE"
);
},
{
closed = 1;
nodes = (
"285 0 LINE",
"289 48 LINE",
"262 64 OFFCURVE",
"220 74 OFFCURVE",
"183 79 CURVE",
"174 0 LINE"
);
}
);
width = 904;
}
);
leftKerningGroup = f;
leftMetricsKey = f;
rightKerningGroup = o;
rightMetricsKey = b;
},
{
color = 3;
glyphname = f_h.liga;
layers = (
{
components = (
{
name = h;
transform = "{1, 0, 0, 1, 346, 0}";
}
);
layerId = "765B86F4-5B75-49D9-B08E-C73D0440621F";
name = Regular;
paths = (
{
closed = 1;
nodes = (
"137 383 LINE",
"170 440 LINE",
"133 476 LINE",
"95 466 OFFCURVE",
"54 453 OFFCURVE",
"12 432 CURVE",
"17 381 LINE"
);
},
{
closed = 1;
nodes = (
"109 0 LINE",
"122 72 LINE",
"92 65 OFFCURVE",
"44 49 OFFCURVE",
"15 34 CURVE",
"19 0 LINE"
);
},
{
closed = 1;
nodes = (
"285 0 LINE",
"289 48 LINE",
"262 64 OFFCURVE",
"220 74 OFFCURVE",
"183 79 CURVE",
"174 0 LINE"
);
},
{
closed = 1;
nodes = (
"153 381 LINE",
"263 381 LINE",
"311 435 LINE",
"309 470 LINE",
"153 470 LINE"
);
},
{
closed = 1;
nodes = (
"515 736 LINE",
"278 736 LINE SMOOTH",
"179 736 OFFCURVE",
"83 668 OFFCURVE",
"83 540 CURVE SMOOTH",
"83 0 LINE",
"200 0 LINE",
"200 436 LINE",
"205 460 LINE",
"173 646 LINE",
"481 636 LINE"
);
}
);
width = 951;
}
);
leftKerningGroup = f;
leftMetricsKey = f;
rightKerningGroup = n;
rightMetricsKey = h;
},
{
color = 3;
glyphname = f_k.liga;
layers = (
{
components = (
{
name = k;
transform = "{1, 0, 0, 1, 343, 0}";
}
);
layerId = "765B86F4-5B75-49D9-B08E-C73D0440621F";
name = Regular;
paths = (
{
closed = 1;
nodes = (
"137 383 LINE",
"170 440 LINE",
"133 476 LINE",
"95 466 OFFCURVE",
"54 453 OFFCURVE",
"12 432 CURVE",
"17 381 LINE"
);
},
{
closed = 1;
nodes = (
"153 470 LINE",
"153 381 LINE",
"263 381 LINE",
"311 435 LINE",
"309 470 LINE"
);
},
{
closed = 1;
nodes = (
"109 0 LINE",
"122 72 LINE",
"92 65 OFFCURVE",
"44 49 OFFCURVE",
"15 34 CURVE",
"19 0 LINE"
);
},
{
closed = 1;
nodes = (
"285 0 LINE",
"289 48 LINE",
"262 64 OFFCURVE",
"220 74 OFFCURVE",
"183 79 CURVE",
"174 0 LINE"
);
},
{
closed = 1;
nodes = (
"512 736 LINE",
"278 736 LINE SMOOTH",
"179 736 OFFCURVE",
"83 668 OFFCURVE",
"83 540 CURVE SMOOTH",
"83 0 LINE",
"200 0 LINE",
"200 436 LINE",
"205 460 LINE",
"173 646 LINE",
"481 636 LINE"
);
}
);
width = 930;
}
);
leftKerningGroup = f;
leftMetricsKey = f;
rightKerningGroup = k;
rightMetricsKey = k;
},
{
color = 3;
glyphname = f_l.liga;
layers = (
{
components = (
{
name = l;
transform = "{1, 0, 0, 1, 346, 0}";
}
);
layerId = "765B86F4-5B75-49D9-B08E-C73D0440621F";
name = Regular;
paths = (
{
closed = 1;
nodes = (
"137 383 LINE",
"170 440 LINE",
"133 476 LINE",
"95 466 OFFCURVE",
"54 453 OFFCURVE",
"12 432 CURVE",
"17 381 LINE"
);
},
{
closed = 1;
nodes = (
"153 470 LINE",
"153 381 LINE",
"263 381 LINE",
"311 435 LINE",
"309 470 LINE"
);
},
{
closed = 1;
nodes = (
"109 0 LINE",
"122 72 LINE",
"92 65 OFFCURVE",
"44 49 OFFCURVE",
"15 34 CURVE",
"19 0 LINE"
);
},
{
closed = 1;
nodes = (
"285 0 LINE",
"289 48 LINE",
"262 64 OFFCURVE",
"220 74 OFFCURVE",
"183 79 CURVE",
"174 0 LINE"
);
},
{
closed = 1;
nodes = (
"515 736 LINE",
"278 736 LINE SMOOTH",
"179 736 OFFCURVE",
"83 668 OFFCURVE",
"83 540 CURVE SMOOTH",
"83 0 LINE",
"200 0 LINE",
"200 436 LINE",
"205 460 LINE",
"173 646 LINE",
"481 636 LINE"
);
}
);
width = 661;
}
);
leftKerningGroup = f;
leftMetricsKey = f;
rightKerningGroup = l;
rightMetricsKey = l;
},
{
color = 3;
glyphname = acutecomb;
layers = (
{
anchors = (
{
name = _top;
position = "{0, 470}";
}
);
layerId = "765B86F4-5B75-49D9-B08E-C73D0440621F";
name = Regular;
paths = (
{
closed = 1;
nodes = (
"31 585 OFFCURVE",
"82 632 OFFCURVE",
"142 681 CURVE",
"57 753 LINE",
"-89 583 LINE",
"-25 532 LINE"
);
}
);
width = 0;
}
);
unicode = 0301;
},
{
color = 3;
glyphname = brevecomb;
layers = (
{
anchors = (
{
name = _top;
position = "{-1, 470}";
}
);
layerId = "765B86F4-5B75-49D9-B08E-C73D0440621F";
name = Regular;
paths = (
{
closed = 1;
nodes = (
"67 714 LINE",
"66 660 OFFCURVE",
"40 627 OFFCURVE",
"-1 627 CURVE SMOOTH",
"-36 627 OFFCURVE",
"-66 650 OFFCURVE",
"-75 717 CURVE",
"-152 707 LINE",
"-142 597 OFFCURVE",
"-68 551 OFFCURVE",
"5 551 CURVE SMOOTH",
"85 551 OFFCURVE",
"151 604 OFFCURVE",
"154 708 CURVE"
);
}
);
width = 0;
}
);
unicode = 0306;
},
{
color = 3;
glyphname = caroncomb;
layers = (
{
anchors = (
{
name = _top;
position = "{0, 470}";
}
);
layerId = "765B86F4-5B75-49D9-B08E-C73D0440621F";
name = Regular;
paths = (
{
closed = 1;
nodes = (
"-188 688 LINE",
"-50 541 LINE",
"46 543 LINE",
"170 705 LINE",
"111 754 LINE",
"1 616 LINE",
"-116 753 LINE"
);
}
);
width = 0;
}
);
unicode = 030C;
},
{
color = 3;
glyphname = acutecomb.case;
layers = (
{
anchors = (
{
name = _top;
position = "{1, 650}";
}
);
layerId = "765B86F4-5B75-49D9-B08E-C73D0440621F";
name = Regular;
paths = (
{
closed = 1;
nodes = (
"-81 690 LINE",
"3 725 OFFCURVE",
"82 757 OFFCURVE",
"166 789 CURVE",
"112 886 LINE",
"-120 755 LINE"
);
}
);
width = 0;
}
);
},
{
color = 3;
glyphname = brevecomb.case;
layers = (
{
anchors = (
{
name = _top;
position = "{-1, 650}";
}
);
layerId = "765B86F4-5B75-49D9-B08E-C73D0440621F";
name = Regular;
paths = (
{
closed = 1;
nodes = (
"67 862 LINE",
"63 810 OFFCURVE",
"34 784 OFFCURVE",
"-3 784 CURVE SMOOTH",
"-42 784 OFFCURVE",
"-67 814 OFFCURVE",
"-74 864 CURVE",
"-153 853 LINE",
"-139 760 OFFCURVE",
"-73 709 OFFCURVE",
"4 709 CURVE SMOOTH",
"81 709 OFFCURVE",
"146 759 OFFCURVE",
"154 856 CURVE"
);
}
);
width = 0;
}
);
},
{
color = 3;
glyphname = caroncomb.case;
layers = (
{
anchors = (
{
name = _top;
position = "{-1, 615}";
}
);
layerId = "765B86F4-5B75-49D9-B08E-C73D0440621F";
name = Regular;
paths = (
{
closed = 1;
nodes = (
"-190 788 LINE",
"-50 671 LINE",
"44 673 LINE",
"183 802 LINE",
"134 857 LINE",
"1 745 LINE",
"-126 853 LINE"
);
}
);
width = 0;
}
);
},
{
color = 3;
glyphname = circumflexcomb.case;
layers = (
{
anchors = (
{
name = _top;
position = "{-1, 615}";
}
);
layerId = "765B86F4-5B75-49D9-B08E-C73D0440621F";
name = Regular;
paths = (
{
closed = 1;
nodes = (
"-145 664 LINE",
"0 772 LINE",
"150 664 LINE",
"198 711 LINE",
"49 856 LINE",
"-51 856 LINE",
"-195 711 LINE"
);
}
);
width = 0;
}
);
},
{
color = 3;
glyphname = gravecomb.case;
layers = (
{
anchors = (
{
name = _top;
position = "{-2, 650}";
}
);
layerId = "765B86F4-5B75-49D9-B08E-C73D0440621F";
name = Regular;
paths = (
{
closed = 1;
nodes = (
"-88 886 LINE",
"-142 789 LINE",
"-58 757 OFFCURVE",
"22 725 OFFCURVE",
"105 690 CURVE",
"144 755 LINE"
);
}
);
width = 0;
}
);
},
{
color = 3;
glyphname = hungarumlautcomb.case;
layers = (
{
anchors = (
{
name = _top;
position = "{-0, 470}";
}
);
layerId = "765B86F4-5B75-49D9-B08E-C73D0440621F";
name = Regular;
paths = (
{
closed = 1;
nodes = (
"-94 531 LINE",
"-37 582 OFFCURVE",
"22 633 OFFCURVE",
"81 680 CURVE",
"-6 741 LINE",
"-153 582 LINE"
);
},
{
closed = 1;
nodes = (
"95 527 LINE",
"152 578 OFFCURVE",
"211 628 OFFCURVE",
"270 675 CURVE",
"184 737 LINE",
"37 578 LINE"
);
}
);
width = 0;
}
);
},
{
color = 3;
glyphname = macroncomb.case;
layers = (
{
anchors = (
{
name = _top;
position = "{1, 650}";
}
);
layerId = "765B86F4-5B75-49D9-B08E-C73D0440621F";
name = Regular;
paths = (
{
closed = 1;
nodes = (
"-108 821 OFFCURVE",
"-151 816 OFFCURVE",
"-190 796 CURVE",
"-184 742 LINE",
"163 742 LINE",
"210 780 LINE",
"205 821 LINE",
"-77 821 LINE"
);
}
);
width = 0;
}
);
},
{
color = 3;
glyphname = ogonekcomb.case;
layers = (
{
anchors = (
{
name = _ogonek;
position = "{-1, 10}";
}
);
layerId = "765B86F4-5B75-49D9-B08E-C73D0440621F";
name = Regular;
paths = (
{
closed = 1;
nodes = (
"-41 28 LINE",
"-155 -17 OFFCURVE",
"-220 -86 OFFCURVE",
"-220 -150 CURVE SMOOTH",
"-220 -207 OFFCURVE",
"-171 -261 OFFCURVE",
"-91 -255 CURVE",
"29 -197 LINE",
"9 -154 LINE",
"-80 -204 OFFCURVE",
"-131 -174 OFFCURVE",
"-131 -124 CURVE SMOOTH",
"-131 -74 OFFCURVE",
"-80 -29 OFFCURVE",
"-8 10 CURVE SMOOTH"
);
}
);
width = 0;
}
);
},
{
color = 3;
glyphname = tildecomb.case;
layers = (
{
anchors = (
{
name = _top;
position = "{-1, 650}";
}
);
layerId = "765B86F4-5B75-49D9-B08E-C73D0440621F";
name = Regular;
paths = (
{
closed = 1;
nodes = (
"-170 722 LINE",
"-135 760 OFFCURVE",
"-108 784 OFFCURVE",
"-89 784 CURVE SMOOTH",
"-54 784 OFFCURVE",
"67 702 OFFCURVE",
"112 702 CURVE SMOOTH",
"143 702 OFFCURVE",
"172 742 OFFCURVE",
"228 830 CURVE",
"195 859 LINE",
"110 789 LINE",
"4 844 OFFCURVE",
"-56 875 OFFCURVE",
"-89 875 CURVE SMOOTH",
"-127 875 OFFCURVE",
"-162 829 OFFCURVE",
"-212 754 CURVE"
);
}
);
width = 0;
}
);
},
{
color = 3;
glyphname = cedillacomb;
layers = (
{
anchors = (
{
name = _bottom;
position = "{0, 0}";
}
);
layerId = "765B86F4-5B75-49D9-B08E-C73D0440621F";
name = Regular;
paths = (
{
closed = 1;
nodes = (
"35 6 LINE",
"-20 6 LINE",
"-83 -67 LINE",
"-56 -108 LINE",
"54 -99 OFFCURVE",
"45 -192 OFFCURVE",
"-85 -233 CURVE",
"-70 -267 LINE",
"44 -252 OFFCURVE",
"107 -208 OFFCURVE",
"115 -153 CURVE SMOOTH",
"122 -109 OFFCURVE",
"81 -58 OFFCURVE",
"-5 -58 CURVE"
);
}
);
width = 0;
}
);
unicode = 0327;
},
{
color = 3;
glyphname = circumflexcomb;
layers = (
{
anchors = (
{
name = _top;
position = "{0, 470}";
}
);
layerId = "765B86F4-5B75-49D9-B08E-C73D0440621F";
name = Regular;
paths = (
{
closed = 1;
nodes = (
"-117 533 LINE",
"1 644 LINE",
"131 537 LINE",
"178 582 LINE",
"51 726 LINE",
"-42 726 LINE",
"-170 575 LINE"
);
}
);
width = 0;
}
);
unicode = 0302;
},
{
color = 3;
glyphname = commaaccentcomb;
layers = (
{
anchors = (
{
name = _bottom;
position = "{0, 0}";
}
);
layerId = "765B86F4-5B75-49D9-B08E-C73D0440621F";
name = Regular;
paths = (
{
closed = 1;
nodes = (
"-61 -132 LINE",
"-22 -160 OFFCURVE",
"-31 -202 OFFCURVE",
"-69 -252 CURVE",
"-24 -281 LINE",
"30 -234 OFFCURVE",
"105 -113 OFFCURVE",
"11 -62 CURVE",
"-63 -103 LINE"
);
}
);
width = 0;
}
);
unicode = 0326;
},
{
color = 3;
glyphname = dieresiscomb;
layers = (
{
anchors = (
{
name = _top;
position = "{0, 470}";
}
);
layerId = "765B86F4-5B75-49D9-B08E-C73D0440621F";
name = Regular;
paths = (
{
closed = 1;
nodes = (
"-47 658 OFFCURVE",
"-77 684 OFFCURVE",
"-113 698 CURVE",
"-146 681 OFFCURVE",
"-173 652 OFFCURVE",
"-177 612 CURVE",
"-162 581 OFFCURVE",
"-138 561 OFFCURVE",
"-101 550 CURVE",
"-69 565 OFFCURVE",
"-49 590 OFFCURVE",
"-39 624 CURVE"
);
},
{
closed = 1;
nodes = (
"170 658 OFFCURVE",
"139 684 OFFCURVE",
"104 698 CURVE",
"71 681 OFFCURVE",
"44 652 OFFCURVE",
"39 612 CURVE",
"54 581 OFFCURVE",
"79 561 OFFCURVE",
"115 550 CURVE",
"148 565 OFFCURVE",
"168 590 OFFCURVE",
"178 624 CURVE"
);
}
);
width = 0;
}
);
unicode = 0308;
},
{
color = 3;
glyphname = dotaccentcomb;
layers = (
{
anchors = (
{
name = _top;
position = "{0, 470}";
}
);
layerId = "765B86F4-5B75-49D9-B08E-C73D0440621F";
name = Regular;
paths = (
{
closed = 1;
nodes = (
"65 654 OFFCURVE",
"32 684 OFFCURVE",
"-4 698 CURVE",
"-37 681 OFFCURVE",
"-64 652 OFFCURVE",
"-69 612 CURVE",
"-54 580 OFFCURVE",
"-28 560 OFFCURVE",
"9 550 CURVE",
"40 566 OFFCURVE",
"61 591 OFFCURVE",
"70 624 CURVE"
);
}
);
width = 0;
}
);
unicode = 0307;
},
{
color = 3;
glyphname = dotbelowcomb;
layers = (
{
anchors = (
{
name = _bottom;
position = "{0, 0}";
}
);
layerId = "765B86F4-5B75-49D9-B08E-C73D0440621F";
name = Regular;
paths = (
{
closed = 1;
nodes = (
"65 -143 OFFCURVE",
"32 -112 OFFCURVE",
"-4 -99 CURVE",
"-37 -116 OFFCURVE",
"-64 -145 OFFCURVE",
"-69 -184 CURVE",
"-54 -217 OFFCURVE",
"-28 -237 OFFCURVE",
"9 -246 CURVE",
"40 -231 OFFCURVE",
"61 -206 OFFCURVE",
"70 -173 CURVE"
);
}
);
width = 0;
}
);
unicode = 0323;
},
{
color = 3;
glyphname = gravecomb;
layers = (
{
anchors = (
{
name = _top;
position = "{0, 470}";
}
);
layerId = "765B86F4-5B75-49D9-B08E-C73D0440621F";
name = Regular;
paths = (
{
closed = 1;
nodes = (
"91 583 LINE",
"-55 753 LINE",
"-140 681 LINE",
"-80 632 OFFCURVE",
"-29 585 OFFCURVE",
"27 532 CURVE"
);
}
);
width = 0;
}
);
unicode = 0300;
},
{
color = 3;
glyphname = hungarumlautcomb;
layers = (
{
anchors = (
{
name = _top;
position = "{0, 470}";
}
);
layerId = "765B86F4-5B75-49D9-B08E-C73D0440621F";
name = Regular;
paths = (
{
closed = 1;
nodes = (
"-93 533 LINE",
"-41 589 OFFCURVE",
"14 647 OFFCURVE",
"69 699 CURVE",
"-24 753 LINE",
"-156 577 LINE"
);
},
{
closed = 1;
nodes = (
"98 533 LINE",
"150 589 OFFCURVE",
"205 647 OFFCURVE",
"260 699 CURVE",
"167 753 LINE",
"35 577 LINE"
);
}
);
width = 0;
}
);
unicode = 030B;
},
{
color = 3;
glyphname = macronbelowcomb;
layers = (
{
anchors = (
{
name = _bottom;
position = "{0, 0}";
}
);
layerId = "765B86F4-5B75-49D9-B08E-C73D0440621F";
name = Regular;
paths = (
{
closed = 1;
nodes = (
"-101 -149 OFFCURVE",
"-144 -155 OFFCURVE",
"-183 -174 CURVE",
"-177 -228 LINE",
"132 -228 LINE",
"179 -190 LINE",
"174 -149 LINE",
"-70 -149 LINE"
);
}
);
width = 0;
}
);
unicode = 0331;
},
{
color = 3;
glyphname = macroncomb;
layers = (
{
anchors = (
{
name = _top;
position = "{1, 470}";
}
);
layerId = "765B86F4-5B75-49D9-B08E-C73D0440621F";
name = Regular;
paths = (
{
closed = 1;
nodes = (
"-80 643 OFFCURVE",
"-123 637 OFFCURVE",
"-162 618 CURVE",
"-156 564 LINE",
"147 564 LINE",
"194 602 LINE",
"189 643 LINE",
"-49 643 LINE"
);
}
);
width = 0;
}
);
unicode = 0304;
},
{
color = 3;
glyphname = ogonekcomb;
layers = (
{
anchors = (
{
name = _ogonek;
position = "{0, 9}";
}
);
layerId = "765B86F4-5B75-49D9-B08E-C73D0440621F";
name = Regular;
paths = (
{
closed = 1;
nodes = (
"-30 34 LINE",
"-144 -11 OFFCURVE",
"-209 -79 OFFCURVE",
"-209 -143 CURVE SMOOTH",
"-209 -200 OFFCURVE",
"-160 -255 OFFCURVE",
"-80 -249 CURVE",
"40 -191 LINE",
"21 -148 LINE",
"-69 -197 OFFCURVE",
"-120 -167 OFFCURVE",
"-120 -117 CURVE SMOOTH",
"-120 -67 OFFCURVE",
"-69 -22 OFFCURVE",
"3 16 CURVE SMOOTH"
);
}
);
width = 0;
}
);
unicode = 0328;
},
{
color = 3;
glyphname = ringcomb;
layers = (
{
anchors = (
{
name = _top;
position = "{0, 650}";
}
);
layerId = "765B86F4-5B75-49D9-B08E-C73D0440621F";
name = Regular;
paths = (
{
closed = 1;
nodes = (
"-113 755 OFFCURVE",
"-60 711 OFFCURVE",
"4 711 CURVE SMOOTH",
"68 711 OFFCURVE",
"114 756 OFFCURVE",
"114 821 CURVE SMOOTH",
"114 888 OFFCURVE",
"64 937 OFFCURVE",
"0 937 CURVE SMOOTH",
"-65 937 OFFCURVE",
"-113 887 OFFCURVE",
"-113 823 CURVE SMOOTH"
);
},
{
closed = 1;
nodes = (
"-58 844 OFFCURVE",
"-33 869 OFFCURVE",
"1 869 CURVE SMOOTH",
"33 869 OFFCURVE",
"58 845 OFFCURVE",
"58 810 CURVE SMOOTH",
"58 777 OFFCURVE",
"35 754 OFFCURVE",
"2 754 CURVE SMOOTH",
"-30 754 OFFCURVE",
"-58 777 OFFCURVE",
"-58 811 CURVE SMOOTH"
);
}
);
width = 0;
}
);
unicode = 030A;
},
{
color = 3;
glyphname = tildecomb;
layers = (
{
anchors = (
{
name = _top;
position = "{0, 470}";
}
);
layerId = "765B86F4-5B75-49D9-B08E-C73D0440621F";
name = Regular;
paths = (
{
closed = 1;
nodes = (
"-149 553 LINE",
"-103 605 OFFCURVE",
"-79 627 OFFCURVE",
"-64 627 CURVE SMOOTH",
"-33 627 OFFCURVE",
"49 544 OFFCURVE",
"92 544 CURVE SMOOTH",
"128 544 OFFCURVE",
"167 599 OFFCURVE",
"210 677 CURVE",
"168 708 LINE",
"92 629 LINE",
"36 670 OFFCURVE",
"-35 717 OFFCURVE",
"-60 717 CURVE",
"-101 717 OFFCURVE",
"-136 675 OFFCURVE",
"-192 587 CURVE"
);
}
);
width = 0;
}
);
unicode = 0303;
},
{
color = 3;
glyphname = caroncomb.calt;
layers = (
{
anchors = (
{
name = _topright;
position = "{0, 603}";
}
);
layerId = "765B86F4-5B75-49D9-B08E-C73D0440621F";
name = Regular;
paths = (
{
closed = 1;
nodes = (
"2 679 LINE",
"52 655 OFFCURVE",
"32 592 OFFCURVE",
"-15 527 CURVE",
"26 491 LINE",
"113 569 OFFCURVE",
"167 684 OFFCURVE",
"98 760 CURVE",
"0 713 LINE"
);
}
);
width = 0;
}
);
},
{
glyphname = dvA;
lastChange = "2016-03-11 15:53:53 +0000";
layers = (
{
anchors = (
{
name = abvmBINDU;
position = "{637, 640}";
},
{
name = abvmCANDRABINDU;
position = "{621, 640}";
}
);
layerId = "765B86F4-5B75-49D9-B08E-C73D0440621F";
name = Regular;
paths = (
{
closed = 1;
nodes = (
"19 270 LINE",
"120 56 OFFCURVE",
"236 12 OFFCURVE",
"319 12 CURVE SMOOTH",
"428 12 OFFCURVE",
"490 88 OFFCURVE",
"490 174 CURVE SMOOTH",
"490 244 OFFCURVE",
"449 327 OFFCURVE",
"346 370 CURVE",
"316 385 LINE",
"267 393 OFFCURVE",
"210 380 OFFCURVE",
"167 345 CURVE",
"227 247 LINE",
"370 325 LINE",
"285 310 LINE",
"367 311 OFFCURVE",
"400 255 OFFCURVE",
"400 207 CURVE SMOOTH",
"400 155 OFFCURVE",
"361 106 OFFCURVE",
"288 106 CURVE SMOOTH",
"201 106 OFFCURVE",
"136 177 OFFCURVE",
"76 305 CURVE"
);
},
{
closed = 1;
nodes = (
"157 468 LINE",
"215 523 OFFCURVE",
"289 558 OFFCURVE",
"339 553 CURVE",
"353 543 OFFCURVE",
"365 523 OFFCURVE",
"365 501 CURVE SMOOTH",
"365 457 OFFCURVE",
"325 396 OFFCURVE",
"225 366 CURVE",
"331 314 LINE",
"412 349 OFFCURVE",
"450 416 OFFCURVE",
"450 470 CURVE SMOOTH",
"450 548 OFFCURVE",
"369 633 OFFCURVE",
"272 633 CURVE SMOOTH",
"207 633 OFFCURVE",
"142 595 OFFCURVE",
"96 550 CURVE"
);
},
{
closed = 1;
nodes = (
"387 293 LINE",
"482 224 OFFCURVE",
"549 210 OFFCURVE",
"597 234 CURVE",
"599 347 LINE",
"561 301 OFFCURVE",
"467 288 OFFCURVE",
"396 342 CURVE"
);
},
{
closed = 1;
nodes = (
"807 538 LINE",
"820 565 LINE",
"781 624 LINE",
"474 624 LINE",
"461 596 LINE",
"500 538 LINE"
);
},
{
closed = 1;
nodes = (
"587 10 LINE",
"664 -36 LINE",
"696 -24 LINE",
"696 497 LINE",
"622 555 LINE",
"587 571 LINE"
);
}
);
width = 781;
}
);
unicode = 0905;
},
{
glyphname = dvI;
lastChange = "2016-03-11 15:53:54 +0000";
layers = (
{
anchors = (
{
name = abvmBINDU;
position = "{389, 640}";
},
{
name = abvmCANDRABINDU;
position = "{366, 640}";
}
);
layerId = "765B86F4-5B75-49D9-B08E-C73D0440621F";
name = Regular;
paths = (
{
closed = 1;
nodes = (
"168 22 LINE",
"322 -219 LINE",
"413 -152 LINE",
"221 27 LINE"
);
},
{
closed = 1;
nodes = (
"580 538 LINE",
"593 565 LINE",
"554 624 LINE",
"-26 624 LINE",
"-39 596 LINE",
"0 538 LINE"
);
},
{
closed = 1;
nodes = (
"355 386 LINE",
"455 373 LINE",
"455 497 LINE",
"382 555 LINE",
"355 571 LINE"
);
},
{
closed = 1;
nodes = (
"83 32 LINE",
"142 -13 OFFCURVE",
"209 -35 OFFCURVE",
"278 -35 CURVE SMOOTH",
"385 -35 OFFCURVE",
"514 18 OFFCURVE",
"514 135 CURVE SMOOTH",
"514 208 OFFCURVE",
"459 274 OFFCURVE",
"375 306 CURVE",
"172 258 LINE",
"151 276 OFFCURVE",
"138 293 OFFCURVE",
"138 314 CURVE SMOOTH",
"138 351 OFFCURVE",
"178 373 OFFCURVE",
"232 373 CURVE SMOOTH",
"455 373 LINE",
"375 470 LINE",
"208 470 LINE SMOOTH",
"97 470 OFFCURVE",
"46 413 OFFCURVE",
"46 354 CURVE SMOOTH",
"46 277 OFFCURVE",
"134 184 OFFCURVE",
"250 160 CURVE",
"416 204 LINE",
"445 119 OFFCURVE",
"340 28 OFFCURVE",
"189 50 CURVE",
"246 24 LINE",
"166 150 LINE",
"112 151 LINE"
);
}
);
width = 554;
}
);
leftKerningGroup = Dda;
rightKerningGroup = Da;
unicode = 0907;
},
{
glyphname = dvU;
lastChange = "2016-03-11 15:53:54 +0000";
layers = (
{
anchors = (
{
name = abvmBINDU;
position = "{328, 640}";
},
{
name = abvmCANDRABINDU;
position = "{317, 640}";
}
);
layerId = "765B86F4-5B75-49D9-B08E-C73D0440621F";
name = Regular;
paths = (
{
closed = 1;
nodes = (
"285 551 LINE",
"328 529 OFFCURVE",
"346 498 OFFCURVE",
"346 464 CURVE SMOOTH",
"346 415 OFFCURVE",
"307 377 OFFCURVE",
"224 356 CURVE",
"330 300 LINE",
"417 334 OFFCURVE",
"444 387 OFFCURVE",
"444 435 CURVE SMOOTH",
"444 499 OFFCURVE",
"397 546 OFFCURVE",
"340 575 CURVE"
);
},
{
closed = 1;
nodes = (
"575 538 LINE",
"588 565 LINE",
"549 624 LINE",
"-26 624 LINE",
"-39 596 LINE",
"0 538 LINE"
);
},
{
closed = 1;
nodes = (
"9 247 LINE",
"113 25 OFFCURVE",
"225 -27 OFFCURVE",
"316 -27 CURVE SMOOTH",
"430 -27 OFFCURVE",
"506 53 OFFCURVE",
"506 150 CURVE SMOOTH",
"506 233 OFFCURVE",
"448 319 OFFCURVE",
"346 357 CURVE",
"314 373 LINE",
"263 381 OFFCURVE",
"206 369 OFFCURVE",
"162 332 CURVE",
"222 232 LINE",
"368 311 LINE",
"284 294 LINE",
"366 295 OFFCURVE",
"407 233 OFFCURVE",
"407 179 CURVE SMOOTH",
"407 118 OFFCURVE",
"357 75 OFFCURVE",
"290 75 CURVE SMOOTH",
"198 75 OFFCURVE",
"125 157 OFFCURVE",
"68 281 CURVE"
);
}
);
width = 549;
}
);
unicode = 0909;
},
{
glyphname = dvUu;
lastChange = "2016-03-11 15:53:54 +0000";
layers = (
{
anchors = (
{
name = abvmBINDU;
position = "{361, 640}";
},
{
name = abvmCANDRABINDU;
position = "{370, 640}";
}
);
components = (
{
name = dvU;
}
);
layerId = "765B86F4-5B75-49D9-B08E-C73D0440621F";
name = Regular;
paths = (
{
closed = 1;
nodes = (
"801 538 LINE",
"814 565 LINE",
"775 624 LINE",
"239 624 LINE",
"226 596 LINE",
"265 538 LINE"
);
},
{
closed = 1;
nodes = (
"642 30 LINE",
"719 85 OFFCURVE",
"767 146 OFFCURVE",
"767 219 CURVE SMOOTH",
"767 308 OFFCURVE",
"695 391 OFFCURVE",
"604 391 CURVE SMOOTH",
"541 391 OFFCURVE",
"484 352 OFFCURVE",
"424 283 CURVE",
"487 201 LINE",
"541 269 OFFCURVE",
"597 306 OFFCURVE",
"637 306 CURVE SMOOTH",
"669 306 OFFCURVE",
"686 285 OFFCURVE",
"686 261 CURVE SMOOTH",
"686 217 OFFCURVE",
"627 158 OFFCURVE",
"568 112 CURVE"
);
}
);
width = 775;
}
);
rightKerningGroup = Ka;
unicode = 090A;
},
{
glyphname = dvVocalicR;
lastChange = "2016-03-11 15:53:53 +0000";
layers = (
{
anchors = (
{
name = abvmBINDU;
position = "{462, 640}";
},
{
name = abvmCANDRABINDU;
position = "{461, 640}";
},
{
name = abvmTOP;
position = "{463, 470}";
},
{
name = blwmBOTTOM;
position = "{382, 4}";
}
);
components = (
{
name = dvTRa;
transform = "{1, 0, 0, 1, 11, 0}";
}
);
layerId = "765B86F4-5B75-49D9-B08E-C73D0440621F";
name = Regular;
paths = (
{
closed = 1;
nodes = (
"640 57 LINE",
"694 -7 LINE",
"788 13 OFFCURVE",
"828 80 OFFCURVE",
"828 136 CURVE SMOOTH",
"828 197 OFFCURVE",
"782 261 OFFCURVE",
"722 328 CURVE",
"689 276 LINE",
"719 246 OFFCURVE",
"738 211 OFFCURVE",
"738 178 CURVE SMOOTH",
"738 140 OFFCURVE",
"713 105 OFFCURVE",
"648 86 CURVE"
);
},
{
closed = 1;
nodes = (
"494 191 LINE",
"518 181 OFFCURVE",
"543 177 OFFCURVE",
"567 177 CURVE SMOOTH",
"650 177 OFFCURVE",
"729 232 OFFCURVE",
"742 293 CURVE",
"701 364 LINE",
"694 302 OFFCURVE",
"641 262 OFFCURVE",
"581 262 CURVE SMOOTH",
"552 262 OFFCURVE",
"522 271 OFFCURVE",
"494 290 CURVE"
);
},
{
closed = 1;
nodes = (
"691 311 LINE",
"731 277 LINE",
"764 313 OFFCURVE",
"766 379 OFFCURVE",
"742 420 CURVE",
"631 423 LINE",
"609 383 LINE",
"700 263 LINE"
);
},
{
closed = 1;
nodes = (
"875 538 LINE",
"888 565 LINE",
"850 624 LINE",
"465 624 LINE",
"452 596 LINE",
"491 538 LINE"
);
}
);
width = 850;
}
);
unicode = 090B;
},
{
glyphname = dvVocalicR.ss06;
lastChange = "2016-03-11 15:53:53 +0000";
layers = (
{
anchors = (
{
name = abvmBINDU;
position = "{462, 640}";
},
{
name = abvmCANDRABINDU;
position = "{461, 640}";
},
{
name = abvmTOP;
position = "{463, 470}";
},
{
name = blwmBOTTOM;
position = "{382, 4}";
}
);
components = (
{
name = dvTRa;
transform = "{1, 0, 0, 1, 11, 0}";
}
);
layerId = "765B86F4-5B75-49D9-B08E-C73D0440621F";
name = Regular;
paths = (
{
closed = 1;
nodes = (
"839 164 LINE",
"727 338 LINE",
"690 284 LINE",
"778 156 LINE"
);
},
{
closed = 1;
nodes = (
"487 204 LINE",
"511 194 OFFCURVE",
"544 189 OFFCURVE",
"567 189 CURVE SMOOTH",
"651 189 OFFCURVE",
"729 244 OFFCURVE",
"743 306 CURVE",
"701 372 LINE",
"694 304 OFFCURVE",
"636 268 OFFCURVE",
"576 268 CURVE SMOOTH",
"544 268 OFFCURVE",
"512 278 OFFCURVE",
"487 298 CURVE"
);
},
{
closed = 1;
nodes = (
"691 318 LINE",
"731 285 LINE",
"764 320 OFFCURVE",
"766 386 OFFCURVE",
"742 427 CURVE",
"631 431 LINE",
"609 391 LINE",
"698 269 LINE"
);
},
{
closed = 1;
nodes = (
"904 538 LINE",
"917 565 LINE",
"878 624 LINE",
"465 624 LINE",
"452 596 LINE",
"491 538 LINE"
);
},
{
closed = 1;
nodes = (
"789 215 LINE",
"657 184 OFFCURVE",
"610 126 OFFCURVE",
"610 69 CURVE SMOOTH",
"610 -14 OFFCURVE",
"695 -84 OFFCURVE",
"780 -84 CURVE SMOOTH",
"830 -84 OFFCURVE",
"883 -60 OFFCURVE",
"923 -19 CURVE",
"869 66 LINE",
"833 30 OFFCURVE",
"772 -1 OFFCURVE",
"734 -1 CURVE SMOOTH",
"707 -1 OFFCURVE",
"688 14 OFFCURVE",
"688 37 CURVE SMOOTH",
"688 74 OFFCURVE",
"747 102 OFFCURVE",
"820 124 CURVE",
"839 164 LINE"
);
}
);
width = 879;
}
);
},
{
glyphname = dvVocalicRr;
lastChange = "2016-03-11 15:53:53 +0000";
layers = (
{
anchors = (
{
name = abvmBINDU;
position = "{462, 640}";
},
{
name = abvmCANDRABINDU;
position = "{461, 640}";
},
{
name = abvmTOP;
position = "{463, 470}";
},
{
name = blwmBOTTOM;
position = "{382, 4}";
}
);
components = (
{
name = dvTRa;
transform = "{1, 0, 0, 1, 11, 0}";
}
);
layerId = "765B86F4-5B75-49D9-B08E-C73D0440621F";
name = Regular;
paths = (
{
closed = 1;
nodes = (
"839 166 LINE",
"727 338 LINE",
"690 284 LINE",
"784 147 LINE"
);
},
{
closed = 1;
nodes = (
"487 206 LINE",
"511 196 OFFCURVE",
"543 192 OFFCURVE",
"567 192 CURVE SMOOTH",
"651 192 OFFCURVE",
"729 244 OFFCURVE",
"743 306 CURVE",
"701 372 LINE",
"694 304 OFFCURVE",
"636 271 OFFCURVE",
"577 271 CURVE SMOOTH",
"544 271 OFFCURVE",
"512 281 OFFCURVE",
"487 300 CURVE"
);
},
{
closed = 1;
nodes = (
"691 318 LINE",
"731 285 LINE",
"764 320 OFFCURVE",
"766 386 OFFCURVE",
"742 427 CURVE",
"631 431 LINE",
"609 391 LINE",
"698 269 LINE"
);
},
{
closed = 1;
nodes = (
"909 538 LINE",
"922 565 LINE",
"883 624 LINE",
"465 624 LINE",
"452 596 LINE",
"491 538 LINE"
);
},
{
closed = 1;
nodes = (
"843 82 LINE",
"710 49 OFFCURVE",
"668 -1 OFFCURVE",
"668 -46 CURVE SMOOTH",
"668 -110 OFFCURVE",
"744 -180 OFFCURVE",
"829 -180 CURVE SMOOTH",
"881 -180 OFFCURVE",
"931 -155 OFFCURVE",
"968 -116 CURVE",
"917 -36 LINE",
"882 -72 OFFCURVE",
"820 -105 OFFCURVE",
"780 -105 CURVE SMOOTH",
"756 -105 OFFCURVE",
"746 -93 OFFCURVE",
"746 -81 CURVE SMOOTH",
"746 -58 OFFCURVE",
"784 -27 OFFCURVE",
"877 -8 CURVE",
"891 22 LINE"
);
},
{
closed = 1;
nodes = (
"722 9 LINE",
"691 16 OFFCURVE",
"675 29 OFFCURVE",
"675 47 CURVE SMOOTH",
"675 86 OFFCURVE",
"748 109 OFFCURVE",
"820 126 CURVE",
"838 166 LINE",
"789 212 LINE",
"655 182 OFFCURVE",
"593 135 OFFCURVE",
"593 76 CURVE SMOOTH",
"593 26 OFFCURVE",
"636 -7 OFFCURVE",
"699 -34 CURVE"
);
}
);
width = 881;
}
);
unicode = 0960;
},
{
glyphname = dvVocalicL;
lastChange = "2016-03-11 15:53:53 +0000";
layers = (
{
anchors = (
{
name = abvmBINDU;
position = "{481, 640}";
},
{
name = abvmCANDRABINDU;
position = "{455, 640}";
},
{
name = abvmTOP;
position = "{480, 470}";
},
{
name = blwmBOTTOM;
position = "{346, 4}";
}
);
layerId = "765B86F4-5B75-49D9-B08E-C73D0440621F";
name = Regular;
paths = (
{
closed = 1;
nodes = (
"375 300 LINE",
"252 420 LINE",
"232 432 OFFCURVE",
"208 438 OFFCURVE",
"184 438 CURVE SMOOTH",
"109 438 OFFCURVE",
"29 381 OFFCURVE",
"29 279 CURVE SMOOTH",
"29 181 OFFCURVE",
"103 74 OFFCURVE",
"283 -43 CURVE",
"326 14 LINE",
"222 83 OFFCURVE",
"141 153 OFFCURVE",
"141 234 CURVE SMOOTH",
"141 290 OFFCURVE",
"179 332 OFFCURVE",
"231 332 CURVE SMOOTH",
"261 332 OFFCURVE",
"296 319 OFFCURVE",
"326 285 CURVE",
"356 251 LINE"
);
},
{
closed = 1;
nodes = (
"748 538 LINE",
"761 565 LINE",
"723 624 LINE",
"-26 624 LINE",
"-39 596 LINE",
"0 538 LINE"
);
},
{
closed = 1;
nodes = (
"437 398 LINE",
"544 383 LINE",
"544 497 LINE",
"471 555 LINE",
"437 571 LINE"
);
},
{
closed = 1;
nodes = (
"670 21 LINE",
"644 -28 OFFCURVE",
"607 -80 OFFCURVE",
"566 -80 CURVE SMOOTH",
"541 -80 OFFCURVE",
"521 -63 OFFCURVE",
"521 -35 CURVE SMOOTH",
"521 34 OFFCURVE",
"667 123 OFFCURVE",
"667 250 CURVE SMOOTH",
"667 340 OFFCURVE",
"590 432 OFFCURVE",
"482 432 CURVE SMOOTH",
"382 432 OFFCURVE",
"273 356 OFFCURVE",
"290 174 CURVE",
"370 119 LINE",
"394 132 LINE",
"382 257 OFFCURVE",
"433 358 OFFCURVE",
"499 358 CURVE SMOOTH",
"542 358 OFFCURVE",
"565 320 OFFCURVE",
"565 278 CURVE SMOOTH",
"565 175 OFFCURVE",
"432 108 OFFCURVE",
"432 10 CURVE SMOOTH",
"432 -73 OFFCURVE",
"523 -158 OFFCURVE",
"607 -158 CURVE SMOOTH",
"667 -158 OFFCURVE",
"717 -115 OFFCURVE",
"747 -46 CURVE"
);
}
);
width = 722;
}
);
leftKerningGroup = La;
rightKerningGroup = LaMAR;
unicode = 090C;
},
{
glyphname = dvVocalicLl;
lastChange = "2016-03-11 15:53:54 +0000";
layers = (
{
anchors = (
{
name = abvmBINDU;
position = "{481, 640}";
},
{
name = abvmCANDRABINDU;
position = "{455, 640}";
},
{
name = abvmTOP;
position = "{480, 470}";
},
{
name = blwmBOTTOM;
position = "{346, 4}";
}
);
layerId = "765B86F4-5B75-49D9-B08E-C73D0440621F";
name = Regular;
paths = (
{
closed = 1;
nodes = (
"375 300 LINE",
"252 420 LINE",
"232 432 OFFCURVE",
"208 438 OFFCURVE",
"184 438 CURVE SMOOTH",
"109 438 OFFCURVE",
"29 381 OFFCURVE",
"29 279 CURVE SMOOTH",
"29 181 OFFCURVE",
"103 74 OFFCURVE",
"283 -43 CURVE",
"326 14 LINE",
"222 83 OFFCURVE",
"141 153 OFFCURVE",
"141 234 CURVE SMOOTH",
"141 290 OFFCURVE",
"179 332 OFFCURVE",
"231 332 CURVE SMOOTH",
"261 332 OFFCURVE",
"296 319 OFFCURVE",
"326 285 CURVE",
"356 251 LINE"
);
},
{
closed = 1;
nodes = (
"748 538 LINE",
"761 565 LINE",
"723 624 LINE",
"-26 624 LINE",
"-39 596 LINE",
"0 538 LINE"
);
},
{
closed = 1;
nodes = (
"437 398 LINE",
"544 383 LINE",
"544 497 LINE",
"471 555 LINE",
"437 571 LINE"
);
},
{
closed = 1;
nodes = (
"573 -87 LINE",
"541 -85 OFFCURVE",
"518 -66 OFFCURVE",
"518 -36 CURVE SMOOTH",
"518 34 OFFCURVE",
"667 123 OFFCURVE",
"667 250 CURVE SMOOTH",
"667 340 OFFCURVE",
"590 432 OFFCURVE",
"482 432 CURVE SMOOTH",
"382 432 OFFCURVE",
"273 356 OFFCURVE",
"290 174 CURVE",
"370 119 LINE",
"394 132 LINE",
"382 257 OFFCURVE",
"433 358 OFFCURVE",
"499 358 CURVE SMOOTH",
"542 358 OFFCURVE",
"565 320 OFFCURVE",
"565 277 CURVE SMOOTH",
"565 171 OFFCURVE",
"430 109 OFFCURVE",
"430 2 CURVE SMOOTH",
"430 -60 OFFCURVE",
"475 -109 OFFCURVE",
"549 -135 CURVE"
);
},
{
closed = 1;
nodes = (
"745 -99 LINE",
"707 -164 OFFCURVE",
"660 -192 OFFCURVE",
"631 -192 CURVE SMOOTH",
"612 -192 OFFCURVE",
"601 -179 OFFCURVE",
"601 -165 CURVE SMOOTH",
"601 -145 OFFCURVE",
"624 -109 OFFCURVE",
"705 -70 CURVE",
"710 -40 LINE",
"647 9 LINE",
"550 -39 OFFCURVE",
"517 -89 OFFCURVE",
"517 -129 CURVE SMOOTH",
"517 -185 OFFCURVE",
"576 -262 OFFCURVE",
"665 -262 CURVE SMOOTH",
"719 -262 OFFCURVE",
"772 -233 OFFCURVE",
"810 -162 CURVE"
);
}
);
width = 722;
}
);
leftKerningGroup = La;
rightKerningGroup = LaMAR;
unicode = 0961;
},
{
glyphname = dvE;
lastChange = "2016-03-11 15:53:53 +0000";
layers = (
{
anchors = (
{
name = abvmBINDU;
position = "{294, 640}";
},
{
name = abvmCANDRABINDU;
position = "{309, 640}";
}
);
layerId = "765B86F4-5B75-49D9-B08E-C73D0440621F";
name = Regular;
paths = (
{
closed = 1;
nodes = (
"388 250 LINE",
"313 204 LINE",
"360 132 LINE",
"469 173 OFFCURVE",
"497 220 OFFCURVE",
"497 358 CURVE SMOOTH",
"497 497 LINE",
"421 558 LINE",
"388 572 LINE"
);
},
{
closed = 1;
nodes = (
"597 538 LINE",
"610 565 LINE",
"572 624 LINE",
"-26 624 LINE",
"-39 596 LINE",
"0 538 LINE"
);
},
{
closed = 1;
nodes = (
"555 -187 LINE",
"577 -162 OFFCURVE",
"590 -132 OFFCURVE",
"590 -98 CURVE SMOOTH",
"590 -37 OFFCURVE",
"546 7 OFFCURVE",
"420 67 CURVE SMOOTH",
"177 183 LINE",
"177 497 LINE",
"102 558 LINE",
"68 572 LINE",
"68 299 LINE",
"68 192 OFFCURVE",
"134 120 OFFCURVE",
"223 78 CURVE SMOOTH",
"432 -24 LINE SMOOTH",
"483 -53 OFFCURVE",
"491 -84 OFFCURVE",
"454 -137 CURVE"
);
}
);
width = 571;
}
);
unicode = 090F;
},
{
glyphname = dvOE;
layers = (
{
components = (
{
name = dvA;
}
);
layerId = "765B86F4-5B75-49D9-B08E-C73D0440621F";
name = Regular;
paths = (
{
closed = 1;
nodes = (
"595 795 LINE",
"595 584 LINE",
"645 556 LINE",
"671 566 LINE",
"671 795 LINE"
);
}
);
width = 781;
}
);
unicode = 0973;
},
{
glyphname = dvOOE;
layers = (
{
components = (
{
name = dvAa;
}
);
layerId = "765B86F4-5B75-49D9-B08E-C73D0440621F";
name = Regular;
paths = (
{
closed = 1;
nodes = (
"870 795 LINE",
"870 584 LINE",
"920 556 LINE",
"946 566 LINE",
"946 795 LINE"
);
}
);
width = 1057;
}
);
unicode = 0974;
},
{
glyphname = dvKa;
lastChange = "2016-03-11 15:53:54 +0000";
layers = (
{
anchors = (
{
name = abvmBINDU;
position = "{381, 640}";
},
{
name = abvmCANDRABINDU;
position = "{401, 640}";
},
{
name = abvmCANDRABINDU2;
position = "{678, 640}";
},
{
name = abvmTOP;
position = "{398, 470}";
},
{
name = blwmBOTTOM;
position = "{310, 4}";
}
);
layerId = "765B86F4-5B75-49D9-B08E-C73D0440621F";
name = Regular;
paths = (
{
closed = 1;
nodes = (
"225 447 LINE",
"121 473 OFFCURVE",
"23 401 OFFCURVE",
"23 299 CURVE SMOOTH",
"23 181 OFFCURVE",
"152 98 OFFCURVE",
"246 98 CURVE SMOOTH",
"307 98 OFFCURVE",
"352 132 OFFCURVE",
"386 181 CURVE",
"345 288 LINE",
"306 207 OFFCURVE",
"213 162 OFFCURVE",
"147 192 CURVE",
"96 263 OFFCURVE",
"140 364 OFFCURVE",
"236 364 CURVE SMOOTH",
"281 364 OFFCURVE",
"323 342 OFFCURVE",
"368 313 CURVE",
"376 372 LINE"
);
},
{
closed = 1;
nodes = (
"781 538 LINE",
"794 565 LINE",
"755 624 LINE",
"-26 624 LINE",
"-39 596 LINE",
"0 538 LINE"
);
},
{
closed = 1;
nodes = (
"324 10 LINE",
"401 -36 LINE",
"433 -24 LINE",
"433 497 LINE",
"359 555 LINE",
"324 571 LINE"
);
},
{
closed = 1;
nodes = (
"404 181 LINE",
"464 266 OFFCURVE",
"526 318 OFFCURVE",
"578 318 CURVE SMOOTH",
"621 318 OFFCURVE",
"636 288 OFFCURVE",
"636 259 CURVE SMOOTH",
"636 204 OFFCURVE",
"579 149 OFFCURVE",
"494 88 CURVE",
"572 4 LINE",
"665 65 OFFCURVE",
"725 141 OFFCURVE",
"725 229 CURVE SMOOTH",
"725 330 OFFCURVE",
"646 416 OFFCURVE",
"553 416 CURVE SMOOTH",
"474 416 OFFCURVE",
"406 352 OFFCURVE",
"368 281 CURVE"
);
}
);
width = 755;
}
);
leftKerningGroup = Ka;
rightKerningGroup = Ka;
unicode = 0915;
},
{
color = 5;
glyphname = dvKha;
lastChange = "2016-03-11 15:53:53 +0000";
layers = (
{
anchors = (
{
name = abvmBINDU;
position = "{488, 640}";
},
{
name = abvmCANDRABINDU;
position = "{507, 640}";
},
{
name = abvmCANDRABINDU2;
position = "{864, 640}";
},
{
name = abvmTOP;
position = "{672, 470}";
},
{
name = blwmBOTTOM;
position = "{608, -53}";
}
);
layerId = "765B86F4-5B75-49D9-B08E-C73D0440621F";
name = Regular;
paths = (
{
closed = 1;
nodes = (
"635 300 LINE",
"620 218 OFFCURVE",
"527 188 OFFCURVE",
"460 216 CURVE",
"408 273 OFFCURVE",
"441 376 OFFCURVE",
"540 376 CURVE SMOOTH",
"576 376 OFFCURVE",
"616 362 OFFCURVE",
"653 333 CURVE",
"675 375 LINE",
"529 458 LINE",
"426 480 OFFCURVE",
"345 401 OFFCURVE",
"345 316 CURVE SMOOTH",
"345 214 OFFCURVE",
"461 127 OFFCURVE",
"559 127 CURVE SMOOTH",
"622 127 OFFCURVE",
"661 164 OFFCURVE",
"694 222 CURVE"
);
},
{
closed = 1;
nodes = (
"842 538 LINE",
"855 565 LINE",
"817 624 LINE",
"212 624 LINE",
"199 596 LINE",
"239 538 LINE"
);
},
{
closed = 1;
nodes = (
"623 10 LINE",
"700 -36 LINE",
"732 -24 LINE",
"732 497 LINE",
"658 555 LINE",
"623 571 LINE"
);
},
{
closed = 1;
nodes = (
"451 538 LINE",
"464 565 LINE",
"425 624 LINE",
"-26 624 LINE",
"-39 596 LINE",
"0 538 LINE"
);
},
{
closed = 1;
nodes = (
"310 498 LINE",
"245 549 LINE",
"203 565 LINE",
"204 389 LINE SMOOTH",
"205 314 OFFCURVE",
"157 284 OFFCURVE",
"87 270 CURVE",
"168 164 LINE",
"240 239 LINE SMOOTH",
"283 281 OFFCURVE",
"310 313 OFFCURVE",
"310 373 CURVE SMOOTH"
);
},
{
closed = 1;
nodes = (
"606 90 OFFCURVE",
"532 53 OFFCURVE",
"442 53 CURVE",
"333 53 OFFCURVE",
"209 117 OFFCURVE",
"164 245 CURVE",
"236 339 LINE",
"75 339 LINE",
"49 279 LINE",
"123 87 OFFCURVE",
"294 -29 OFFCURVE",
"451 -29 CURVE",
"539 -29 OFFCURVE",
"623 2 OFFCURVE",
"676 68 CURVE",
"650 147 LINE"
);
}
);
width = 817;
}
);
leftKerningGroup = Ra;
unicode = 0916;
},
{
glyphname = dvGa;
lastChange = "2016-03-11 15:53:54 +0000";
layers = (
{
anchors = (
{
name = abvmBINDU;
position = "{344, 640}";
},
{
name = abvmCANDRABINDU;
position = "{355, 640}";
},
{
name = abvmCANDRABINDU2;
position = "{663, 640}";
},
{
name = abvmTOP;
position = "{470, 470}";
},
{
name = blwmBOTTOM;
position = "{406, 4}";
}
);
layerId = "765B86F4-5B75-49D9-B08E-C73D0440621F";
name = Regular;
paths = (
{
closed = 1;
nodes = (
"36 279 LINE",
"57 216 OFFCURVE",
"132 147 OFFCURVE",
"193 118 CURVE",
"245 142 LINE",
"245 286 LINE",
"183 323 LINE",
"66 323 LINE"
);
},
{
closed = 1;
nodes = (
"421 10 LINE",
"498 -36 LINE",
"530 -24 LINE",
"530 497 LINE",
"456 555 LINE",
"421 571 LINE"
);
},
{
closed = 1;
nodes = (
"641 538 LINE",
"654 565 LINE",
"615 624 LINE",
"-26 624 LINE",
"-39 596 LINE",
"0 538 LINE"
);
},
{
closed = 1;
nodes = (
"138 257 LINE",
"245 223 LINE",
"245 497 LINE",
"171 555 LINE",
"136 571 LINE"
);
}
);
width = 615;
}
);
leftKerningGroup = Ma;
unicode = 0917;
},
{
glyphname = dvGha;
lastChange = "2016-03-11 15:53:54 +0000";
layers = (
{
anchors = (
{
name = abvmBINDU;
position = "{356, 640}";
},
{
name = abvmCANDRABINDU;
position = "{382, 640}";
},
{
name = abvmCANDRABINDU2;
position = "{717, 640}";
},
{
name = abvmTOP;
position = "{525, 470}";
},
{
name = blwmBOTTOM;
position = "{461, 4}";
}
);
layerId = "765B86F4-5B75-49D9-B08E-C73D0440621F";
name = Regular;
paths = (
{
closed = 1;
nodes = (
"91 588 LINE",
"57 561 OFFCURVE",
"40 530 OFFCURVE",
"40 497 CURVE SMOOTH",
"40 430 OFFCURVE",
"106 362 OFFCURVE",
"223 322 CURVE",
"243 368 LINE",
"180 385 OFFCURVE",
"148 425 OFFCURVE",
"148 466 CURVE SMOOTH",
"148 498 OFFCURVE",
"168 530 OFFCURVE",
"209 550 CURVE"
);
},
{
closed = 1;
nodes = (
"393 341 LINE",
"339 414 LINE",
"190 439 OFFCURVE",
"113 351 OFFCURVE",
"113 274 CURVE SMOOTH",
"113 214 OFFCURVE",
"158 159 OFFCURVE",
"205 126 CURVE SMOOTH",
"245 97 OFFCURVE",
"298 75 OFFCURVE",
"356 75 CURVE SMOOTH",
"417 75 OFFCURVE",
"480 100 OFFCURVE",
"521 162 CURVE",
"482 284 LINE",
"441 178 OFFCURVE",
"298 144 OFFCURVE",
"240 170 CURVE",
"178 234 OFFCURVE",
"235 338 OFFCURVE",
"380 314 CURVE"
);
},
{
closed = 1;
nodes = (
"476 10 LINE",
"553 -36 LINE",
"585 -24 LINE",
"585 497 LINE",
"511 555 LINE",
"476 571 LINE"
);
},
{
closed = 1;
nodes = (
"696 538 LINE",
"709 565 LINE",
"670 624 LINE",
"-31 624 LINE",
"-44 596 LINE",
"-5 538 LINE"
);
}
);
width = 670;
}
);
leftKerningGroup = Gha;
unicode = 0918;
},
{
glyphname = dvNga;
lastChange = "2016-03-11 15:53:53 +0000";
layers = (
{
anchors = (
{
name = abvmBINDU;
position = "{432, 640}";
},
{
name = abvmCANDRABINDU;
position = "{418, 640}";
},
{
name = abvmCANDRABINDU2;
position = "{675, 640}";
},
{
name = abvmTOP;
position = "{447, 470}";
},
{
name = blwmBOTTOM;
position = "{331, -41}";
}
);
layerId = "765B86F4-5B75-49D9-B08E-C73D0440621F";
name = Regular;
paths = (
{
closed = 1;
nodes = (
"655 226 OFFCURVE",
"683 260 OFFCURVE",
"693 289 CURVE",
"677 310 OFFCURVE",
"643 341 OFFCURVE",
"614 353 CURVE",
"590 338 OFFCURVE",
"564 304 OFFCURVE",
"548 272 CURVE",
"566 248 OFFCURVE",
"604 219 OFFCURVE",
"630 208 CURVE"
);
},
{
closed = 1;
nodes = (
"33 198 LINE",
"151 23 OFFCURVE",
"257 -41 OFFCURVE",
"364 -41 CURVE SMOOTH",
"479 -41 OFFCURVE",
"550 35 OFFCURVE",
"550 121 CURVE SMOOTH",
"550 202 OFFCURVE",
"487 281 OFFCURVE",
"391 307 CURVE",
"219 254 LINE",
"199 269 OFFCURVE",
"186 287 OFFCURVE",
"186 308 CURVE SMOOTH",
"186 344 OFFCURVE",
"225 366 OFFCURVE",
"279 366 CURVE SMOOTH",
"489 366 LINE",
"411 464 LINE",
"252 464 LINE SMOOTH",
"146 464 OFFCURVE",
"93 408 OFFCURVE",
"93 348 CURVE SMOOTH",
"93 269 OFFCURVE",
"186 178 OFFCURVE",
"296 153 CURVE",
"449 205 LINE",
"483 147 OFFCURVE",
"430 58 OFFCURVE",
"323 58 CURVE SMOOTH",
"239 58 OFFCURVE",
"162 111 OFFCURVE",
"80 236 CURVE"
);
},
{
closed = 1;
nodes = (
"396 378 LINE",
"496 366 LINE",
"496 497 LINE",
"423 555 LINE",
"396 571 LINE"
);
},
{
closed = 1;
nodes = (
"719 538 LINE",
"732 565 LINE",
"693 624 LINE",
"-26 624 LINE",
"-39 596 LINE",
"0 538 LINE"
);
}
);
width = 693;
}
);
leftKerningGroup = Dda;
rightKerningGroup = Nga;
unicode = 0919;
},
{
glyphname = dvCa;
lastChange = "2016-03-11 15:53:54 +0000";
layers = (
{
anchors = (
{
name = abvmBINDU;
position = "{531, 640}";
},
{
name = abvmCANDRABINDU;
position = "{515, 640}";
},
{
name = abvmCANDRABINDU2;
position = "{723, 640}";
},
{
name = abvmTOP;
position = "{530, 470}";
},
{
name = blwmBOTTOM;
position = "{466, 4}";
}
);
layerId = "765B86F4-5B75-49D9-B08E-C73D0440621F";
name = Regular;
paths = (
{
closed = 1;
nodes = (
"206 417 LINE",
"156 390 OFFCURVE",
"121 345 OFFCURVE",
"121 288 CURVE SMOOTH",
"121 227 OFFCURVE",
"162 174 OFFCURVE",
"209 140 CURVE SMOOTH",
"249 112 OFFCURVE",
"305 87 OFFCURVE",
"366 87 CURVE SMOOTH",
"443 87 OFFCURVE",
"513 127 OFFCURVE",
"553 210 CURVE",
"491 299 LINE",
"451 198 OFFCURVE",
"328 155 OFFCURVE",
"246 182 CURVE",
"208 236 OFFCURVE",
"235 335 OFFCURVE",
"305 358 CURVE"
);
},
{
closed = 1;
nodes = (
"481 10 LINE",
"558 -36 LINE",
"590 -24 LINE",
"590 497 LINE",
"516 555 LINE",
"481 571 LINE"
);
},
{
closed = 1;
nodes = (
"701 538 LINE",
"714 565 LINE",
"675 624 LINE",
"-26 624 LINE",
"-39 596 LINE",
"0 538 LINE"
);
},
{
closed = 1;
nodes = (
"163 354 LINE",
"189 347 LINE",
"404 347 LINE",
"417 374 LINE",
"376 437 LINE",
"13 437 LINE",
"0 410 LINE",
"37 354 LINE"
);
}
);
width = 675;
}
);
unicode = 091A;
},
{
glyphname = dvCha;
lastChange = "2016-03-11 15:53:54 +0000";
layers = (
{
anchors = (
{
name = abvmBINDU;
position = "{386, 640}";
},
{
name = abvmCANDRABINDU;
position = "{410, 640}";
},
{
name = abvmCANDRABINDU2;
position = "{728, 640}";
},
{
name = abvmTOP;
position = "{547, 470}";
},
{
name = blwmBOTTOM;
position = "{373, -46}";
}
);
layerId = "765B86F4-5B75-49D9-B08E-C73D0440621F";
name = Regular;
paths = (
{
closed = 1;
nodes = (
"395 204 LINE",
"342 277 LINE",
"217 307 OFFCURVE",
"124 238 OFFCURVE",
"124 152 CURVE SMOOTH",
"124 54 OFFCURVE",
"244 -53 OFFCURVE",
"395 -53 CURVE SMOOTH",
"572 -53 OFFCURVE",
"706 94 OFFCURVE",
"706 256 CURVE SMOOTH",
"706 390 OFFCURVE",
"613 491 OFFCURVE",
"510 491 CURVE SMOOTH",
"433 491 OFFCURVE",
"380 433 OFFCURVE",
"380 367 CURVE SMOOTH",
"380 291 OFFCURVE",
"449 219 OFFCURVE",
"585 143 CURVE",
"610 190 LINE",
"517 236 OFFCURVE",
"480 286 OFFCURVE",
"480 337 CURVE SMOOTH",
"480 397 OFFCURVE",
"536 434 OFFCURVE",
"592 399 CURVE",
"608 379 OFFCURVE",
"615 337 OFFCURVE",
"615 300 CURVE SMOOTH",
"615 155 OFFCURVE",
"491 29 OFFCURVE",
"329 29 CURVE SMOOTH",
"302 29 OFFCURVE",
"284 33 OFFCURVE",
"267 39 CURVE",
"241 57 OFFCURVE",
"228 85 OFFCURVE",
"228 110 CURVE SMOOTH",
"228 160 OFFCURVE",
"279 201 OFFCURVE",
"375 176 CURVE"
);
},
{
closed = 1;
nodes = (
"497 428 LINE",
"597 410 LINE",
"597 497 LINE",
"524 555 LINE",
"497 571 LINE"
);
},
{
closed = 1;
nodes = (
"779 538 LINE",
"792 565 LINE",
"753 624 LINE",
"-26 624 LINE",
"-39 596 LINE",
"0 538 LINE"
);
},
{
closed = 1;
nodes = (
"324 406 LINE",
"274 481 LINE",
"183 481 LINE SMOOTH",
"77 481 OFFCURVE",
"33 422 OFFCURVE",
"33 363 CURVE SMOOTH",
"33 303 OFFCURVE",
"79 251 OFFCURVE",
"156 206 CURVE",
"210 231 LINE",
"150 269 OFFCURVE",
"130 292 OFFCURVE",
"130 322 CURVE SMOOTH",
"130 366 OFFCURVE",
"174 381 OFFCURVE",
"226 381 CURVE SMOOTH",
"309 381 LINE"
);
}
);
width = 753;
}
);
rightKerningGroup = Cha;
unicode = 091B;
},
{
glyphname = dvJa;
lastChange = "2016-03-11 15:53:54 +0000";
layers = (
{
anchors = (
{
name = abvmBINDU;
position = "{549, 640}";
},
{
name = abvmCANDRABINDU;
position = "{533, 640}";
},
{
name = abvmCANDRABINDU2;
position = "{740, 640}";
},
{
name = abvmTOP;
position = "{548, 470}";
},
{
name = blwmBOTTOM;
position = "{484, 4}";
}
);
layerId = "765B86F4-5B75-49D9-B08E-C73D0440621F";
name = Regular;
paths = (
{
closed = 1;
nodes = (
"7 394 LINE",
"62 194 OFFCURVE",
"151 44 OFFCURVE",
"284 44 CURVE SMOOTH",
"364 44 OFFCURVE",
"423 99 OFFCURVE",
"423 179 CURVE SMOOTH",
"423 270 OFFCURVE",
"347 365 OFFCURVE",
"210 390 CURVE",
"194 392 LINE",
"194 365 LINE",
"279 329 LINE",
"357 258 OFFCURVE",
"334 155 OFFCURVE",
"252 155 CURVE SMOOTH",
"169 155 OFFCURVE",
"121 258 OFFCURVE",
"74 416 CURVE"
);
},
{
closed = 1;
nodes = (
"533 423 LINE",
"194 423 LINE",
"194 381 LINE",
"313 327 LINE",
"529 327 LINE"
);
},
{
closed = 1;
nodes = (
"499 10 LINE",
"576 -36 LINE",
"608 -24 LINE",
"608 497 LINE",
"534 555 LINE",
"499 571 LINE"
);
},
{
closed = 1;
nodes = (
"719 538 LINE",
"732 565 LINE",
"693 624 LINE",
"-26 624 LINE",
"-39 596 LINE",
"0 538 LINE"
);
}
);
width = 693;
}
);
leftKerningGroup = Ja;
unicode = 091C;
},
{
glyphname = dvJha;
lastChange = "2016-03-11 15:53:53 +0000";
layers = (
{
anchors = (
{
name = abvmBINDU;
position = "{527, 640}";
},
{
name = abvmCANDRABINDU;
position = "{543, 640}";
},
{
name = abvmCANDRABINDU2;
position = "{858, 640}";
},
{
name = abvmTOP;
position = "{666, 470}";
},
{
name = blwmBOTTOM;
position = "{602, 4}";
}
);
components = (
{
name = dvI;
}
);
layerId = "765B86F4-5B75-49D9-B08E-C73D0440621F";
name = Regular;
paths = (
{
closed = 1;
nodes = (
"617 10 LINE",
"694 -36 LINE",
"726 -24 LINE",
"726 497 LINE",
"652 555 LINE",
"617 571 LINE"
);
},
{
closed = 1;
nodes = (
"837 538 LINE",
"850 565 LINE",
"811 624 LINE",
"497 624 LINE",
"484 596 LINE",
"523 538 LINE"
);
},
{
closed = 1;
nodes = (
"365 272 LINE",
"484 192 OFFCURVE",
"566 170 OFFCURVE",
"629 197 CURVE",
"626 308 LINE",
"571 258 OFFCURVE",
"468 266 OFFCURVE",
"376 306 CURVE"
);
}
);
width = 811;
}
);
leftKerningGroup = Dda;
unicode = 091D;
},
{
glyphname = dvJha.NEP;
lastChange = "2016-03-11 15:53:54 +0000";
layers = (
{
anchors = (
{
name = abvmBINDU;
position = "{522, 640}";
},
{
name = abvmCANDRABINDU;
position = "{506, 640}";
},
{
name = abvmCANDRABINDU2;
position = "{772, 640}";
},
{
name = abvmTOP;
position = "{515, 470}";
},
{
name = blwmBOTTOM;
position = "{448, 4}";
}
);
layerId = "765B86F4-5B75-49D9-B08E-C73D0440621F";
name = Regular;
paths = (
{
closed = 1;
nodes = (
"93 278 LINE",
"117 215 OFFCURVE",
"197 135 OFFCURVE",
"254 107 CURVE",
"306 131 LINE",
"306 285 LINE",
"239 321 LINE",
"122 321 LINE"
);
},
{
closed = 1;
nodes = (
"463 10 LINE",
"540 -36 LINE",
"572 -24 LINE",
"572 497 LINE",
"498 555 LINE",
"463 571 LINE"
);
},
{
closed = 1;
nodes = (
"877 538 LINE",
"890 565 LINE",
"851 624 LINE",
"357 624 LINE",
"344 596 LINE",
"383 538 LINE"
);
},
{
closed = 1;
nodes = (
"513 321 LINE",
"185 321 LINE",
"216 225 LINE",
"535 225 LINE"
);
},
{
closed = 1;
nodes = (
"53 647 OFFCURVE",
"2 605 OFFCURVE",
"2 546 CURVE SMOOTH",
"2 507 OFFCURVE",
"25 458 OFFCURVE",
"110 404 CURVE",
"146 443 LINE",
"63 493 OFFCURVE",
"96 576 OFFCURVE",
"167 571 CURVE",
"192 550 OFFCURVE",
"196 520 OFFCURVE",
"196 486 CURVE SMOOTH",
"197 262 LINE",
"302 235 LINE",
"302 448 LINE",
"300 544 OFFCURVE",
"211 647 OFFCURVE",
"114 647 CURVE SMOOTH"
);
},
{
closed = 1;
nodes = (
"556 239 LINE",
"669 239 LINE",
"727 239 OFFCURVE",
"752 214 OFFCURVE",
"752 178 CURVE SMOOTH",
"752 139 OFFCURVE",
"722 90 OFFCURVE",
"647 37 CURVE",
"723 -45 LINE",
"803 13 OFFCURVE",
"842 77 OFFCURVE",
"842 146 CURVE SMOOTH",
"842 251 OFFCURVE",
"749 337 OFFCURVE",
"646 337 CURVE",
"535 337 LINE"
);
}
);
width = 852;
}
);
leftKerningGroup = Ma;
rightKerningGroup = Ka;
},
{
glyphname = dvNya;
lastChange = "2016-03-11 15:53:53 +0000";
layers = (
{
anchors = (
{
name = abvmBINDU;
position = "{630, 640}";
},
{
name = abvmCANDRABINDU;
position = "{614, 640}";
},
{
name = abvmCANDRABINDU2;
position = "{821, 640}";
},
{
name = abvmTOP;
position = "{629, 470}";
},
{
name = blwmBOTTOM;
position = "{565, 4}";
}
);
layerId = "765B86F4-5B75-49D9-B08E-C73D0440621F";
name = Regular;
paths = (
{
closed = 1;
nodes = (
"226 305 LINE",
"348 407 LINE",
"291 393 LINE",
"356 394 OFFCURVE",
"399 344 OFFCURVE",
"399 289 CURVE SMOOTH",
"399 234 OFFCURVE",
"355 181 OFFCURVE",
"278 181 CURVE SMOOTH",
"187 181 OFFCURVE",
"120 256 OFFCURVE",
"46 373 CURVE",
"-7 335 LINE",
"100 149 OFFCURVE",
"222 80 OFFCURVE",
"318 80 CURVE SMOOTH",
"414 80 OFFCURVE",
"499 147 OFFCURVE",
"499 253 CURVE SMOOTH",
"499 368 OFFCURVE",
"400 460 OFFCURVE",
"294 460 CURVE SMOOTH",
"249 460 OFFCURVE",
"198 443 OFFCURVE",
"154 398 CURVE"
);
},
{
closed = 1;
nodes = (
"580 10 LINE",
"657 -36 LINE",
"689 -24 LINE",
"689 497 LINE",
"615 555 LINE",
"580 571 LINE"
);
},
{
closed = 1;
nodes = (
"800 538 LINE",
"813 565 LINE",
"774 624 LINE",
"-26 624 LINE",
"-39 596 LINE",
"0 538 LINE"
);
},
{
closed = 1;
nodes = (
"408 281 LINE",
"496 218 OFFCURVE",
"573 198 OFFCURVE",
"626 222 CURVE",
"625 329 LINE",
"581 284 OFFCURVE",
"491 283 OFFCURVE",
"419 322 CURVE"
);
}
);
width = 774;
}
);
unicode = 091E;
},
{
glyphname = dvTta;
lastChange = "2016-03-11 15:53:53 +0000";
layers = (
{
anchors = (
{
name = abvmBINDU;
position = "{359, 640}";
},
{
name = abvmCANDRABINDU;
position = "{350, 640}";
},
{
name = abvmCANDRABINDU2;
position = "{563, 640}";
},
{
name = abvmTOP;
position = "{379, 470}";
},
{
name = blwmBOTTOM;
position = "{314, -7}";
}
);
layerId = "765B86F4-5B75-49D9-B08E-C73D0440621F";
name = Regular;
paths = (
{
closed = 1;
nodes = (
"459 173 LINE",
"396 94 OFFCURVE",
"278 65 OFFCURVE",
"193 98 CURVE",
"160 126 OFFCURVE",
"143 162 OFFCURVE",
"143 197 CURVE SMOOTH",
"143 252 OFFCURVE",
"184 300 OFFCURVE",
"273 300 CURVE SMOOTH",
"431 300 LINE",
"352 405 LINE",
"256 405 LINE SMOOTH",
"107 405 OFFCURVE",
"41 330 OFFCURVE",
"41 238 CURVE SMOOTH",
"41 90 OFFCURVE",
"208 -15 OFFCURVE",
"332 -15 CURVE SMOOTH",
"398 -15 OFFCURVE",
"477 16 OFFCURVE",
"529 86 CURVE"
);
},
{
closed = 1;
nodes = (
"323 342 LINE",
"430 300 LINE",
"430 497 LINE",
"357 555 LINE",
"323 571 LINE"
);
},
{
closed = 1;
nodes = (
"581 538 LINE",
"594 565 LINE",
"556 624 LINE",
"-26 624 LINE",
"-39 596 LINE",
"0 538 LINE"
);
}
);
width = 555;
}
);
leftKerningGroup = Da;
rightKerningGroup = Tta;
unicode = 091F;
},
{
glyphname = dvTtha;
lastChange = "2016-03-11 15:53:53 +0000";
layers = (
{
anchors = (
{
name = abvmBINDU;
position = "{370, 640}";
},
{
name = abvmCANDRABINDU;
position = "{354, 640}";
},
{
name = abvmCANDRABINDU2;
position = "{584, 640}";
},
{
name = abvmTOP;
position = "{378, 470}";
},
{
name = blwmBOTTOM;
position = "{329, -16}";
}
);
layerId = "765B86F4-5B75-49D9-B08E-C73D0440621F";
name = Regular;
paths = (
{
closed = 1;
nodes = (
"385 317 LINE",
"428 277 OFFCURVE",
"450 233 OFFCURVE",
"450 192 CURVE SMOOTH",
"450 124 OFFCURVE",
"393 64 OFFCURVE",
"301 64 CURVE SMOOTH",
"269 64 OFFCURVE",
"236 72 OFFCURVE",
"202 88 CURVE",
"168 116 OFFCURVE",
"149 155 OFFCURVE",
"149 192 CURVE SMOOTH",
"149 249 OFFCURVE",
"192 300 OFFCURVE",
"286 300 CURVE SMOOTH",
"432 300 LINE",
"355 404 LINE",
"262 404 LINE SMOOTH",
"122 404 OFFCURVE",
"47 331 OFFCURVE",
"47 232 CURVE SMOOTH",
"47 90 OFFCURVE",
"201 -23 OFFCURVE",
"352 -23 CURVE SMOOTH",
"469 -23 OFFCURVE",
"553 46 OFFCURVE",
"553 148 CURVE SMOOTH",
"553 226 OFFCURVE",
"502 314 OFFCURVE",
"406 370 CURVE"
);
},
{
closed = 1;
nodes = (
"326 325 LINE",
"433 307 LINE",
"433 497 LINE",
"360 555 LINE",
"326 571 LINE"
);
},
{
closed = 1;
nodes = (
"625 538 LINE",
"638 565 LINE",
"599 624 LINE",
"-26 624 LINE",
"-39 596 LINE",
"0 538 LINE"
);
}
);
width = 599;
}
);
leftKerningGroup = Da;
rightKerningGroup = Tta;
unicode = 0920;
},
{
glyphname = dvDda;
lastChange = "2016-03-11 15:53:53 +0000";
layers = (
{
anchors = (
{
name = abvmBINDU;
position = "{439, 640}";
},
{
name = abvmCANDRABINDU;
position = "{429, 640}";
},
{
name = abvmCANDRABINDU2;
position = "{622, 640}";
},
{
name = abvmTOP;
position = "{451, 470}";
},
{
name = blwmBOTTOM;
position = "{316, -48}";
}
);
layerId = "765B86F4-5B75-49D9-B08E-C73D0440621F";
name = Regular;
paths = (
{
closed = 1;
nodes = (
"27 194 LINE",
"146 14 OFFCURVE",
"258 -48 OFFCURVE",
"364 -48 CURVE SMOOTH",
"480 -48 OFFCURVE",
"555 25 OFFCURVE",
"555 113 CURVE SMOOTH",
"555 194 OFFCURVE",
"492 273 OFFCURVE",
"393 299 CURVE",
"219 249 LINE",
"196 267 OFFCURVE",
"186 288 OFFCURVE",
"186 307 CURVE SMOOTH",
"186 339 OFFCURVE",
"215 364 OFFCURVE",
"274 364 CURVE SMOOTH",
"501 364 LINE",
"421 466 LINE",
"261 466 LINE SMOOTH",
"142 466 OFFCURVE",
"92 407 OFFCURVE",
"92 346 CURVE SMOOTH",
"92 263 OFFCURVE",
"184 170 OFFCURVE",
"298 146 CURVE",
"455 197 LINE",
"487 132 OFFCURVE",
"431 51 OFFCURVE",
"327 51 CURVE SMOOTH",
"242 51 OFFCURVE",
"155 102 OFFCURVE",
"74 231 CURVE"
);
},
{
closed = 1;
nodes = (
"401 377 LINE",
"501 364 LINE",
"501 497 LINE",
"428 555 LINE",
"401 571 LINE"
);
},
{
closed = 1;
nodes = (
"628 538 LINE",
"641 565 LINE",
"603 624 LINE",
"-26 624 LINE",
"-39 596 LINE",
"0 538 LINE"
);
}
);
width = 602;
}
);
leftKerningGroup = Dda;
rightKerningGroup = Da;
unicode = 0921;
},
{
glyphname = dvDdha;
lastChange = "2016-03-11 15:53:54 +0000";
layers = (
{
anchors = (
{
name = abvmBINDU;
position = "{408, 640}";
},
{
name = abvmCANDRABINDU;
position = "{398, 640}";
},
{
name = abvmCANDRABINDU2;
position = "{591, 640}";
},
{
name = abvmTOP;
position = "{417, 470}";
},
{
name = blwmBOTTOM;
position = "{349, -37}";
}
);
layerId = "765B86F4-5B75-49D9-B08E-C73D0440621F";
name = Regular;
paths = (
{
closed = 1;
nodes = (
"406 33 LINE",
"380 69 OFFCURVE",
"368 96 OFFCURVE",
"368 126 CURVE SMOOTH",
"368 174 OFFCURVE",
"399 198 OFFCURVE",
"427 198 CURVE SMOOTH",
"454 198 OFFCURVE",
"474 176 OFFCURVE",
"474 145 CURVE SMOOTH",
"474 88 OFFCURVE",
"407 49 OFFCURVE",
"328 49 CURVE SMOOTH",
"282 49 OFFCURVE",
"241 62 OFFCURVE",
"205 77 CURVE",
"165 112 OFFCURVE",
"145 159 OFFCURVE",
"145 201 CURVE SMOOTH",
"145 266 OFFCURVE",
"192 330 OFFCURVE",
"290 330 CURVE SMOOTH",
"468 330 LINE",
"400 434 LINE",
"270 434 LINE SMOOTH",
"112 434 OFFCURVE",
"43 337 OFFCURVE",
"43 242 CURVE SMOOTH",
"43 100 OFFCURVE",
"198 -45 OFFCURVE",
"366 -45 CURVE SMOOTH",
"490 -45 OFFCURVE",
"547 34 OFFCURVE",
"547 104 CURVE SMOOTH",
"547 177 OFFCURVE",
"484 270 OFFCURVE",
"388 270 CURVE SMOOTH",
"321 270 OFFCURVE",
"270 223 OFFCURVE",
"270 157 CURVE SMOOTH",
"270 132 OFFCURVE",
"277 108 OFFCURVE",
"292 84 CURVE",
"387 21 LINE"
);
},
{
closed = 1;
nodes = (
"365 344 LINE",
"468 330 LINE",
"468 497 LINE",
"395 555 LINE",
"365 571 LINE"
);
},
{
closed = 1;
nodes = (
"607 538 LINE",
"620 565 LINE",
"581 624 LINE",
"-26 624 LINE",
"-39 596 LINE",
"0 538 LINE"
);
}
);
width = 581;
}
);
leftKerningGroup = Da;
rightKerningGroup = Tta;
unicode = 0922;
},
